<svg width="34" height="34" viewBox="0 0 34 34" fill="none" xmlns="http://www.w3.org/2000/svg">
<path d="M2.49315 31.3447L13.0998 20.738M26.4565 16.0214L23.2815 25.5464C23.2308 25.699 23.1441 25.8372 23.0286 25.9492C22.9131 26.0612 22.7723 26.1437 22.6182 26.1897L3.15482 31.9747C2.97947 32.0268 2.7932 32.0298 2.61627 31.9833C2.43934 31.9369 2.27854 31.8428 2.15136 31.7113C2.02419 31.5799 1.93551 31.416 1.89498 31.2377C1.85444 31.0593 1.86361 30.8732 1.92149 30.6997L8.24149 11.743C8.28678 11.6069 8.36083 11.4821 8.4586 11.3772C8.55638 11.2722 8.67559 11.1895 8.80815 11.1347L17.7865 7.43803C17.969 7.36265 18.1698 7.34299 18.3635 7.38155C18.5571 7.42011 18.7351 7.51515 18.8748 7.6547L26.2148 14.9964C26.3465 15.1278 26.4388 15.2934 26.4815 15.4745C26.5242 15.6555 26.5155 15.8449 26.4565 16.0214V16.0214Z" stroke="url(#paint0_linear_241_25)" stroke-width="2" stroke-linecap="round" stroke-linejoin="round"/>
<path d="M26.6532 15.4347L31.3666 10.7197C31.9915 10.0946 32.3425 9.24692 32.3425 8.36304C32.3425 7.47916 31.9915 6.63147 31.3666 6.00638L27.8332 2.46971C27.5237 2.16004 27.1562 1.91438 26.7517 1.74678C26.3471 1.57918 25.9136 1.49292 25.4757 1.49292C25.0379 1.49292 24.6043 1.57918 24.1998 1.74678C23.7953 1.91438 23.4278 2.16004 23.1182 2.46971L18.4049 7.18471M16.6349 17.2014C16.4027 16.9693 16.127 16.7852 15.8236 16.6596C15.5203 16.534 15.1951 16.4694 14.8668 16.4695C14.5385 16.4696 14.2134 16.5343 13.9101 16.66C13.6068 16.7858 13.3312 16.97 13.0991 17.2022C12.867 17.4344 12.6829 17.7101 12.5573 18.0135C12.4317 18.3168 12.3671 18.642 12.3672 18.9703C12.3673 19.2986 12.432 19.6237 12.5577 19.927C12.6834 20.2304 12.8677 20.5059 13.0999 20.738C13.5689 21.2068 14.2049 21.4701 14.868 21.4699C15.5311 21.4698 16.167 21.2062 16.6357 20.7372C17.1045 20.2682 17.3678 19.6322 17.3676 18.9691C17.3675 18.306 17.1039 17.6701 16.6349 17.2014Z" stroke="url(#paint1_linear_241_25)" stroke-width="2" stroke-linecap="round" stroke-linejoin="round"/>
<defs>
<linearGradient id="paint0_linear_241_25" x1="1.87012" y1="19.6892" x2="26.5082" y2="19.6892" gradientUnits="userSpaceOnUse">
<stop stop-color="#CD4B3A"/>
<stop offset="1" stop-color="#E17139"/>
</linearGradient>
<linearGradient id="paint1_linear_241_25" x1="12.3672" y1="11.4814" x2="32.3425" y2="11.4814" gradientUnits="userSpaceOnUse">
<stop stop-color="#CD4B3A"/>
<stop offset="1" stop-color="#E17139"/>
</linearGradient>
</defs>
</svg>
