<svg width="36" height="26" viewBox="0 0 36 26" fill="none" xmlns="http://www.w3.org/2000/svg">
<path d="M27.1222 18.0081L24.1045 21.3414L27.1222 24.6747M31.6487 18.0081L34.6664 21.3414L31.6487 24.6747" stroke="url(#paint0_linear_241_33)" stroke-width="2" stroke-linecap="round" stroke-linejoin="round"/>
<path d="M4.52793 4.63347C4.52793 4.07191 4.98317 3.61668 5.54473 3.61668C6.10629 3.61668 6.56152 4.07191 6.56152 4.63347C6.56152 5.19503 6.10629 5.65027 5.54473 5.65027C4.98317 5.65027 4.52793 5.19503 4.52793 4.63347Z" fill="url(#paint1_linear_241_33)"/>
<path d="M8.82774 4.63347C8.82774 4.07191 9.28297 3.61668 9.84453 3.61668C10.4061 3.61668 10.8613 4.07191 10.8613 4.63347C10.8613 5.19503 10.4061 5.65027 9.84453 5.65027C9.28297 5.65027 8.82774 5.19503 8.82774 4.63347Z" fill="url(#paint2_linear_241_33)"/>
<path d="M34.6663 8.0081V2.34143C34.6663 2.21011 34.6405 2.08007 34.5902 1.95875C34.54 1.83742 34.4663 1.72718 34.3735 1.63432C34.2806 1.54147 34.1704 1.46781 34.049 1.41755C33.9277 1.3673 33.7977 1.34143 33.6663 1.34143H2.33301C2.0678 1.34143 1.81344 1.44679 1.62591 1.63432C1.43837 1.82186 1.33301 2.07621 1.33301 2.34143V23.6748C1.33301 23.94 1.43837 24.1943 1.62591 24.3819C1.81344 24.5694 2.0678 24.6748 2.33301 24.6748H17.9997M34.6663 8.0081H1.33301M34.6663 8.0081V11.3414" stroke="url(#paint3_linear_241_33)" stroke-width="2" stroke-linecap="round" stroke-linejoin="round"/>
<defs>
<linearGradient id="paint0_linear_241_33" x1="24.1045" y1="21.3414" x2="34.6664" y2="21.3414" gradientUnits="userSpaceOnUse">
<stop stop-color="#CD4B3A"/>
<stop offset="1" stop-color="#E17139"/>
</linearGradient>
<linearGradient id="paint1_linear_241_33" x1="5.54473" y1="5.65027" x2="5.54473" y2="3.61668" gradientUnits="userSpaceOnUse">
<stop stop-color="#CD4B3A"/>
<stop offset="1" stop-color="#E17139"/>
</linearGradient>
<linearGradient id="paint2_linear_241_33" x1="9.84453" y1="5.65027" x2="9.84453" y2="3.61668" gradientUnits="userSpaceOnUse">
<stop stop-color="#CD4B3A"/>
<stop offset="1" stop-color="#E17139"/>
</linearGradient>
<linearGradient id="paint3_linear_241_33" x1="1.33301" y1="13.0081" x2="34.6663" y2="13.0081" gradientUnits="userSpaceOnUse">
<stop stop-color="#CD4B3A"/>
<stop offset="1" stop-color="#E17139"/>
</linearGradient>
</defs>
</svg>
