<svg width="40" height="41" viewBox="0 0 40 41" fill="none" xmlns="http://www.w3.org/2000/svg">
<path d="M2.47559 23.4969C2.93589 22.5551 4.04623 20.3848 9.54806 20.3848C14.9076 20.3848 16.0636 22.364 16.4756 23.4969M2.47559 23.4969C2.5239 24.7349 4.00603 27.1803 9.54806 27.0573C15.0901 26.9344 16.4756 24.6325 16.4756 23.4969M2.47559 23.4969V29.8137M16.4756 23.4969V29.8137M2.47559 29.8137V34.7672C2.60389 35.8694 4.198 38.0852 9.54806 38.1309C14.8981 38.1766 16.3956 35.9075 16.4756 34.7672V29.8137M2.47559 29.8137C2.83707 30.6415 4.75177 32.7428 9.54806 32.7428C14.5975 32.7428 16.1624 30.4707 16.4756 29.8137" stroke="url(#paint0_linear_206_689)" stroke-width="2"/>
<path d="M23.5332 4.99661C23.9935 4.05479 25.1038 1.88452 30.6057 1.88452C35.9652 1.88452 37.1212 3.8637 37.5332 4.99661M23.5332 4.99661C23.5815 6.23463 25.0636 8.67994 30.6057 8.55703C36.1477 8.43412 37.5332 6.1322 37.5332 4.99661M23.5332 4.99661V11.3134M37.5332 4.99661V11.3134M23.5332 11.3134V16.2669C23.6615 17.3691 25.2556 19.5849 30.6057 19.6306C35.9557 19.6763 37.4532 17.4072 37.5332 16.2669V11.3134M23.5332 11.3134C23.8947 12.1411 25.8094 14.2424 30.6057 14.2424C35.6551 14.2424 37.22 11.9704 37.5332 11.3134" stroke="url(#paint1_linear_206_689)" stroke-width="2"/>
<path d="M30.0468 26.7029L20.9325 35.8173C20.8934 35.8563 20.8934 35.9196 20.9325 35.9587L22.3584 37.3846C22.3975 37.4237 22.4608 37.4237 22.4999 37.3846L31.6142 28.2703L31.6142 34.6694C31.6142 35.2815 32.1104 35.7777 32.7225 35.7777C33.3346 35.7777 33.8308 35.2815 33.8308 34.6694L33.8308 25.5946C33.8308 24.9825 33.3346 24.4863 32.7225 24.4863L23.6477 24.4863C23.0356 24.4863 22.5394 24.9825 22.5394 25.5946C22.5394 26.2067 23.0356 26.7029 23.6477 26.7029L30.0468 26.7029Z" fill="url(#paint2_linear_206_689)" stroke="url(#paint3_linear_206_689)" stroke-width="0.2" stroke-linejoin="round"/>
<path d="M9.95222 13.3132L19.0665 4.19892C19.1056 4.15987 19.1056 4.09656 19.0665 4.0575L17.6406 2.63154C17.6015 2.59249 17.5382 2.59249 17.4992 2.63154L8.38483 11.7459L8.38484 5.3468C8.38484 4.7347 7.88863 4.2385 7.27653 4.2385C6.66443 4.2385 6.16822 4.7347 6.16822 5.3468L6.16822 14.4216C6.16822 15.0337 6.66443 15.5299 7.27653 15.5299L16.3513 15.5299C16.9634 15.5299 17.4596 15.0337 17.4596 14.4216C17.4596 13.8095 16.9634 13.3132 16.3513 13.3132L9.95222 13.3132Z" fill="url(#paint4_linear_206_689)" stroke="url(#paint5_linear_206_689)" stroke-width="0.2" stroke-linejoin="round"/>
<defs>
<linearGradient id="paint0_linear_206_689" x1="2.47559" y1="29.2582" x2="16.4756" y2="29.2582" gradientUnits="userSpaceOnUse">
<stop stop-color="#CD4B3A"/>
<stop offset="1" stop-color="#E17139"/>
</linearGradient>
<linearGradient id="paint1_linear_206_689" x1="23.5332" y1="10.7579" x2="37.5332" y2="10.7579" gradientUnits="userSpaceOnUse">
<stop stop-color="#CD4B3A"/>
<stop offset="1" stop-color="#E17139"/>
</linearGradient>
<linearGradient id="paint2_linear_206_689" x1="21.7162" y1="36.6009" x2="33.4355" y2="24.8816" gradientUnits="userSpaceOnUse">
<stop stop-color="#CD4B3A"/>
<stop offset="1" stop-color="#E17139"/>
</linearGradient>
<linearGradient id="paint3_linear_206_689" x1="21.7162" y1="36.6009" x2="33.4355" y2="24.8816" gradientUnits="userSpaceOnUse">
<stop stop-color="#CD4B3A"/>
<stop offset="1" stop-color="#E17139"/>
</linearGradient>
<linearGradient id="paint4_linear_206_689" x1="18.2828" y1="3.41523" x2="6.56355" y2="15.1345" gradientUnits="userSpaceOnUse">
<stop stop-color="#CD4B3A"/>
<stop offset="1" stop-color="#E17139"/>
</linearGradient>
<linearGradient id="paint5_linear_206_689" x1="18.2828" y1="3.41523" x2="6.56355" y2="15.1345" gradientUnits="userSpaceOnUse">
<stop stop-color="#CD4B3A"/>
<stop offset="1" stop-color="#E17139"/>
</linearGradient>
</defs>
</svg>
