<svg width="75" height="149" viewBox="0 0 75 149" fill="none" xmlns="http://www.w3.org/2000/svg">
<path d="M74.3671 22.081L37.6512 0.919031C37.476 0.814954 37.1747 0.814954 36.987 0.919031L0.233398 22.081V119.791H74.4173V22.081H74.3671Z" fill="#D3D2D2"/>
<path d="M0.233398 119.791H74.4173V148.661H0.233398V119.791Z" fill="#717071"/>
<path d="M16.3594 85.8551H19.4796V96.6707H17.4624V89.3558C17.4624 89.1464 17.4624 88.846 17.475 88.4671C17.475 88.0888 17.4876 87.8015 17.4876 87.5921L15.5075 96.6707H13.4025L11.4475 87.5921C11.4475 87.8015 11.4475 88.0888 11.4601 88.4671C11.4601 88.8454 11.4727 89.1464 11.4727 89.3558V96.6707H9.44238V85.8551H12.6002L14.4924 94.3591L16.3594 85.8551ZM24.1535 91.8114C24.5295 91.7596 24.7926 91.7073 24.9558 91.6287C25.244 91.4985 25.394 91.3028 25.394 91.041C25.394 90.7151 25.2816 90.4926 25.0682 90.3617C24.8422 90.2315 24.5164 90.1791 24.0907 90.1791C23.6148 90.1791 23.2765 90.2963 23.0756 90.5443C22.9381 90.7276 22.8377 90.9756 22.7874 91.276H20.8582C20.8953 90.5711 21.0836 89.9959 21.4214 89.5521C21.9475 88.846 22.8628 88.4939 24.1661 88.4939C25.0054 88.4939 25.7575 88.6634 26.4092 89.0168C27.0608 89.3689 27.3866 90.0221 27.3866 90.9762V94.6471C27.3866 94.8951 27.3866 95.2086 27.3992 95.5744C27.4117 95.8487 27.4494 96.0313 27.5247 96.136C27.5869 96.227 27.6874 96.3192 27.8255 96.384V96.6975H25.6451C25.5829 96.5404 25.5447 96.384 25.5202 96.24C25.4951 96.0967 25.4831 95.9403 25.47 95.757C25.1943 96.0711 24.8685 96.3323 24.505 96.5541C24.0668 96.8153 23.5778 96.9462 23.0391 96.9462C22.3373 96.9462 21.7609 96.7368 21.3096 96.3323C20.8588 95.9141 20.6209 95.3395 20.6209 94.5816C20.6209 93.6019 20.9837 92.8827 21.7233 92.452C22.1244 92.2171 22.7133 92.0476 23.4899 91.9429L24.1535 91.8114ZM25.3821 92.7786C25.2565 92.8571 25.119 92.935 24.9935 92.9743C24.8685 93.026 24.6808 93.0784 24.4554 93.1177L24.0034 93.2086C23.5778 93.2872 23.2645 93.3782 23.0762 93.4966C22.7635 93.6923 22.6003 93.9796 22.6003 94.3847C22.6003 94.7368 22.7001 94.9986 22.8879 95.155C23.0756 95.3121 23.3141 95.3906 23.5897 95.3906C24.0286 95.3906 24.4291 95.2597 24.8052 94.9986C25.1686 94.7368 25.3689 94.2538 25.3821 93.5483V92.7786ZM32.7248 88.6634C33.2132 88.8728 33.6024 89.2642 33.9025 89.8257V88.6765H35.8581V96.2662C35.8581 97.2977 35.6955 98.0817 35.3565 98.6046C34.7927 99.4927 33.6903 99.9371 32.0612 99.9371C31.0837 99.9371 30.2814 99.7414 29.6674 99.3363C29.0534 98.9312 28.7031 98.3304 28.6397 97.5332H30.8201C30.8697 97.7813 30.9701 97.9508 31.0957 98.0555C31.3085 98.2512 31.672 98.3428 32.1855 98.3428C32.9125 98.3428 33.3884 98.0948 33.6395 97.5856C33.8021 97.259 33.8774 96.7231 33.8774 95.9521V95.4436C33.6897 95.7832 33.4763 96.0437 33.2634 96.2139C32.8623 96.5274 32.3487 96.6969 31.709 96.6969C30.7196 96.6969 29.9424 96.331 29.3541 95.6124C28.7653 94.8945 28.4765 93.9141 28.4765 92.6864C28.4765 91.4985 28.7647 90.5051 29.3284 89.6955C29.8922 88.8853 30.6945 88.4808 31.7348 88.4808C32.0982 88.4808 32.4372 88.5462 32.7248 88.6634ZM33.4015 94.3978C33.7274 94.0326 33.89 93.4448 33.89 92.6346C33.89 91.8768 33.7399 91.3022 33.4266 90.8971C33.1134 90.4926 32.7128 90.3094 32.1987 90.3094C31.4968 90.3094 31.0078 90.649 30.7447 91.3414C30.6072 91.7073 30.5319 92.1641 30.5319 92.7001C30.5319 93.1706 30.6072 93.5751 30.7579 93.9409C31.0335 94.6203 31.5094 94.9468 32.2112 94.9468C32.6877 94.9599 33.0889 94.7642 33.4015 94.3978ZM42.5246 88.8329C43.0627 89.081 43.5021 89.4724 43.8524 90.0214C44.1657 90.492 44.366 91.0535 44.4664 91.6805C44.5166 92.0463 44.5418 92.5817 44.5292 93.261H38.94C38.9651 94.0575 39.2407 94.6196 39.7417 94.9462C40.043 95.1419 40.419 95.2466 40.8453 95.2466C41.2961 95.2466 41.6721 95.1288 41.9603 94.8802C42.1103 94.7499 42.2484 94.5673 42.3734 94.3317H44.4156C44.3654 94.8022 44.1155 95.2852 43.6767 95.782C42.988 96.5654 42.0224 96.9443 40.7951 96.9443C39.7799 96.9443 38.8778 96.6177 38.0886 95.9646C37.2989 95.3114 36.9234 94.2401 36.9234 92.7643C36.9234 91.3788 37.2738 90.3212 37.9756 89.5764C38.6775 88.8323 39.5922 88.4665 40.7203 88.4665C41.3965 88.4677 41.9979 88.5849 42.5246 88.8329ZM39.5294 90.649C39.2413 90.9494 39.0661 91.3676 38.9908 91.8905H42.4487C42.4116 91.3414 42.2365 90.9108 41.9106 90.6235C41.5848 90.3355 41.1962 90.1922 40.7203 90.1922C40.2062 90.1916 39.805 90.3355 39.5294 90.649ZM51.5216 89.1333C52.0226 89.5646 52.2736 90.2838 52.2736 91.2891V96.6713H50.2314V91.8114C50.2314 91.3938 50.1812 91.0672 50.0682 90.8447C49.8679 90.4402 49.5044 90.2315 48.9532 90.2315C48.2765 90.2315 47.8132 90.5312 47.5627 91.132C47.4371 91.4461 47.3618 91.8506 47.3618 92.3467V96.6707H45.3566V88.689H47.299V89.8513C47.5495 89.4468 47.8006 89.1458 48.026 88.9632C48.4391 88.6366 48.9532 88.4802 49.5923 88.4802C50.3809 88.4808 51.0206 88.7021 51.5216 89.1333ZM53.1501 90.2439V88.7544H54.2155V86.5207H56.1955V88.7544H57.436V90.2439H56.1955V94.4638C56.1955 94.7898 56.2326 94.9992 56.3205 95.0771C56.3964 95.1556 56.6463 95.1949 57.048 95.1949H57.2358C57.2979 95.1949 57.3733 95.1949 57.436 95.1818V96.7499L56.4837 96.7885C55.5307 96.8271 54.8922 96.6582 54.5413 96.2793C54.3153 96.0437 54.2035 95.6654 54.2035 95.1687V90.2446H53.1501V90.2439ZM64.9294 95.691C64.2777 96.5274 63.3003 96.9455 61.9844 96.9455C60.6686 96.9455 59.6791 96.5274 59.0394 95.691C58.401 94.8552 58.0751 93.8493 58.0751 92.6864C58.0751 91.5371 58.401 90.5312 59.0394 89.6955C59.6785 88.8591 60.6686 88.4285 61.9844 88.4285C63.3003 88.4285 64.2903 88.846 64.9294 89.6955C65.5679 90.5437 65.8937 91.5371 65.8937 92.6864C65.9069 93.8624 65.581 94.8558 64.9294 95.691ZM63.3254 94.5417C63.6387 94.1111 63.8019 93.4841 63.8019 92.6864C63.8019 91.8905 63.6393 91.2754 63.3254 90.8316C63.0127 90.4004 62.5619 90.1785 61.9719 90.1785C61.3836 90.1785 60.9322 90.3997 60.6183 90.8316C60.3057 91.2623 60.1425 91.8768 60.1425 92.6864C60.1425 93.4972 60.3051 94.1105 60.6183 94.5417C60.9316 94.9724 61.383 95.1955 61.9719 95.1955C62.5613 95.1949 63.0121 94.9724 63.3254 94.5417Z" fill="#444444"/>
<path d="M24.1914 104.744H23.1015C23.089 104.182 22.9389 103.75 22.6257 103.425C22.3243 103.098 21.8365 102.942 21.1717 102.942C20.3574 102.942 19.643 103.241 19.0165 103.842C18.3899 104.444 17.9643 105.358 17.7132 106.586C17.5123 107.591 17.5625 108.414 17.8883 109.041C18.2142 109.668 18.8282 109.982 19.7183 109.982C20.5458 109.982 21.2345 109.656 21.8108 108.989C22.1121 108.637 22.3745 108.179 22.6005 107.617H23.6904C23.4148 108.518 22.9383 109.289 22.2616 109.904C21.4473 110.648 20.4824 111.014 19.3794 111.014C18.415 111.014 17.6755 110.713 17.1494 110.099C16.4607 109.302 16.2849 108.061 16.6227 106.389C16.8864 105.122 17.4125 104.076 18.2273 103.267C19.1044 102.378 20.1578 101.934 21.3851 101.934C22.4379 101.934 23.19 102.222 23.6533 102.797C24.1167 103.372 24.2793 104.012 24.1914 104.744ZM29.8554 105.475C29.9929 105.788 30.0562 106.167 30.0305 106.586C30.0305 106.873 29.9684 107.343 29.8428 107.97H25.42C25.3076 108.61 25.3446 109.12 25.5449 109.499C25.7326 109.891 26.1218 110.073 26.6856 110.073C27.2117 110.073 27.6756 109.891 28.0642 109.525C28.2896 109.316 28.4654 109.068 28.6029 108.793H29.6055C29.5301 109.029 29.3926 109.276 29.1918 109.564C28.9915 109.851 28.7786 110.073 28.5533 110.256C28.1772 110.569 27.7641 110.779 27.2745 110.895C27.012 110.961 26.7364 110.987 26.4225 110.987C25.6705 110.987 25.0941 110.699 24.693 110.138C24.2918 109.576 24.1914 108.766 24.4054 107.747C24.6057 106.741 25.0439 105.918 25.6956 105.292C26.3472 104.664 27.0993 104.351 27.9512 104.351C28.3775 104.351 28.778 104.455 29.129 104.664C29.4668 104.874 29.7179 105.148 29.8554 105.475ZM28.9789 107.134C29.0291 106.677 29.016 106.311 28.9162 106.036C28.741 105.527 28.3279 105.279 27.6882 105.279C27.2243 105.279 26.7986 105.448 26.41 105.802C26.0214 106.154 25.7583 106.598 25.6328 107.134H28.9789ZM31.6728 104.495H32.6377L32.4117 105.579C32.5373 105.37 32.7752 105.108 33.1513 104.808C33.5148 104.508 33.9028 104.352 34.3045 104.352H34.4044C34.4546 104.352 34.5299 104.365 34.6303 104.377L34.4044 105.488C34.3422 105.475 34.292 105.475 34.2417 105.462H34.0791C33.5656 105.462 33.1399 105.631 32.8009 105.971C32.462 106.311 32.2372 106.703 32.1493 107.16L31.4223 110.779H30.4072L31.6728 104.495ZM35.8828 102.745H36.9105L36.5476 104.496H37.5119L37.3368 105.358H36.3718L35.5325 109.46C35.4823 109.681 35.5325 109.825 35.658 109.904C35.7327 109.943 35.8583 109.969 36.046 109.969H36.2086C36.2589 109.969 36.3336 109.956 36.4095 109.956L36.2463 110.792C36.1214 110.831 35.9958 110.857 35.8703 110.871C35.7453 110.884 35.6078 110.896 35.4571 110.896C34.9807 110.896 34.6931 110.766 34.5676 110.518C34.4426 110.27 34.4301 109.944 34.5173 109.538L35.3699 105.385H34.5556L34.7308 104.522H35.545L35.8828 102.745ZM38.3513 104.521H39.379L38.1134 110.779H37.0857L38.3513 104.521ZM38.8403 102.157H39.868L39.6175 103.358H38.5899L38.8403 102.157ZM41.6221 102.574C41.9348 102.209 42.4244 102.039 43.1012 102.039H43.3014C43.3642 102.039 43.439 102.052 43.5268 102.052L43.3265 103.019C43.2267 103.006 43.1508 103.006 43.1012 103.006H42.9631C42.6504 103.006 42.4495 103.085 42.3616 103.254C42.2744 103.424 42.1494 103.841 42.0113 104.521H43.0133L42.8513 105.357H41.8361L40.7331 110.779H39.7305L40.8335 105.357H39.9942L40.1568 104.521H40.9962L41.1964 103.541C41.3094 103.097 41.4595 102.784 41.6221 102.574ZM43.7899 104.521H44.8176L43.5525 110.779H42.5249L43.7899 104.521ZM44.2783 102.157H45.306L45.0555 103.358H44.0278L44.2783 102.157ZM50.6693 105.475C50.8074 105.788 50.8701 106.167 50.845 106.586C50.845 106.873 50.7829 107.343 50.6573 107.97H46.2339C46.1215 108.61 46.1591 109.12 46.3594 109.499C46.5471 109.891 46.9357 110.073 47.4995 110.073C48.0262 110.073 48.4895 109.891 48.8787 109.525C49.1041 109.316 49.2793 109.068 49.4168 108.793H50.42C50.344 109.029 50.2065 109.276 50.0062 109.564C49.806 109.851 49.5931 110.073 49.3671 110.256C48.9911 110.569 48.578 110.779 48.089 110.895C47.8259 110.961 47.5503 110.987 47.237 110.987C46.485 110.987 45.908 110.699 45.5075 110.138C45.1063 109.576 45.0059 108.766 45.2193 107.747C45.4202 106.741 45.8578 105.918 46.5101 105.292C47.1617 104.664 47.9132 104.351 48.7651 104.351C49.1914 104.351 49.5925 104.455 49.9435 104.664C50.2807 104.874 50.5312 105.148 50.6693 105.475ZM49.7922 107.134C49.8424 106.677 49.8293 106.311 49.7301 106.036C49.5543 105.527 49.1412 105.279 48.5021 105.279C48.0387 105.279 47.6125 105.448 47.2233 105.802C46.8353 106.154 46.5716 106.598 46.4467 107.134H49.7922ZM55.7444 104.692C55.907 104.809 56.0708 105.017 56.2328 105.305L56.8844 102.13H57.8619L56.0827 110.779H55.168L55.3432 109.904C55.0305 110.295 54.6915 110.569 54.3287 110.739C53.9658 110.91 53.5766 111.001 53.1635 111.001C52.4867 111.001 51.9732 110.7 51.5971 110.112C51.2211 109.525 51.1457 108.741 51.3466 107.762C51.5343 106.847 51.9104 106.05 52.4993 105.384C53.0881 104.718 53.79 104.378 54.6294 104.378C55.1052 104.377 55.4687 104.482 55.7444 104.692ZM53.6902 110.086C54.1535 110.086 54.5917 109.877 54.9677 109.459C55.3563 109.041 55.632 108.44 55.7952 107.643C55.9578 106.847 55.9207 106.258 55.6828 105.879C55.4448 105.501 55.1058 105.305 54.6425 105.305C54.129 105.305 53.6782 105.514 53.277 105.919C52.8759 106.323 52.6003 106.925 52.4377 107.709C52.3002 108.388 52.3253 108.949 52.4999 109.393C52.687 109.851 53.0756 110.086 53.6902 110.086Z" fill="#444444"/>
<path d="M10.8728 125.618H15.8606L15.6729 126.532H11.6626L11.1992 128.805H14.7331L14.5454 129.693H11.0115L10.3222 133.115H9.34473L10.8728 125.618ZM16.8752 125.618H20.2081C20.7599 125.618 21.1862 125.696 21.512 125.866C22.1254 126.179 22.3389 126.78 22.1637 127.642C22.0764 128.086 21.9126 128.452 21.6746 128.74C21.4367 129.027 21.1366 129.248 20.7851 129.432C21.0487 129.549 21.2239 129.706 21.3243 129.902C21.4241 130.098 21.4367 130.411 21.3745 130.842L21.1988 131.848C21.1485 132.135 21.1366 132.345 21.1366 132.488C21.1491 132.723 21.2239 132.88 21.362 132.944L21.3249 133.114H20.134C20.1095 133.049 20.1095 132.971 20.1095 132.866C20.1095 132.762 20.134 132.566 20.1842 132.279L20.3851 131.025C20.4598 130.528 20.348 130.202 20.0593 130.045C19.8835 129.954 19.6079 129.902 19.2067 129.902H16.9888L16.3251 133.115H15.3477L16.8752 125.618ZM19.4064 129.053C19.8572 129.053 20.2458 128.962 20.5465 128.765C20.8472 128.569 21.0601 128.23 21.1599 127.734C21.2729 127.199 21.1599 126.833 20.8221 126.65C20.6463 126.546 20.3839 126.493 20.0581 126.493H17.6775L17.1639 129.053H19.4064ZM29.544 126.689C29.8818 127.355 29.9572 128.205 29.7443 129.236C29.5183 130.359 29.055 131.287 28.3532 132.031C27.5395 132.906 26.5363 133.337 25.346 133.337C24.243 133.337 23.4538 132.959 22.9773 132.188C22.5642 131.456 22.4764 130.529 22.7017 129.405C22.9026 128.387 23.3289 127.525 23.9554 126.806C24.7697 125.879 25.7723 125.422 26.9877 125.422C28.2533 125.422 29.1178 125.839 29.544 126.689ZM28.7417 129.248C28.9169 128.373 28.8422 127.655 28.5164 127.12C28.1905 126.584 27.6387 126.31 26.8747 126.31C26.1357 126.31 25.4709 126.571 24.8946 127.106C24.3183 127.641 23.9171 128.425 23.7049 129.457C23.5291 130.293 23.5919 130.985 23.8801 131.56C24.1682 132.135 24.7571 132.408 25.6724 132.408C26.5243 132.408 27.2137 132.082 27.7278 131.442C28.2282 130.829 28.5666 130.085 28.7417 129.248ZM31.499 125.618H32.6516L35.0454 131.691L36.2859 125.618H37.2132L35.6719 133.115H34.5821L32.1261 127.054L30.8982 133.115H29.9703L31.499 125.618ZM43.8164 125.618L43.6412 126.506H41.2104L39.8694 133.115H38.88L40.2203 126.518H37.8021L37.9772 125.63H43.817V125.618H43.8164ZM47.1123 125.618H52.3506L52.1628 126.532H47.865L47.4016 128.805H51.3737L51.1985 129.667H47.2259L46.7123 132.213H51.0736L50.8978 133.102H45.5842L47.1123 125.618ZM53.5528 125.618H54.7061L57.0998 131.691L58.3398 125.618H59.267L57.7258 133.115H56.6359L54.18 127.054L52.952 133.115H52.0241L53.5528 125.618ZM60.6833 125.618H63.5906C64.58 125.618 65.2699 125.983 65.6705 126.715C66.0214 127.381 66.0968 128.217 65.8833 129.248C65.7207 130.045 65.432 130.764 65.0063 131.404C64.2668 132.54 63.2893 133.102 62.0494 133.102H59.1421L60.6833 125.618ZM62.0494 132.253C62.3752 132.253 62.6508 132.213 62.8762 132.148C63.2773 132.018 63.6402 131.757 63.9661 131.378C64.2166 131.078 64.4425 130.686 64.6183 130.215C64.7307 129.928 64.806 129.667 64.8556 129.432C65.0434 128.504 65.0183 127.785 64.7684 127.277C64.5179 126.767 64.0043 126.506 63.2146 126.506H61.485L60.3198 132.253H62.0494V132.253Z" fill="white"/>
<path d="M9.33163 135.415H12.2383C13.2284 135.415 13.9177 135.781 14.3188 136.512C14.6692 137.179 14.7445 138.014 14.5311 139.047C14.3691 139.844 14.0803 140.562 13.654 141.202C12.9151 142.338 11.9376 142.901 10.6965 142.901H7.80176L9.33163 135.415ZM10.6977 142.051C11.0235 142.051 11.2997 142.012 11.5251 141.946C11.9263 141.816 12.2892 141.554 12.615 141.176C12.8661 140.876 13.0915 140.484 13.2666 140.013C13.3796 139.726 13.4544 139.465 13.5046 139.229C13.6923 138.302 13.6678 137.583 13.4173 137.074C13.1668 136.565 12.6532 136.304 11.8629 136.304H10.1339L8.96814 142.051H10.6977V142.051ZM16.4747 135.415H21.713L21.5252 136.33H17.2273L16.764 138.602H20.7361L20.5609 139.465H16.6014L16.0879 142.012H20.4485L20.2728 142.901H14.9472L16.4747 135.415ZM23.4796 135.415L24.2436 141.803L27.5897 135.415H28.6796L24.5318 142.913H23.5041L22.4142 135.415H23.4796ZM29.5447 135.415H34.7824L34.5947 136.33H30.3087L29.8454 138.602H33.8181L33.6429 139.465H29.6702L29.1567 142.012H33.518L33.3422 142.901H28.0286L29.5447 135.415ZM35.9853 135.415H36.9627L35.6218 142.012H39.2686L39.0928 142.901H34.4817L35.9853 135.415ZM47.1129 136.486C47.4507 137.152 47.5266 138.001 47.3132 139.033C47.0878 140.157 46.6245 141.084 45.9226 141.829C45.1083 142.704 44.1058 143.135 42.9154 143.135C41.8124 143.135 41.0233 142.757 40.5468 141.986C40.1337 141.254 40.0458 140.327 40.2712 139.203C40.4721 138.184 40.8977 137.321 41.5243 136.603C42.3391 135.675 43.3411 135.218 44.5565 135.218C45.8222 135.219 46.6741 135.637 47.1129 136.486ZM46.3112 139.047C46.4864 138.171 46.411 137.453 46.0852 136.918C45.7594 136.382 45.2076 136.107 44.4441 136.107C43.7046 136.107 43.0404 136.368 42.4641 136.904C41.8878 137.439 41.4866 138.223 41.2738 139.255C41.098 140.091 41.1614 140.783 41.4495 141.358C41.7371 141.933 42.3266 142.207 43.2413 142.207C44.0932 142.207 44.7825 141.881 45.2967 141.24C45.7976 140.627 46.1354 139.883 46.3112 139.047ZM49.1557 135.415H52.3883C53.0274 135.415 53.5038 135.598 53.8171 135.976C54.1304 136.355 54.2183 136.878 54.0795 137.557C53.9672 138.145 53.679 138.654 53.2402 139.085C52.8026 139.516 52.2256 139.739 51.4987 139.739H49.2436L48.6045 142.913H47.627L49.1557 135.415ZM52.7392 136.447C52.5383 136.342 52.2627 136.29 51.8867 136.29H49.9449L49.4182 138.876H51.3606C51.7988 138.876 52.1748 138.785 52.4887 138.589C52.8026 138.393 53.0023 138.054 53.1021 137.569C53.2157 137.022 53.0901 136.656 52.7392 136.447ZM55.6967 135.415H60.9344L60.7467 136.33H56.4488L55.9855 138.602H59.9581L59.7824 139.465H55.8097L55.2962 142.012H59.6574L59.4823 142.901H54.1686L55.6967 135.415ZM62.2503 135.415H65.5832C66.1344 135.415 66.5607 135.493 66.8866 135.663C67.5005 135.976 67.714 136.578 67.5382 137.44C67.4509 137.884 67.2877 138.25 67.0497 138.537C66.8124 138.825 66.5111 139.047 66.1608 139.229C66.4232 139.347 66.5984 139.503 66.6988 139.7C66.7992 139.896 66.8118 140.209 66.749 140.64L66.5739 141.646C66.5237 141.934 66.5111 142.143 66.5111 142.286C66.5236 142.522 66.5984 142.678 66.7365 142.743L66.6994 142.912H65.5091C65.484 142.848 65.484 142.769 65.484 142.665C65.484 142.56 65.5091 142.365 65.5593 142.077L65.7596 140.823C65.8355 140.327 65.7225 140 65.4338 139.844C65.2586 139.752 64.983 139.7 64.5819 139.7H62.3639L61.7122 142.913H60.7347L62.2503 135.415ZM64.7809 138.85C65.2323 138.85 65.6203 138.759 65.9216 138.563C66.2217 138.367 66.4352 138.028 66.535 137.531C66.6474 136.995 66.535 136.63 66.1972 136.447C66.0215 136.342 65.7584 136.29 65.4326 136.29H63.052L62.5384 138.85H64.7809Z" fill="white"/>
<path d="M37.3638 11.1095L9.25684 28.0123V61.7668L17.2894 66.5998L17.2273 32.8329L37.3142 20.7625L57.4011 32.8329V66.5867L65.4212 61.7668V27.9861L37.3638 11.1095Z" fill="#EF6229"/>
<path d="M41.4724 66.4174L37.4627 68.8468L33.4404 66.4436V32.6623L25.4209 37.4954L25.4335 71.2505L37.4627 78.4874L49.505 71.2505V37.4954L41.4724 32.6623V66.4174Z" fill="#EF6229"/>
</svg>
