<svg width="74" height="150" viewBox="0 0 74 150" fill="none" xmlns="http://www.w3.org/2000/svg">
<path d="M73.7809 149.166V22.7931L37.3592 0.840973L0.9375 22.7931V149.166H73.7809Z" fill="#229598"/>
<path d="M73.7792 66.3263L37.3574 88.2785V149.166H73.7792V66.3263Z" fill="#317272"/>
<path d="M0.935547 66.3263V149.166H37.3573V88.2785L0.935547 66.3263Z" fill="#2E8385"/>
<path d="M11.0898 60.9884V29.3946L37.2879 13.5236L63.557 29.3205V60.9884L56.1022 65.5124V33.9186L37.2879 22.5716L18.4736 33.9186L18.5446 65.5124L11.0898 60.9884Z" fill="white"/>
<path d="M26.0684 70.0354V38.4421L33.5231 33.9181V65.5115L37.286 67.8105L41.0488 65.5115V33.9181L48.5746 38.4421V70.0354L37.286 76.8584L26.0684 70.0354Z" fill="white"/>
<path d="M11.373 96.5119H13.5741L14.7102 99.775L15.7752 96.5119H17.9763V102.667H16.2722V98.8109L14.8522 102.667H14.2841L12.8641 98.8109V102.667H11.373V96.5119Z" fill="white"/>
<path d="M21.2421 100.294H22.5201L21.8811 97.9209L21.2421 100.294ZM20.9581 96.5119H23.1592L25.0052 102.667H23.2302L22.8752 101.555H20.9581L20.6031 102.667H19.041L20.9581 96.5119Z" fill="white"/>
<path d="M25.4297 99.627V99.5528C25.4297 97.6986 26.7077 96.4377 28.5538 96.4377C29.9028 96.4377 31.1809 97.1052 31.2519 98.6628H29.5478C29.4768 98.0694 29.1218 97.7727 28.4828 97.7727C27.6308 97.7727 27.1337 98.4403 27.1337 99.5528V99.627C27.1337 100.591 27.4888 101.407 28.4828 101.407C29.3348 101.407 29.6188 100.962 29.6188 100.517H28.5538V99.3303H31.3229V100.072C31.3229 101.63 30.3289 102.816 28.4118 102.816C26.5657 102.742 25.4297 101.407 25.4297 99.627Z" fill="white"/>
<path d="M32.6719 96.5119H36.719V97.8468H34.3049V98.9592H36.222V100.146H34.3049V101.258H36.861V102.667H32.6719V96.5119Z" fill="white"/>
<path d="M38.0684 96.5119H39.9854L41.9025 99.9233V96.5119H43.3225V102.667H41.7605L39.5594 98.8109V102.667H38.0684V96.5119Z" fill="white"/>
<path d="M46.0204 97.8468H44.5293V96.5119H49.2155V97.8468H47.7244V102.667H46.0204V97.8468Z" fill="white"/>
<path d="M54.3267 99.5528V99.4786C54.3267 98.3661 53.8296 97.6986 52.9776 97.6986C52.1256 97.6986 51.6286 98.2919 51.6286 99.4786V99.5528C51.6286 100.665 52.1966 101.333 52.9776 101.333C53.7586 101.333 54.3267 100.665 54.3267 99.5528ZM49.8535 99.627V99.5528C49.8535 97.6986 51.2026 96.4377 52.9776 96.4377C54.7527 96.4377 56.1017 97.6244 56.1017 99.5528V99.627C56.1017 101.555 54.8947 102.816 52.9776 102.816C51.0606 102.742 49.8535 101.407 49.8535 99.627Z" fill="white"/>
<path d="M58.8698 102.369L60.9289 100.07C61.4969 99.4025 61.923 98.8833 61.923 98.3641C61.923 97.9191 61.7099 97.6966 61.2839 97.6966C60.8579 97.6966 60.5739 97.9933 60.5029 98.6608H58.9408C59.0118 97.1032 59.8639 96.3615 61.2839 96.3615C62.704 96.3615 63.485 97.1774 63.485 98.2899C63.485 99.1058 63.059 99.7734 62.42 100.441L61.5679 101.257H63.556V102.592H58.7988L58.8698 102.369Z" fill="white"/>
<path d="M14.1406 109.935V109.861C14.1406 107.933 15.4187 106.746 17.1227 106.746C18.6848 106.746 19.6788 107.488 19.8208 109.12H18.0457C17.9747 108.526 17.6197 108.155 17.0517 108.155C16.2707 108.155 15.8447 108.749 15.8447 109.935V110.01C15.8447 111.122 16.2707 111.79 17.1227 111.79C17.6907 111.79 18.1167 111.419 18.1877 110.825H19.8918C19.7498 112.457 18.6848 113.199 17.1937 113.199C15.1347 113.05 14.1406 111.79 14.1406 109.935Z" fill="white"/>
<path d="M21.0977 106.82H25.1448V108.155H22.7307V109.194H24.6478V110.455H22.7307V111.567H25.2868V112.902H21.0977V106.82Z" fill="white"/>
<path d="M28.7682 109.564C29.3362 109.564 29.6202 109.268 29.6202 108.823V108.749C29.6202 108.23 29.3362 108.081 28.7682 108.081H28.2002V109.564H28.7682ZM26.5671 106.82H28.8392C30.4012 106.82 31.2533 107.488 31.2533 108.749V108.823C31.2533 109.713 30.8273 110.158 30.1882 110.454L31.6083 112.976H29.8332L28.6262 110.751H28.2002V112.976H26.4961V106.82H26.5671Z" fill="white"/>
<path d="M33.6656 108.155H32.1035V106.82H36.8607V108.155H35.2986V112.902H33.6656V108.155Z" fill="white"/>
<path d="M37.998 106.82H39.7021V112.976H37.998V106.82Z" fill="white"/>
<path d="M57.3065 111.567C58.3006 111.567 58.7976 111.048 58.7976 109.861C58.7976 108.675 58.3716 108.155 57.3065 108.155H56.9515V111.567H57.3065ZM55.1765 106.82H57.3065C59.3656 106.82 60.4306 107.933 60.4306 109.861V109.935C60.4306 111.864 59.3656 113.05 57.2355 113.05H55.1055V106.82H55.1765Z" fill="white"/>
<path d="M41.2617 106.82H45.2379V108.155H42.9658V109.49H44.8119V110.751H42.9658V112.902H41.2617V106.82Z" fill="white"/>
<path d="M46.5156 106.82H48.2197V112.976H46.5156V106.82Z" fill="white"/>
<path d="M49.7832 106.82H53.8303V108.155H51.4163V109.194H53.3333V110.455H51.4163V111.567H53.9723V112.902H49.7832V106.82Z" fill="white"/>
<path d="M19.1113 126.4H20.3184C20.3894 127.438 20.6734 127.809 21.3834 127.809C21.9515 127.809 22.3065 127.364 22.3065 126.623C22.3065 125.733 21.8805 125.436 20.9574 124.917C19.8214 124.323 19.1823 123.656 19.1823 122.321C19.1823 120.986 19.9634 120.17 21.2414 120.17C22.5195 120.17 23.3715 120.838 23.3715 122.395H22.1645C22.1645 121.505 21.7384 121.208 21.2414 121.208C20.6734 121.208 20.3894 121.579 20.3894 122.173C20.3894 122.914 20.6734 123.211 21.5964 123.73C22.7325 124.323 23.5845 124.843 23.5845 126.474C23.5845 128.032 22.7325 128.773 21.3834 128.773C19.8924 128.848 19.1113 128.032 19.1113 126.4Z" fill="white"/>
<path d="M28.057 126.62V124.692C28.057 123.802 27.702 123.431 27.134 123.431C26.495 123.431 26.211 123.876 26.211 124.692V126.62C26.211 127.436 26.495 127.881 27.134 127.881C27.773 127.881 28.057 127.436 28.057 126.62ZM25.0039 126.546V124.692C25.0039 123.209 25.8559 122.467 27.134 122.467C28.341 122.467 29.2641 123.209 29.2641 124.692V126.546C29.2641 128.03 28.412 128.771 27.134 128.771C25.8559 128.845 25.0039 128.03 25.0039 126.546Z" fill="white"/>
<path d="M30.7559 119.873H31.9629V128.699H30.7559V119.873Z" fill="white"/>
<path d="M37.5719 128.773H36.4358V128.032C36.2228 128.551 35.7968 128.922 35.0868 128.922C34.2347 128.922 33.5957 128.328 33.5957 127.142V122.617H34.7318V126.993C34.7318 127.587 34.9448 127.883 35.4418 127.883C35.9388 127.883 36.2938 127.512 36.2938 126.919V122.692H37.4299L37.5719 128.773Z" fill="white"/>
<path d="M40.6247 121.356V122.617H41.6187V123.581H40.6247V127.215C40.6247 127.66 40.8377 127.883 41.1927 127.883C41.4057 127.883 41.5477 127.808 41.6187 127.808V128.773C41.4767 128.847 41.2637 128.847 40.9797 128.847C39.9146 128.847 39.4176 128.328 39.4176 127.289V123.581H38.8496V122.617H39.4886V121.356H40.6247Z" fill="white"/>
<path d="M42.9655 122.616H44.1016V128.772H42.9655V122.616ZM42.8945 121.058C42.8945 120.613 43.1785 120.317 43.6046 120.317C44.0306 120.317 44.3146 120.613 44.3146 121.058C44.3146 121.503 44.0306 121.8 43.6046 121.8C43.1785 121.726 42.8945 121.429 42.8945 121.058Z" fill="white"/>
<path d="M48.7882 126.62V124.692C48.7882 123.802 48.4332 123.431 47.8651 123.431C47.2971 123.431 46.9421 123.876 46.9421 124.692V126.62C46.9421 127.436 47.2261 127.881 47.8651 127.881C48.4332 127.881 48.7882 127.436 48.7882 126.62ZM45.6641 126.546V124.692C45.6641 123.209 46.5161 122.467 47.7941 122.467C49.0012 122.467 49.9242 123.209 49.9242 124.692V126.546C49.9242 128.03 49.0722 128.771 47.7941 128.771C46.5161 128.845 45.6641 128.03 45.6641 126.546Z" fill="white"/>
<path d="M51.4141 122.615H52.5501V123.357C52.7631 122.838 53.2601 122.467 53.8992 122.467C54.7512 122.467 55.3192 123.06 55.3192 124.247V128.697H54.1832V124.395C54.1832 123.802 53.9702 123.505 53.4731 123.505C52.9761 123.505 52.6211 123.876 52.6211 124.469V128.697H51.4851V122.615H51.4141Z" fill="white"/>
<path d="M15.4199 138.191H16.627C16.698 139.229 16.982 139.6 17.692 139.6C18.2601 139.6 18.6151 139.155 18.6151 138.414C18.6151 137.524 18.189 137.227 17.266 136.708C16.13 136.114 15.4909 135.447 15.4909 134.112C15.4909 132.777 16.272 131.961 17.55 131.961C18.8281 131.961 19.6801 132.629 19.6801 134.186H18.4731C18.4731 133.296 18.047 132.999 17.55 132.999C16.982 132.999 16.698 133.37 16.698 133.964C16.698 134.705 16.982 135.002 17.905 135.521C19.0411 136.114 19.8931 136.634 19.8931 138.265C19.8931 139.823 19.0411 140.564 17.692 140.564C16.272 140.639 15.4199 139.823 15.4199 138.191Z" fill="white"/>
<path d="M23.5846 139.674C24.1526 139.674 24.5076 139.303 24.5076 138.487V136.411C24.5076 135.595 24.1526 135.224 23.6556 135.224C23.0166 135.224 22.6616 135.669 22.6616 136.485V138.339C22.5906 139.229 22.9456 139.674 23.5846 139.674ZM22.5905 134.334V135.076C22.8036 134.557 23.3006 134.186 23.9396 134.186C24.9336 134.186 25.6437 134.927 25.6437 136.337V138.413C25.6437 139.822 24.9336 140.564 23.8686 140.564C23.2296 140.564 22.7326 140.193 22.5195 139.748V142.493H21.3125V134.334H22.5905Z" fill="white"/>
<path d="M28.2696 136.782H30.0446V136.411C30.0446 135.521 29.6896 135.15 29.1926 135.15C28.6246 135.15 28.2696 135.595 28.2696 136.411V136.782ZM27.0625 138.339V136.559C27.0625 135.076 27.9145 134.334 29.1216 134.334C30.3287 134.334 31.1807 135.002 31.1807 136.559V137.82H28.2696V138.487C28.2696 139.377 28.5536 139.748 29.1926 139.748C29.7606 139.748 30.0446 139.451 30.0446 138.858H31.1097C31.0387 140.119 30.3287 140.712 29.1216 140.712C27.8435 140.638 27.0625 139.822 27.0625 138.339Z" fill="white"/>
<path d="M32.5312 138.339V136.485C32.5312 134.927 33.4543 134.26 34.5903 134.26C35.6554 134.26 36.5074 134.705 36.5784 136.262H35.4424C35.3714 135.447 35.0874 135.224 34.5903 135.224C34.0223 135.224 33.7383 135.595 33.7383 136.485V138.413C33.7383 139.303 34.0933 139.674 34.6613 139.674C35.1584 139.674 35.5134 139.377 35.5134 138.487H36.5784C36.5074 139.971 35.7974 140.638 34.5903 140.638C33.3833 140.638 32.5312 139.896 32.5312 138.339Z" fill="white"/>
<path d="M37.9975 134.335H39.1335V140.492H37.9975V134.335ZM37.8555 132.777C37.8555 132.332 38.1395 132.035 38.5655 132.035C38.9915 132.035 39.2755 132.332 39.2755 132.777C39.2755 133.222 38.9915 133.519 38.5655 133.519C38.1395 133.519 37.8555 133.222 37.8555 132.777Z" fill="white"/>
<path d="M43.3922 138.71V137.671H42.7531C42.1141 137.671 41.7591 137.968 41.7591 138.636V138.784C41.7591 139.377 41.9721 139.674 42.4691 139.674C43.0371 139.674 43.3922 139.451 43.3922 138.71ZM40.623 138.932V138.71C40.623 137.449 41.4041 136.93 42.6821 136.93H43.3212V136.188C43.3212 135.521 43.1792 135.224 42.6111 135.224C42.1141 135.224 41.9011 135.521 41.9011 136.04H40.7651C40.8361 134.853 41.5461 134.26 42.6821 134.26C43.8892 134.26 44.5282 134.853 44.5282 136.188V140.49H43.3922V139.896C43.1792 140.267 42.8241 140.564 42.1851 140.564C41.2621 140.638 40.623 140.045 40.623 138.932Z" fill="white"/>
<path d="M46.2324 131.664H47.4395V140.491H46.2324V131.664Z" fill="white"/>
<path d="M58.3011 133.074V134.335H59.2952V135.3H58.3011V138.934C58.3011 139.379 58.5141 139.601 58.8692 139.601C59.0822 139.601 59.2242 139.527 59.2952 139.527V140.491C59.1532 140.566 58.9402 140.566 58.6561 140.566C57.5911 140.566 57.0941 140.046 57.0941 139.008V135.3H56.4551V134.335H57.0941V133.074H58.3011Z" fill="white"/>
<path d="M49.071 134.335H50.2071V140.492H49.071V134.335ZM49 132.777C49 132.332 49.284 132.035 49.71 132.035C50.1361 132.035 50.4201 132.332 50.4201 132.777C50.4201 133.222 50.1361 133.519 49.71 133.519C49.284 133.519 49 133.222 49 132.777Z" fill="white"/>
<path d="M51.6992 138.71H52.8353C52.9063 139.377 53.1193 139.674 53.6163 139.674C54.1133 139.674 54.3263 139.377 54.3263 138.932C54.3263 138.413 53.9713 138.191 53.3323 137.894C52.3382 137.375 51.8412 136.93 51.8412 135.892C51.8412 134.853 52.6223 134.26 53.6163 134.26C54.6813 134.26 55.3914 134.779 55.3914 136.04H54.3263C54.3263 135.447 54.0423 135.224 53.6163 135.224C53.1903 135.224 52.9773 135.447 52.9773 135.892C52.9773 136.411 53.2613 136.559 53.9713 136.93C54.8943 137.375 55.5334 137.82 55.5334 138.932C55.5334 140.045 54.8943 140.712 53.6873 140.712C52.4092 140.638 51.6992 139.897 51.6992 138.71Z" fill="white"/>
</svg>
