<svg width="74" height="150" viewBox="0 0 74 150" fill="none" xmlns="http://www.w3.org/2000/svg">
<path d="M37.2025 0.840973L0.780762 22.7931V149.166H73.6242V22.7931L37.2025 0.840973Z" fill="#8A1B55"/>
<g opacity="0.2">
<g opacity="0.2">
<path opacity="0.2" d="M73.6243 66.3263L37.2026 88.2786V149.167H73.6243V66.3263Z" fill="#010101"/>
</g>
</g>
<g opacity="0.1">
<g opacity="0.1">
<path opacity="0.1" d="M0.780762 66.3273V149.167H37.2025V88.2795L0.780762 66.3273Z" fill="#010101"/>
</g>
</g>
<path d="M10.9351 60.9875V29.3937L37.2041 13.5226L63.4022 29.3195V60.9875L55.8765 65.5115V33.9177L37.1331 22.5706L18.3898 33.9177V65.5115L10.9351 60.9875Z" fill="white"/>
<path d="M25.9136 70.0349V38.442L33.3683 33.9181V65.5852L37.1312 67.8101L40.894 65.511V33.9181L48.4198 38.442V70.0349L37.1312 76.8578L25.9136 70.0349Z" fill="white"/>
<path d="M11.146 85.089H13.3471L14.4831 88.3528L15.6191 85.089H17.7492V91.2456H16.1162V87.3885L14.6251 91.2456H14.1281L12.708 87.3885V91.2456H11.146V85.089Z" fill="white"/>
<path d="M20.7316 85.089H22.9327L24.7787 91.2456H23.0037L22.7197 90.133H20.8026L20.5186 91.2456H18.9565L20.7316 85.089ZM21.0866 88.872H22.3647L21.7256 86.4984L21.0866 88.872Z" fill="white"/>
<path d="M25.2749 88.204C25.2749 86.2757 26.624 85.0148 28.328 85.0148C29.7481 85.0148 30.9552 85.6823 31.0972 87.2398H29.3931C29.3221 86.6465 28.9671 86.3498 28.328 86.3498C27.476 86.3498 26.979 87.0173 26.979 88.1298V88.204C26.979 89.1682 27.334 89.984 28.328 89.984C29.1801 89.984 29.4641 89.539 29.4641 89.094H28.328V87.8332H31.0972V88.5748C31.0972 90.1324 30.1031 91.319 28.257 91.319C26.34 91.319 25.2749 90.0582 25.2749 88.204Z" fill="white"/>
<path d="M32.4468 85.089H36.4939V86.4242H34.1508V87.5368H35.9969V88.7236H34.1508V89.8363H36.6359V91.2456H32.4468V85.089Z" fill="white"/>
<path d="M37.9116 85.089H39.7577L41.6748 88.5753V85.089H43.1658V91.2456H41.5328L39.4027 87.3885V91.2456H37.9116V85.089Z" fill="white"/>
<path d="M45.7933 86.4242H44.3022V85.089H48.9884V86.4242H47.4974V91.2456H45.7933V86.4242Z" fill="white"/>
<path d="M49.6265 88.2041C49.6265 86.2757 50.9755 85.0148 52.7506 85.0148C54.5256 85.0148 55.8747 86.2015 55.8747 88.13V88.2041C55.8747 90.0584 54.6676 91.3934 52.7506 91.3934C50.8335 91.3193 49.6265 90.0584 49.6265 88.2041ZM54.0996 88.2041C54.0996 87.0174 53.6026 86.424 52.7506 86.424C51.8985 86.424 51.4015 87.0174 51.4015 88.13V88.2041C51.4015 89.3167 51.9695 89.9842 52.7506 89.9842C53.6026 89.9842 54.0996 89.3167 54.0996 88.2041Z" fill="white"/>
<path d="M58.6435 90.9483L60.7026 88.6494C61.2706 87.982 61.6966 87.4629 61.6966 86.9438C61.6966 86.4989 61.4836 86.2764 61.0576 86.2764C60.6316 86.2764 60.3475 86.573 60.2765 87.2404H58.7145C58.7855 85.6831 59.6375 84.9416 61.0576 84.9416C62.4776 84.9416 63.2587 85.7573 63.2587 86.8697C63.2587 87.6854 62.8326 88.3528 62.1226 89.0202L61.2706 89.836H63.2587V91.1708H58.5015V90.9483H58.6435Z" fill="white"/>
<path d="M13.9155 98.5129C13.9155 96.5844 15.1936 95.3234 16.8976 95.3234C18.4597 95.3234 19.4537 96.0651 19.5957 97.697H17.8917C17.8207 97.1036 17.4656 96.7327 16.8976 96.7327C16.1166 96.7327 15.6906 97.3261 15.6906 98.4387V98.5129C15.6906 99.6255 16.1166 100.219 16.9686 100.219C17.5366 100.219 17.9627 99.9222 18.0337 99.1805H19.7377C19.5957 100.738 18.5307 101.628 16.9686 101.628C14.9806 101.628 13.9155 100.367 13.9155 98.5129Z" fill="white"/>
<path d="M20.8726 95.3976H24.9907V96.7328H22.5766V97.7712H24.4937V99.0322H22.5766V100.145H25.0617V101.554H20.8726V95.3976Z" fill="white"/>
<path d="M26.34 95.3976H28.6121C30.1742 95.3976 31.0262 96.0651 31.0262 97.3259C31.0262 98.2159 30.6002 98.6609 29.9612 98.9576L31.3812 101.479H29.6062L28.3991 99.2542H27.9731V101.479H26.269V95.3976H26.34ZM28.5411 98.2159C29.1092 98.2159 29.3932 97.9934 29.3932 97.4743C29.3932 96.9551 29.1092 96.8068 28.5411 96.8068H27.9731V98.2901H28.5411V98.2159Z" fill="white"/>
<path d="M33.4405 96.7328H31.8784V95.3976H36.6355V96.7328H35.1445V101.554H33.4405V96.7328Z" fill="white"/>
<path d="M39.5454 95.3976H37.8413V101.554H39.5454V95.3976Z" fill="white"/>
<path d="M41.1069 95.3976H45.0831V96.7328H42.811V98.0679H44.5861V99.3289H42.811V101.554H41.1069V95.3976Z" fill="white"/>
<path d="M47.9946 95.3976H46.2905V101.554H47.9946V95.3976Z" fill="white"/>
<path d="M49.5562 95.3976H53.6033V96.7328H51.2602V97.7712H53.1063V99.0322H51.2602V100.145H53.7453V101.554H49.5562V95.3976Z" fill="white"/>
<path d="M55.0229 95.3976H57.153C59.2121 95.3976 60.2772 96.5101 60.2772 98.3642V98.4384C60.2772 100.367 59.2121 101.479 57.153 101.479H55.0229V95.3976ZM57.082 100.144C58.0761 100.144 58.5021 99.6251 58.5021 98.4384V98.3642C58.5021 97.1776 58.0761 96.7326 57.011 96.7326H56.656V100.144H57.082Z" fill="white"/>
<path d="M14.3413 128.847V127.808C14.5543 127.882 14.6963 127.956 15.0513 127.956C15.5483 127.956 15.9034 127.66 15.9034 126.918V120.539H17.1814V126.918C17.1814 128.401 16.4004 128.995 15.2643 128.995C14.7673 128.995 14.4833 128.921 14.3413 128.847Z" fill="white"/>
<path d="M18.6011 127.363V127.141C18.6011 125.806 19.3821 125.361 20.6601 125.361H21.2991V124.619C21.2991 123.951 21.1571 123.581 20.5891 123.581C20.0921 123.581 19.8791 123.877 19.8791 124.396H18.7431C18.7431 123.21 19.5241 122.616 20.6601 122.616C21.8671 122.616 22.5062 123.21 22.5062 124.545V128.921H21.2991V128.327C21.0861 128.698 20.8021 128.995 20.0921 128.995C19.1691 129.069 18.6011 128.476 18.6011 127.363ZM21.2991 127.215V126.176H20.6601C20.0211 126.176 19.6661 126.399 19.6661 127.141V127.289C19.6661 127.882 19.8791 128.179 20.3761 128.179C21.0151 128.179 21.2991 127.882 21.2991 127.215Z" fill="white"/>
<path d="M23.6421 122.764H24.8491L25.8431 127.511L26.8372 122.764H27.9732L26.5532 128.92H25.1331L23.6421 122.764Z" fill="white"/>
<path d="M28.896 127.363V127.141C28.896 125.806 29.677 125.361 30.9551 125.361H31.5941V124.619C31.5941 123.951 31.4521 123.581 30.8841 123.581C30.3871 123.581 30.174 123.877 30.174 124.396H29.038C29.038 123.21 29.819 122.616 30.9551 122.616C32.1621 122.616 32.8012 123.21 32.8012 124.545V128.921H31.5941V128.327C31.3811 128.698 31.0971 128.995 30.3871 128.995C29.535 129.069 28.896 128.476 28.896 127.363ZM31.6651 127.215V126.176H31.0261C30.3871 126.176 30.032 126.399 30.032 127.141V127.289C30.032 127.882 30.245 128.179 30.7421 128.179C31.3811 128.179 31.6651 127.882 31.6651 127.215Z" fill="white"/>
<path d="M34.2925 126.621H35.4995C35.4995 127.66 35.8546 128.031 36.5646 128.031C37.1326 128.031 37.4876 127.66 37.4876 126.844C37.4876 125.88 37.0616 125.657 36.1386 125.138C35.0025 124.544 34.3635 123.877 34.3635 122.542C34.3635 121.207 35.1445 120.391 36.4226 120.391C37.7006 120.391 38.5527 121.058 38.5527 122.616H37.3456C37.3456 121.726 36.9196 121.429 36.4226 121.429C35.8546 121.429 35.5705 121.8 35.5705 122.393C35.5705 123.135 35.8546 123.432 36.7776 123.951C37.9847 124.544 38.7657 125.138 38.7657 126.695C38.7657 128.253 37.9136 128.995 36.5646 128.995C35.1445 129.069 34.3635 128.253 34.2925 126.621Z" fill="white"/>
<path d="M40.2554 126.77V124.916C40.2554 123.358 41.1784 122.616 42.3144 122.616C43.3795 122.616 44.2315 123.061 44.3025 124.619H43.1665C43.1665 123.803 42.8114 123.581 42.3144 123.581C41.7464 123.581 41.3914 123.951 41.3914 124.842V126.77C41.3914 127.66 41.7464 128.031 42.3144 128.031C42.8114 128.031 43.1665 127.734 43.2375 126.844H44.3025C44.3025 128.328 43.5215 128.995 42.3144 128.995C41.1074 129.069 40.2554 128.328 40.2554 126.77Z" fill="white"/>
<path d="M45.6519 122.765H46.8589V123.655C47.1429 122.987 47.5689 122.691 48.279 122.691V123.877C47.3559 123.877 46.8589 124.174 46.8589 125.064V128.92H45.6519V122.765Z" fill="white"/>
<path d="M49.5562 121.208C49.5562 120.837 49.8402 120.466 50.2662 120.466C50.6922 120.466 50.9762 120.763 50.9762 121.208C50.9762 121.653 50.6922 121.949 50.2662 121.949C49.8402 121.949 49.5562 121.653 49.5562 121.208ZM49.6272 122.765H50.8342V128.921H49.6272V122.765Z" fill="white"/>
<path d="M53.603 122.765V123.506C53.8161 122.987 54.3131 122.616 55.0231 122.616C56.0171 122.616 56.7272 123.358 56.7272 124.767V126.844C56.7272 128.253 56.0171 128.995 54.9521 128.995C54.3131 128.995 53.8161 128.624 53.603 128.179V130.998H52.396V122.765H53.603ZM54.5971 128.105C55.1651 128.105 55.5201 127.734 55.5201 126.918V124.841C55.5201 124.026 55.1651 123.655 54.5971 123.655C53.9581 123.655 53.603 124.1 53.603 124.916V126.77C53.603 127.66 53.9581 128.105 54.5971 128.105Z" fill="white"/>
<path d="M59.6386 121.503V122.764H60.6326V123.728H59.6386V127.363C59.6386 127.808 59.8516 128.03 60.2066 128.03C60.4196 128.03 60.5616 128.03 60.6326 127.956V128.92C60.4906 128.994 60.2776 128.994 59.9936 128.994C58.9285 128.994 58.4315 128.475 58.4315 127.437V123.728H57.7925V122.764H58.4315V121.503H59.6386Z" fill="white"/>
<path d="M10.0815 108.747H12.0696C13.6317 108.747 14.4127 109.415 14.4127 110.972V111.491C14.4127 112.975 13.5607 113.716 12.0696 113.716H11.3596V117.202H10.0815V108.747ZM12.0696 112.678C12.7796 112.678 13.2057 112.307 13.2057 111.417V110.972C13.2057 110.082 12.7796 109.786 12.0696 109.786H11.3596V112.678H12.0696Z" fill="white"/>
<path d="M15.8315 111.046H17.0386V111.936C17.2516 111.343 17.8196 110.898 18.4586 110.972V112.159C17.5356 112.159 17.0386 112.456 17.0386 113.346V117.128H15.8315V111.046Z" fill="white"/>
<path d="M19.5249 115.051V113.197C19.5249 111.714 20.3769 110.973 21.655 110.973C22.72 110.898 23.714 111.714 23.785 112.827C23.785 112.975 23.785 113.049 23.785 113.197V115.051C23.856 116.164 23.075 117.202 22.01 117.276C21.868 117.276 21.797 117.276 21.655 117.276C20.5899 117.351 19.5959 116.535 19.5249 115.348C19.5249 115.2 19.5249 115.126 19.5249 115.051ZM22.649 115.051V113.123C22.649 112.233 22.365 111.863 21.726 111.863C21.0869 111.863 20.8029 112.308 20.8029 113.123V115.051C20.8029 115.867 21.0869 116.312 21.726 116.312C22.294 116.238 22.649 115.867 22.649 115.051Z" fill="white"/>
<path d="M25.5585 111.936H24.9194V110.972H25.5585V109.934C25.4875 109.118 26.0555 108.376 26.8365 108.228C26.9785 108.228 27.0495 108.228 27.1915 108.228C27.4045 108.228 27.6175 108.228 27.7595 108.302V109.266C27.6175 109.266 27.4755 109.192 27.3335 109.192C26.9075 109.192 26.6945 109.489 26.6945 109.934V110.972H27.6885V111.936H26.6945V117.128H25.5585V111.936Z" fill="white"/>
<path d="M28.6831 115.051V113.197C28.6831 111.713 29.5351 110.972 30.7422 110.972C31.9492 110.972 32.8012 111.639 32.8012 113.197V114.458H29.8901V115.199C29.8901 116.089 30.1742 116.46 30.8132 116.46C31.3812 116.46 31.6652 116.163 31.7362 115.57H32.8012C32.7302 116.831 32.0202 117.424 30.8132 117.424C29.4641 117.276 28.6831 116.46 28.6831 115.051ZM29.8191 113.493H31.5942V113.123C31.5942 112.233 31.2392 111.862 30.7422 111.862C30.1742 111.862 29.8191 112.233 29.8191 113.197V113.493Z" fill="white"/>
<path d="M34.0776 115.348H35.2137C35.2137 116.015 35.4977 116.312 35.9947 116.312C36.5627 116.312 36.7047 116.089 36.7047 115.57C36.7047 115.051 36.3497 114.828 35.7107 114.532C34.7167 114.087 34.2196 113.568 34.2196 112.529C34.2196 111.491 35.0007 110.898 35.9947 110.898C37.0597 110.898 37.7698 111.343 37.7698 112.678H36.6337C36.6337 112.084 36.3497 111.862 35.9237 111.862C35.6397 111.788 35.3557 112.01 35.2847 112.381C35.2847 112.455 35.2847 112.455 35.2847 112.529C35.2847 112.974 35.4977 113.197 36.2787 113.568C37.2017 114.013 37.8408 114.458 37.8408 115.57C37.8408 116.683 37.2017 117.35 35.9947 117.35C34.7877 117.276 34.0776 116.608 34.0776 115.348Z" fill="white"/>
<path d="M39.0483 115.348H40.1844C40.1844 116.015 40.4684 116.312 40.9654 116.312C41.4624 116.312 41.6754 116.089 41.6754 115.57C41.6754 115.051 41.3204 114.828 40.6814 114.532C39.6874 114.087 39.1903 113.568 39.1903 112.529C39.1903 111.491 39.9714 110.898 40.9654 110.898C42.0304 110.898 42.7405 111.343 42.7405 112.678H41.6044C41.6044 112.084 41.3204 111.862 40.8944 111.862C40.6104 111.788 40.3264 112.01 40.2554 112.381C40.2554 112.455 40.2554 112.455 40.2554 112.529C40.2554 112.974 40.4684 113.197 41.2494 113.568C42.1724 114.013 42.8115 114.458 42.8115 115.57C42.8115 116.683 42.1724 117.35 40.9654 117.35C39.7584 117.276 39.0483 116.608 39.0483 115.348Z" fill="white"/>
<path d="M46.9292 115.052V113.198C46.9292 111.714 47.7812 110.973 49.0593 110.973C50.1243 110.898 51.1184 111.714 51.1894 112.827C51.1894 112.975 51.1894 113.049 51.1894 113.198V115.052C51.1894 116.313 50.2663 117.277 49.0593 117.277C47.9232 117.203 46.9292 116.239 46.9292 115.052ZM49.9823 115.052V113.123C49.9823 112.233 49.6983 111.863 49.0593 111.863C48.4203 111.863 48.1362 112.308 48.1362 113.198V115.126C48.1362 115.942 48.4203 116.387 49.0593 116.387C49.6983 116.387 49.9823 115.868 49.9823 115.052Z" fill="white"/>
<path d="M44.1597 109.489C44.1597 109.118 44.4437 108.747 44.7987 108.747C45.1537 108.747 45.5087 109.044 45.5087 109.415C45.5087 109.786 45.2247 110.156 44.7987 110.156C44.5147 110.156 44.1597 109.934 44.1597 109.489ZM44.2307 111.046H45.3667V117.202H44.2307V111.046Z" fill="white"/>
<path d="M52.6792 111.046H53.8862V111.788C54.0992 111.268 54.6672 110.898 55.2353 110.898C56.0873 110.898 56.6553 111.491 56.6553 112.678V117.128H55.5193V112.826C55.5193 112.233 55.3063 111.936 54.8093 111.936C54.3122 111.936 53.9572 112.233 53.8862 112.752C53.8862 112.826 53.8862 112.9 53.8862 112.9V117.202H52.7502V111.046H52.6792Z" fill="white"/>
<path d="M58.0757 115.57V115.348C58.0757 114.013 58.8567 113.568 60.1348 113.568H60.7738V112.826C60.7738 112.158 60.6318 111.862 60.0638 111.862C59.4957 111.862 59.3537 112.158 59.3537 112.678H58.2177C58.2887 111.491 58.9987 110.898 60.1348 110.898C61.2708 110.898 61.9808 111.491 61.9808 112.826V117.128H60.7738V116.534C60.5608 116.979 60.0638 117.276 59.5667 117.202C58.7147 117.276 58.0757 116.683 58.0757 115.57ZM60.7738 115.422V114.383H60.2058C59.5667 114.383 59.2117 114.68 59.2117 115.348V115.57C59.2117 116.163 59.4247 116.46 59.9218 116.46C60.3478 116.534 60.7738 116.163 60.7738 115.718C60.8448 115.57 60.8448 115.496 60.7738 115.422Z" fill="white"/>
<path d="M64.8921 108.302H63.6851V117.128H64.8921V108.302Z" fill="white"/>
<path d="M17.3945 132.331C19.2406 132.331 20.2347 133.221 20.2347 135.15V137.894C20.2347 139.748 19.3116 140.712 17.4655 140.712H15.3354V132.257H17.3945V132.331ZM16.6135 133.295V139.6H17.3235C18.4596 139.6 18.8856 139.08 18.8856 137.82V135.075C18.8856 133.889 18.5306 133.295 17.3235 133.295H16.6135Z" fill="white"/>
<path d="M21.7241 138.561V136.707C21.7241 135.223 22.5761 134.482 23.7832 134.482C24.9902 134.482 25.8422 135.149 25.8422 136.707V137.968H22.9312V138.635C22.9312 139.525 23.2152 139.896 23.8542 139.896C24.4222 139.896 24.7062 139.599 24.7772 139.006H25.8422C25.7712 140.267 25.0612 140.86 23.8542 140.86C22.5051 140.786 21.7241 140.044 21.7241 138.561ZM22.8602 137.003H24.6352V136.633C24.6352 135.742 24.2802 135.372 23.7832 135.372C23.2862 135.372 22.8602 135.742 22.8602 136.707V137.003Z" fill="white"/>
<path d="M26.7671 134.556H28.0451L29.0392 139.303L30.0332 134.556H31.1693L29.6782 140.712H28.2582L26.7671 134.556Z" fill="white"/>
<path d="M32.0913 138.561V136.707C32.0913 135.223 32.9433 134.482 34.1504 134.482C35.3574 134.482 36.2094 135.149 36.2094 136.707V137.968H33.2983V138.635C33.2983 139.525 33.5824 139.896 34.2214 139.896C34.7894 139.896 35.0734 139.599 35.1444 139.006H36.2094C36.1384 140.267 35.4284 140.86 34.2214 140.86C32.8723 140.786 32.0913 140.044 32.0913 138.561ZM33.2273 137.003H35.0024V136.633C35.0024 135.742 34.6474 135.372 34.1504 135.372C33.5824 135.372 33.2273 135.742 33.2273 136.707V137.003Z" fill="white"/>
<path d="M38.9058 131.886H37.6987V140.786H38.9058V131.886Z" fill="white"/>
<path d="M40.3979 138.562V136.707C40.3979 135.224 41.25 134.482 42.528 134.482C43.5931 134.408 44.5871 135.224 44.6581 136.337C44.6581 136.485 44.6581 136.559 44.6581 136.707V138.562C44.6581 139.822 43.7351 140.787 42.528 140.787C41.392 140.787 40.3979 139.748 40.3979 138.562ZM43.4511 138.562V136.633C43.4511 135.743 43.1671 135.372 42.528 135.372C41.889 135.372 41.605 135.817 41.605 136.633V138.562C41.605 139.377 41.889 139.822 42.528 139.822C43.1671 139.822 43.4511 139.377 43.4511 138.562Z" fill="white"/>
<path d="M47.355 134.557V135.298C47.639 134.779 48.136 134.408 48.7751 134.408C49.7691 134.408 50.4791 135.076 50.4791 136.559V138.636C50.4791 140.045 49.7691 140.786 48.7041 140.786C48.136 140.786 47.639 140.49 47.355 139.971V142.715H46.1479V134.483H47.355V134.557ZM48.278 139.822C48.8461 139.822 49.2011 139.451 49.2011 138.636V136.559C49.2011 135.743 48.8461 135.372 48.278 135.372C47.71 135.372 47.284 135.817 47.284 136.633V138.487C47.355 139.451 47.639 139.822 48.278 139.822Z" fill="white"/>
<path d="M51.7573 138.561V136.707C51.7573 135.223 52.6094 134.482 53.8164 134.482C55.0234 134.482 55.8755 135.149 55.8755 136.707V137.968H52.9644V138.635C52.9644 139.525 53.2484 139.896 53.8874 139.896C54.4554 139.896 54.7394 139.599 54.8104 139.006H55.8755C55.8045 140.267 55.0944 140.86 53.8874 140.86C52.5383 140.786 51.7573 140.044 51.7573 138.561ZM52.9644 137.003H54.7394V136.633C54.7394 135.742 54.3844 135.372 53.8874 135.372C53.3194 135.372 52.9644 135.742 52.9644 136.707V137.003Z" fill="white"/>
<path d="M57.3667 134.555H58.5737V135.519C58.7867 134.926 59.3547 134.481 59.9937 134.555V135.742C59.0707 135.742 58.5737 136.039 58.5737 136.929V140.711H57.3667V134.555Z" fill="white"/>
</svg>
