<svg width="74" height="150" viewBox="0 0 74 150" fill="none" xmlns="http://www.w3.org/2000/svg">
<path d="M73.3136 149.166V22.7931L36.8919 0.840973L0.470215 22.7931V149.166H73.3136Z" fill="#5B5858"/>
<path d="M73.3119 66.3263L36.8901 88.2785V149.166H73.3119V66.3263Z" fill="#4B4646"/>
<path d="M0.468262 66.3263V149.166H36.89V88.2785L0.468262 66.3263Z" fill="#504B4C"/>
<path d="M10.6206 60.9884V29.3946L36.8187 13.5236L63.0877 29.3205V60.9884L55.633 65.5124V33.9186L36.8187 22.5716L18.0043 33.9186L18.0753 65.5124L10.6206 60.9884Z" fill="white"/>
<path d="M25.6011 70.0354V38.4421L33.0558 33.9181V65.5115L36.8187 67.8105L40.5815 65.5115V33.9181L48.1073 38.4421V70.0354L36.8187 76.8584L25.6011 70.0354Z" fill="white"/>
<path d="M10.8335 96.5841H13.0346L14.0996 99.8477L15.2357 96.5841H17.4368V102.815H15.7327V98.9576L14.3126 102.815H13.7446L12.3246 98.9576V102.815H10.8335V96.5841Z" fill="white"/>
<path d="M20.7025 100.441H21.9806L21.3416 98.0676L20.7025 100.441ZM20.4185 96.5841H22.6196L24.4657 102.815H22.6906L22.3356 101.702H20.4185L20.0635 102.815H18.5015L20.4185 96.5841Z" fill="white"/>
<path d="M24.8901 99.7009V99.6267C24.8901 97.6984 26.1682 96.4377 28.0143 96.4377C29.3633 96.4377 30.6414 97.1051 30.7124 98.7367H29.0793C29.0083 98.1434 28.6533 97.8468 28.0143 97.8468C27.1622 97.8468 26.6652 98.5142 26.6652 99.6267V99.7009C26.6652 100.739 27.0202 101.481 28.0143 101.481C28.8663 101.481 29.1503 101.036 29.1503 100.517H28.0853V99.33H30.8544V100.072C30.8544 101.703 29.8603 102.816 27.9433 102.816C26.0262 102.89 24.8901 101.555 24.8901 99.7009Z" fill="white"/>
<path d="M32.0601 96.5841H36.1072V97.9192H33.7641V99.0318H35.6812V100.293H33.7641V101.405H36.2492V102.815H32.0601V96.5841Z" fill="white"/>
<path d="M37.5269 96.5841H39.3729L41.29 100.07V96.5841H42.7811V102.815H41.148L39.0179 98.8835V102.815H37.5269V96.5841Z" fill="white"/>
<path d="M45.4795 97.9192H43.9175V96.5841H48.6747V97.9192H47.1126V102.815H45.4795V97.9192Z" fill="white"/>
<path d="M53.7148 99.7V99.6258C53.7148 98.5133 53.2178 97.8458 52.3658 97.8458C51.5138 97.8458 51.0168 98.5133 51.0168 99.6258V99.7C51.0168 100.812 51.5848 101.48 52.3658 101.48C53.2178 101.48 53.7148 100.812 53.7148 99.7ZM49.2417 99.7V99.6258C49.2417 97.6975 50.5907 96.4367 52.3658 96.4367C54.1409 96.4367 55.4899 97.6233 55.4899 99.5517V99.6258C55.4899 101.554 54.2829 102.889 52.3658 102.889C50.4487 102.889 49.2417 101.554 49.2417 99.7Z" fill="white"/>
<path d="M58.2593 102.52L60.3183 100.221C60.8863 99.553 61.3123 99.0338 61.3123 98.5146C61.3123 98.0695 61.0993 97.847 60.6733 97.847C60.2473 97.847 59.9633 98.1437 59.8923 98.8855H58.4013C58.4723 97.3278 59.3243 96.5119 60.7443 96.5119C62.1644 96.5119 62.9454 97.3278 62.9454 98.5146C62.9454 99.3305 62.5194 99.9981 61.8804 100.666L61.0283 101.482H63.0164V102.817H58.2593V102.52Z" fill="white"/>
<path d="M13.7437 110.156V110.082C13.7437 108.154 15.0217 106.893 16.7258 106.893C18.2878 106.893 19.2819 107.634 19.4239 109.266H17.7198C17.6488 108.599 17.2938 108.302 16.7258 108.302C15.9447 108.302 15.5187 108.895 15.5187 110.082V110.156C15.5187 111.269 15.9447 111.937 16.7258 111.937C17.2938 111.937 17.7198 111.566 17.7908 110.898H19.4949C19.3529 112.53 18.2878 113.346 16.7968 113.346C14.7377 113.346 13.7437 112.011 13.7437 110.156Z" fill="white"/>
<path d="M20.7026 107.043H24.7498V108.378H22.3357V109.491H24.2528V110.752H22.3357V111.864H24.8918V113.199H20.7026V107.043Z" fill="white"/>
<path d="M28.2989 109.862C28.867 109.862 29.151 109.565 29.151 109.12V109.046C29.151 108.527 28.867 108.304 28.2989 108.304H27.7309V109.788L28.2989 109.862ZM26.0979 107.043H28.3699C29.932 107.043 30.784 107.711 30.784 109.046V109.12C30.784 110.01 30.358 110.455 29.719 110.752L31.139 113.348H29.364L28.1569 111.123H27.7309V113.348H26.0269V107.043H26.0979Z" fill="white"/>
<path d="M33.1976 108.378H31.7065V107.043H36.3927V108.378H34.9017V113.199H33.1976V108.378Z" fill="white"/>
<path d="M37.5991 107.043H39.3032V113.274H37.5991V107.043Z" fill="white"/>
<path d="M40.8647 107.043H44.8408V108.378H42.5688V109.713H44.3438V111.048H42.5688V113.199H40.8647V107.043Z" fill="white"/>
<path d="M46.0483 107.043H47.7524V113.274H46.0483V107.043Z" fill="white"/>
<path d="M49.314 107.043H53.3611V108.378H51.018V109.491H52.9351V110.752H51.018V111.864H53.5031V113.199H49.314V107.043Z" fill="white"/>
<path d="M56.8386 111.864C57.8326 111.864 58.3296 111.271 58.3296 110.158V110.084C58.3296 108.897 57.9036 108.378 56.8386 108.378H56.4835V111.864H56.8386ZM54.7795 107.043H56.9096C58.9686 107.043 60.0337 108.156 60.0337 110.084V110.158C60.0337 112.087 58.9686 113.274 56.8386 113.274H54.7085V107.043H54.7795Z" fill="white"/>
<path d="M52.0111 134.706C51.656 134.854 51.443 135.003 51.159 135.077C50.307 135.225 49.739 134.632 49.668 133.742C49.597 133 49.597 132.185 49.668 131.443C49.739 130.182 50.946 129.589 52.0111 130.479C52.0111 129.663 52.0111 128.847 52.0111 128.106H52.9341V135.003C52.6501 135.003 52.3661 135.003 52.0821 135.003C52.0821 134.854 52.0111 134.706 52.0111 134.706ZM50.662 132.481C50.662 132.852 50.591 133.223 50.662 133.519C50.733 133.964 50.875 134.187 51.23 134.187C51.656 134.261 51.94 133.964 52.0111 133.594C52.0821 132.852 52.0821 132.036 52.0111 131.295C51.94 130.924 51.656 130.701 51.301 130.701C50.946 130.775 50.733 130.924 50.733 131.369C50.591 131.814 50.662 132.11 50.662 132.481Z" fill="white"/>
<path d="M41.2202 128.326H44.2024V129.142C43.5633 129.142 42.9243 129.142 42.2853 129.142V131.071H43.8473V131.886C43.3503 131.886 42.8533 131.886 42.2853 131.886V134.037H44.3444V134.853C43.3503 134.853 42.2853 134.853 41.2912 134.853C41.2202 132.702 41.2202 130.551 41.2202 128.326Z" fill="white"/>
<path d="M30.8549 132.48V133.37C30.7839 134.26 30.2159 134.928 29.2928 135.002C28.0858 135.076 27.4468 134.409 27.4468 133.148C27.4468 132.629 27.4468 132.11 27.4468 131.591C27.4468 130.552 28.0858 129.885 29.1508 129.885C30.2159 129.885 30.8549 130.552 30.8549 131.591V132.48ZM29.8609 132.48C29.8609 132.11 29.9319 131.739 29.8609 131.442C29.7899 130.997 29.5769 130.775 29.1508 130.775C28.7958 130.775 28.5118 130.997 28.5118 131.442C28.4408 132.11 28.4408 132.777 28.5118 133.519C28.5118 133.964 28.7958 134.186 29.1508 134.186C29.5059 134.186 29.7899 133.889 29.8609 133.519C29.9319 133.222 29.8609 132.851 29.8609 132.48Z" fill="white"/>
<path d="M35.1138 134.927C34.7589 134.927 34.5459 134.927 34.191 134.927C34.191 134.779 34.191 134.63 34.191 134.482C34.191 133.592 34.191 132.702 34.191 131.812C34.191 131.664 34.191 131.515 34.12 131.367C34.049 130.996 33.907 130.848 33.6231 130.848C33.3391 130.848 33.0552 131.071 32.9842 131.367C32.9132 131.515 32.9132 131.738 32.9132 131.886V134.482C32.9132 134.63 32.9132 134.779 32.8422 134.927C32.4873 134.927 32.2034 134.927 31.9194 134.927C31.9194 133.295 31.9194 131.738 31.9194 130.106H32.8422C32.9132 130.181 32.9132 130.329 32.9842 130.403C33.0552 130.403 33.0552 130.329 33.1262 130.329C33.2682 130.255 33.4101 130.106 33.4811 130.106C34.262 129.736 35.0428 130.255 35.1138 131.071V134.927Z" fill="white"/>
<path d="M48.4608 134.928C48.1058 134.928 47.8219 134.928 47.538 134.928C47.538 134.779 47.538 134.631 47.538 134.483C47.538 133.519 47.538 132.555 47.538 131.665C47.538 131.072 47.325 130.849 46.9701 130.849C46.5442 130.849 46.3312 131.146 46.3312 131.665V134.409C46.3312 134.557 46.3312 134.779 46.2602 134.928C45.9053 134.928 45.6213 134.928 45.3374 134.928C45.3374 133.296 45.3374 131.739 45.3374 130.108H46.1892C46.2602 130.256 46.2602 130.33 46.2602 130.33C46.6151 130.182 46.8991 130.034 47.254 130.034C47.8929 129.959 48.3898 130.404 48.3898 131.072C48.5318 132.332 48.4608 133.593 48.4608 134.928Z" fill="white"/>
<path d="M23.7537 128.326V129.216C23.3987 129.216 23.1147 129.216 22.8307 129.216C22.5467 129.216 22.1916 129.216 21.9076 129.216V131.293H23.4697V132.109C22.9727 132.109 22.4757 132.109 21.9076 132.109V134.927C21.5526 134.927 21.2686 134.927 20.9136 134.927C20.9136 132.776 20.9136 130.551 20.9136 128.326H23.7537Z" fill="white"/>
<path d="M37.6697 134.037C37.8827 134.111 38.0247 134.111 38.3087 134.111V134.779C37.2437 135.149 36.5336 134.556 36.5336 133.666C36.6046 132.925 36.5336 132.109 36.5336 131.367C36.5336 131.219 36.5336 131.071 36.4626 130.922C36.3206 130.848 36.1786 130.848 36.0366 130.848C36.0366 130.626 36.0366 130.403 36.0366 130.107C36.1786 130.033 36.3206 130.033 36.4626 130.033C36.5336 129.736 36.5336 129.439 36.5336 129.069H37.4567C37.4567 129.365 37.5277 129.662 37.5277 130.033C37.7407 130.033 38.0247 130.107 38.2377 130.107V130.848C37.9537 130.848 37.7407 130.922 37.5277 130.922C37.4567 131.442 37.5277 133.666 37.6697 134.037Z" fill="white"/>
<path d="M24.6772 130.108H25.6C25.671 130.256 25.671 130.331 25.671 130.479C25.955 130.182 26.3099 129.96 26.7358 130.034V130.924C26.5938 130.998 26.4519 130.998 26.3809 130.998C25.813 131.146 25.671 131.294 25.671 131.888V134.408C25.671 134.557 25.671 134.779 25.6 134.927C25.2451 134.927 24.9612 134.927 24.6772 134.927C24.6772 133.296 24.6772 131.739 24.6772 130.108Z" fill="white"/>
<path d="M19.4233 137.524C20.2044 137.598 21.0564 137.524 21.7665 137.672C22.6895 137.82 23.2575 138.488 23.2575 139.452C23.3285 140.416 23.3285 141.381 23.2575 142.345C23.1865 143.309 22.6185 144.051 21.6244 144.199C20.9144 144.274 20.1334 144.199 19.4233 144.199C19.4233 141.974 19.4233 139.749 19.4233 137.524ZM20.4884 138.414V143.309H21.1984C21.7665 143.235 22.1215 142.938 22.1925 142.345C22.2635 141.381 22.2635 140.342 22.1925 139.378C22.1215 138.785 21.8375 138.488 21.4114 138.414C21.0564 138.414 20.7724 138.414 20.4884 138.414Z" fill="white"/>
<path d="M44.485 143.828V144.792V145.682C44.13 145.682 43.846 145.682 43.562 145.682C43.562 143.531 43.562 141.454 43.562 139.229H44.485C44.556 139.377 44.556 139.452 44.556 139.526C44.627 139.452 44.627 139.452 44.698 139.452C45.1241 139.007 45.6211 138.932 46.1891 139.155C46.6861 139.377 46.8991 139.822 46.9701 140.416C47.0411 141.157 47.0411 141.973 46.9701 142.715C46.8991 143.976 45.7631 144.495 44.769 143.753C44.627 143.902 44.556 143.902 44.485 143.828ZM45.8341 141.677C45.8341 141.38 45.9051 141.083 45.8341 140.861C45.8341 140.787 45.8341 140.712 45.8341 140.712C45.7631 140.267 45.5501 140.045 45.1951 140.045C44.84 140.045 44.485 140.267 44.485 140.712C44.414 141.454 44.414 142.122 44.485 142.863C44.556 143.308 44.84 143.531 45.1951 143.457C45.5501 143.383 45.7631 143.234 45.7631 142.789C45.9051 142.418 45.8341 142.122 45.8341 141.677Z" fill="white"/>
<path d="M42.3549 141.75V142.64C42.2839 143.604 41.6449 144.272 40.5798 144.198C39.6568 144.198 39.0178 143.53 38.9468 142.566C38.9468 141.973 38.9468 141.305 38.9468 140.712C39.0178 139.748 39.6568 139.08 40.6508 139.08C41.6449 139.08 42.2839 139.674 42.3549 140.712V141.75ZM41.4319 141.676C41.4319 141.305 41.5029 141.009 41.4319 140.712C41.3609 140.193 41.1479 139.97 40.7928 139.97C40.4378 139.97 40.1538 140.193 40.0828 140.712C40.0118 141.379 40.0118 142.047 40.0828 142.714C40.0828 143.159 40.3668 143.456 40.7218 143.456C41.0769 143.456 41.3609 143.234 41.4319 142.714C41.4319 142.418 41.4319 142.047 41.4319 141.676Z" fill="white"/>
<path d="M35.7523 142.787C35.8233 143.529 35.3973 144.122 34.6875 144.196C34.3326 144.27 34.0486 144.27 33.7647 144.196C33.0548 144.048 32.6289 143.529 32.6289 142.861C32.5579 142.12 32.5579 141.452 32.6289 140.711C32.6999 139.747 33.3388 139.228 34.3326 139.302C35.2554 139.376 35.8233 139.895 35.8233 140.859V142.12C35.3973 142.12 35.0424 142.12 34.6875 142.12C34.3326 142.12 33.9776 142.12 33.5517 142.12C33.6227 142.416 33.5517 142.713 33.6227 142.935C33.6937 143.38 33.9067 143.529 34.1906 143.529C34.5455 143.603 34.7585 143.38 34.9004 143.01C34.9714 142.935 34.9714 142.861 34.9714 142.861C35.1134 142.787 35.3973 142.787 35.7523 142.787ZM34.8295 141.23C34.8295 140.785 34.9004 140.414 34.4745 140.118C34.2616 139.969 33.9776 139.969 33.7647 140.192C33.4098 140.488 33.4098 140.859 33.4807 141.304C33.9067 141.23 34.4035 141.23 34.8295 141.23Z" fill="white"/>
<path d="M27.5877 141.973C26.8067 141.973 26.0967 141.973 25.3156 141.973C25.3866 142.27 25.3867 142.567 25.3867 142.863C25.4577 143.234 25.6707 143.382 25.9547 143.457C26.3097 143.457 26.4517 143.308 26.5937 142.937C26.6647 142.863 26.6647 142.789 26.6647 142.715H27.5167C27.6588 143.457 27.1617 144.05 26.4517 144.124C26.1677 144.198 25.8837 144.198 25.5997 144.124C24.8896 143.976 24.3926 143.457 24.3926 142.715C24.3216 141.973 24.3216 141.306 24.3926 140.564C24.4636 139.6 25.1026 139.006 26.0967 139.081C27.0197 139.155 27.5877 139.674 27.6588 140.638C27.5877 141.157 27.5877 141.528 27.5877 141.973ZM26.5937 141.232C26.5227 140.787 26.6647 140.341 26.2387 140.119C26.0967 139.971 25.7417 140.045 25.5997 140.119C25.1736 140.341 25.2446 140.787 25.2446 141.232H26.5937Z" fill="white"/>
<path d="M51.1593 141.973C50.3783 141.973 49.6683 141.973 48.8872 141.973C48.9582 142.343 48.9582 142.566 48.9582 142.863C49.0292 143.233 49.2422 143.382 49.5973 143.456C49.9523 143.456 50.1653 143.308 50.2363 142.937C50.3073 142.863 50.3073 142.788 50.3073 142.714H51.1593C51.3013 143.308 50.9463 143.901 50.3783 144.049C50.0233 144.198 49.5973 144.197 49.1712 144.123C48.4612 143.975 48.0352 143.456 48.0352 142.714C47.9642 142.047 47.9642 141.305 48.0352 140.563C48.1062 139.674 48.7452 139.08 49.6683 139.08C50.5913 139.08 51.1593 139.674 51.2303 140.638C51.1593 141.157 51.1593 141.528 51.1593 141.973ZM48.8872 141.231H50.1653C50.2363 140.415 50.0233 140.044 49.5262 140.044C49.1002 139.97 48.8162 140.415 48.8872 141.231Z" fill="white"/>
<path d="M28.2983 139.303H29.3631C29.647 140.415 29.86 141.601 30.1439 142.788C30.4279 141.601 30.6408 140.415 30.8538 139.303H31.8475C31.4216 140.934 31.0667 142.565 30.7118 144.122C30.2859 144.122 29.931 144.122 29.576 144.122C29.0792 142.565 28.7242 140.934 28.2983 139.303Z" fill="white"/>
<path d="M37.8112 144.124C37.4562 144.124 37.1722 144.124 36.8882 144.124C36.8882 141.825 36.8882 139.526 36.8882 137.227H37.8112V144.124Z" fill="white"/>
<path d="M52.2241 139.304H53.1469C53.2179 139.452 53.2179 139.526 53.2889 139.674C53.5728 139.378 53.8568 139.155 54.3537 139.229V140.119C54.2827 140.119 54.2117 140.193 54.1407 140.193C53.4309 140.342 53.2889 140.564 53.2889 141.306V143.604C53.2889 143.753 53.2889 143.901 53.2179 144.049C52.863 144.049 52.579 144.049 52.2951 144.049C52.2241 142.566 52.2241 140.935 52.2241 139.304Z" fill="white"/>
<path d="M16.5131 123.062V125.731C16.1581 125.731 15.8741 125.731 15.519 125.731C15.519 123.506 15.519 121.356 15.519 119.057C16.3001 119.131 17.0811 119.131 17.8621 119.205C18.5011 119.353 18.8561 119.873 18.9271 120.466C18.9981 120.837 18.9981 121.207 18.9271 121.578C18.8561 122.394 18.2171 122.913 17.3651 122.987C17.0811 123.136 16.7971 123.062 16.5131 123.062ZM16.5131 122.246C17.0101 122.246 17.4361 122.394 17.7201 121.875C18.0041 121.356 18.0041 120.837 17.7201 120.318C17.4361 119.873 16.9391 120.021 16.5131 120.021V122.246Z" fill="white"/>
<path d="M22.9019 123.358C22.9019 123.061 22.9019 122.764 22.9019 122.468C22.9729 121.503 23.6119 120.836 24.6769 120.91C25.6 120.91 26.31 121.578 26.31 122.542V124.396C26.239 125.435 25.6 126.028 24.5349 126.028C23.5409 126.028 22.9019 125.361 22.9019 124.396C22.9019 123.951 22.9019 123.655 22.9019 123.358ZM23.8959 123.358V124.248V124.396C23.9669 124.841 24.1799 125.064 24.5349 125.064C24.8899 125.064 25.1739 124.767 25.2449 124.396C25.3159 123.729 25.3159 123.061 25.2449 122.319C25.2449 121.874 24.9609 121.652 24.6059 121.652C24.1799 121.652 23.9669 121.874 23.8959 122.319V123.358Z" fill="white"/>
<path d="M53.999 122.246C53.7151 122.246 53.4312 122.246 53.1472 122.246C53.0053 121.504 53.5022 120.911 54.283 120.837C54.4959 120.763 54.7799 120.763 54.9928 120.837C55.6317 120.911 55.9866 121.282 56.0576 121.949C56.1286 122.32 56.1286 122.616 56.1286 122.987V125.285C56.1286 125.433 56.1286 125.582 56.0576 125.73C55.7027 125.73 55.4897 125.73 55.1348 125.73C55.0638 125.656 55.0638 125.582 54.9928 125.433C54.7089 125.73 54.354 125.804 53.9281 125.804C53.3602 125.73 52.9343 125.433 52.8633 124.914C52.7923 124.544 52.7923 124.173 52.8633 123.877C53.0053 123.283 53.4312 122.987 54.141 122.913H54.9928C54.9928 122.616 55.0638 122.32 54.9928 122.023C54.9218 121.727 54.8509 121.578 54.5669 121.578C54.283 121.578 54.07 121.653 53.999 121.949C54.07 122.097 54.07 122.171 53.999 122.246ZM55.1348 123.654C54.9218 123.654 54.8509 123.654 54.7089 123.654C53.999 123.58 53.8571 124.173 53.999 124.692C54.07 124.989 54.283 125.137 54.5669 125.137C54.9218 125.137 55.1348 124.914 55.2058 124.544C55.1348 124.321 55.1348 124.025 55.1348 123.654Z" fill="white"/>
<path d="M47.6088 123.359V124.249C47.5378 125.213 46.8988 125.88 45.8337 125.88C44.9107 125.88 44.2007 125.213 44.2007 124.249C44.2007 123.656 44.2007 123.063 44.2007 122.395C44.2717 121.431 44.9107 120.764 45.9047 120.764C46.8988 120.764 47.5378 121.431 47.5378 122.395C47.6798 122.766 47.6088 123.063 47.6088 123.359ZM46.6147 123.433C46.6147 123.137 46.6147 122.84 46.6147 122.618C46.6147 122.544 46.6147 122.469 46.6147 122.395C46.5437 121.95 46.3307 121.728 45.9757 121.728C45.5497 121.728 45.3367 121.95 45.2657 122.395C45.1947 123.063 45.1947 123.73 45.2657 124.472C45.3367 124.916 45.5497 125.139 45.9757 125.139C46.3307 125.139 46.6147 124.842 46.6147 124.397C46.6147 124.101 46.6147 123.73 46.6147 123.433Z" fill="white"/>
<path d="M33.1971 123.581C32.7711 123.581 32.4161 123.581 32.0611 123.581C31.7061 123.581 31.351 123.581 30.925 123.581C30.996 123.952 30.996 124.174 30.996 124.471C31.067 124.842 31.28 125.065 31.564 125.065C31.9191 125.139 32.1321 124.916 32.2031 124.545C32.2741 124.471 32.2741 124.397 32.2741 124.323H33.1261C33.2681 124.99 32.7711 125.658 32.0611 125.732C31.7771 125.806 31.493 125.806 31.209 125.732C30.499 125.584 30.002 125.065 30.002 124.323C29.931 123.655 29.931 122.913 30.002 122.172C30.073 121.207 30.712 120.614 31.7061 120.688C32.6291 120.688 33.1971 121.281 33.2681 122.246C33.2681 122.765 33.1971 123.136 33.1971 123.581ZM32.2741 122.839C32.2031 122.394 32.3451 121.949 31.9191 121.727C31.7771 121.652 31.422 121.652 31.28 121.801C30.925 122.097 30.925 122.468 30.925 122.913C31.422 122.839 31.8481 122.839 32.2741 122.839Z" fill="white"/>
<path d="M49.7387 125.804C49.3838 125.804 49.0999 125.804 48.8159 125.804C48.8159 124.173 48.8159 122.616 48.8159 120.984H49.7387C49.8097 121.133 49.8097 121.207 49.8097 121.281C50.0226 121.133 50.1646 120.984 50.3776 120.91C51.2294 120.614 51.9392 121.133 51.9392 122.022C52.0102 123.135 51.9392 124.247 51.9392 125.433C51.9392 125.582 51.9392 125.656 51.8682 125.804C51.5843 125.804 51.3004 125.804 50.9454 125.804C50.9454 125.656 50.9454 125.508 50.9454 125.359C50.9454 124.469 50.9454 123.58 50.9454 122.69C50.9454 122.541 50.9454 122.393 50.9454 122.319C50.8745 121.874 50.7325 121.726 50.3776 121.726C50.0226 121.726 49.7387 121.948 49.7387 122.319C49.6677 123.135 49.6677 123.876 49.6677 124.692C49.7387 124.988 49.7387 125.359 49.7387 125.804Z" fill="white"/>
<path d="M37.1029 122.245C36.8189 122.245 36.5349 122.245 36.2509 122.245C36.1799 122.097 36.1799 122.023 36.1089 121.874C35.9669 121.578 35.6829 121.504 35.3989 121.652C35.1859 121.8 35.1149 122.171 35.2569 122.394C35.3989 122.542 35.5409 122.616 35.6829 122.764C35.9669 122.987 36.3219 123.135 36.6059 123.284C37.1029 123.729 37.316 124.322 37.1029 125.064C36.8899 125.657 36.4639 125.954 35.8249 125.88C35.5409 125.88 35.1859 125.805 34.9018 125.731C34.4048 125.509 34.1918 124.989 34.2628 124.396H35.1149C35.1859 124.544 35.1859 124.619 35.1859 124.693C35.2569 124.989 35.3989 125.138 35.6829 125.138C35.8959 125.138 36.1089 125.064 36.1799 124.841C36.3219 124.544 36.2509 124.322 36.0379 124.174C35.8959 124.025 35.6829 123.951 35.5409 123.803C35.3279 123.654 35.1149 123.58 34.9729 123.432C34.4048 123.061 34.1208 122.394 34.3338 121.726C34.5468 121.133 34.9729 120.836 35.6829 120.836C36.6059 120.836 37.1739 121.355 37.1029 122.245Z" fill="white"/>
<path d="M41.0063 122.247C40.6513 122.247 40.4383 122.247 40.1543 122.247C40.0833 122.099 40.0833 122.025 40.0123 121.876C39.8703 121.58 39.5863 121.505 39.3023 121.58C39.0892 121.728 39.0182 122.099 39.1602 122.321C39.3023 122.47 39.4443 122.544 39.5153 122.618C39.7993 122.766 40.0833 122.915 40.2963 123.063C41.0063 123.508 41.0773 124.027 40.9353 124.843C40.8643 125.288 40.5803 125.584 40.1543 125.733C39.7283 125.881 39.3023 125.881 38.8762 125.659C38.3082 125.436 38.0952 124.917 38.0952 124.324H38.9472C39.0182 124.472 39.0182 124.546 39.0182 124.62C39.0892 124.843 39.2313 124.991 39.5153 125.065C39.7283 125.065 39.9413 125.065 40.0123 124.843C40.1543 124.546 40.1543 124.324 39.9413 124.101C39.7993 123.953 39.5863 123.805 39.3733 123.656C39.1603 123.508 38.8762 123.434 38.7342 123.285C38.2372 122.915 38.0242 122.247 38.2372 121.654C38.4502 121.06 38.8762 120.764 39.5153 120.764C40.2963 120.764 40.7933 121.06 40.9353 121.728C41.0063 121.95 41.0063 122.099 41.0063 122.247Z" fill="white"/>
<path d="M27.5883 121.801C27.3753 121.727 27.3043 121.727 27.0913 121.727C27.0913 121.43 27.0913 121.208 27.0913 120.985C27.2333 120.985 27.3753 120.911 27.5883 120.911C27.5883 120.614 27.6593 120.392 27.5883 120.169C27.5173 119.279 28.1563 118.538 29.3633 118.908V119.576C28.5823 119.724 28.5113 119.799 28.5823 120.911C28.7953 120.911 29.0793 120.985 29.2923 120.985V121.727C29.0793 121.727 28.7953 121.801 28.5113 121.801V123.804V125.806C28.1563 125.806 27.8723 125.806 27.5883 125.806C27.5883 124.471 27.5883 123.136 27.5883 121.801Z" fill="white"/>
<path d="M57.4077 118.834H58.3308V125.731C58.0467 125.731 57.7627 125.731 57.4077 125.731C57.4077 123.432 57.4077 121.207 57.4077 118.834Z" fill="white"/>
<path d="M20.9145 125.804C20.5596 125.804 20.2756 125.804 19.9917 125.804C19.9917 124.173 19.9917 122.616 19.9917 120.985H20.9145C20.9855 121.133 20.9855 121.208 20.9855 121.356C21.2694 121.059 21.6243 120.837 22.0502 120.911V121.801C21.9083 121.875 21.7663 121.875 21.6243 121.875C21.1275 122.023 20.9855 122.171 20.9855 122.69C20.9145 123.58 20.9855 124.396 20.9855 125.285C20.9855 125.434 20.9145 125.582 20.9145 125.804Z" fill="white"/>
<path d="M42.2144 120.91H43.0662V125.729C42.7822 125.729 42.4983 125.729 42.2144 125.729C42.2144 124.172 42.2144 122.615 42.2144 120.91Z" fill="white"/>
<path d="M42.7105 119.131C43.0657 119.131 43.2788 119.354 43.2788 119.725C43.2788 120.096 43.0657 120.319 42.7105 120.319C42.3552 120.319 42.1421 120.096 42.1421 119.725C42.1421 119.428 42.3552 119.131 42.7105 119.131Z" fill="white"/>
</svg>
