<svg width="74" height="150" viewBox="0 0 74 150" fill="none" xmlns="http://www.w3.org/2000/svg">
<path d="M36.7372 0.840973L0.31543 22.7931V149.166H73.1589V22.7931L36.7372 0.840973Z" fill="#EF6422"/>
<path opacity="0.2" d="M73.157 66.3263L36.7354 88.2785V149.166H73.157V66.3263Z" fill="black"/>
<path opacity="0.1" d="M0.313477 66.3263V149.166H36.7353V88.2785L0.313477 66.3263Z" fill="black"/>
<path d="M10.4678 60.9879V29.3945L36.7369 13.5236L62.935 29.3203V60.9879L55.4092 65.5118V33.9184L36.6659 22.5715L17.9225 33.9184V65.5118L10.4678 60.9879Z" fill="white"/>
<path d="M25.4463 70.0344V38.4411L32.901 33.9171V65.5847L36.6639 67.8096L40.4268 65.5105V33.9171L47.9526 38.4411V70.0344L36.6639 76.8574L25.4463 70.0344Z" fill="white"/>
<path d="M10.6084 96.5109H12.8095L13.9455 99.774L15.0105 96.5109H17.2116V102.666H15.5076V98.8099L14.0875 102.666H13.5195L12.0994 98.8099V102.666H10.6084V96.5109Z" fill="white"/>
<path d="M20.1934 96.5109H22.3945L24.2406 102.666H22.4655L22.1815 101.554H20.2644L19.9804 102.666H18.2764L20.1934 96.5109ZM20.4774 100.293H21.7555L21.1165 97.92L20.4774 100.293Z" fill="white"/>
<path d="M24.667 99.6256C24.667 97.6974 26.016 96.4367 27.7201 96.4367C29.1402 96.4367 30.3472 97.1041 30.4892 98.6615H28.8561C28.7851 98.0682 28.4301 97.7716 27.7911 97.7716C26.9391 97.7716 26.4421 98.439 26.4421 99.5514V99.6256C26.4421 100.59 26.7971 101.405 27.7911 101.405C28.6431 101.405 28.9272 100.96 28.9272 100.516H27.8621V99.2548H30.6312V99.9964C30.6312 101.554 29.6372 102.74 27.7911 102.74C25.803 102.74 24.667 101.48 24.667 99.6256Z" fill="white"/>
<path d="M31.9072 96.5109H35.9544V97.8458H33.5403V98.8841H35.4573V100.145H33.5403V101.257H36.0964V102.666H31.9072V96.5109Z" fill="white"/>
<path d="M37.3037 96.5109H39.2208L41.0669 99.9965V96.5109H42.5579V102.666H40.9249L38.7948 98.8099V102.666H37.3037V96.5109Z" fill="white"/>
<path d="M45.2564 97.8458H43.6943V96.5109H48.4515V97.8458H46.8894V102.666H45.2564V97.8458Z" fill="white"/>
<path d="M49.0889 99.626C49.0889 97.6976 50.4379 96.4367 52.2129 96.4367C53.988 96.4367 55.337 97.6234 55.337 99.5518V99.626C55.337 101.48 54.13 102.815 52.2129 102.815C50.2249 102.741 49.0889 101.48 49.0889 99.626ZM53.562 99.626C53.562 98.4393 53.065 97.8459 52.2129 97.8459C51.3609 97.8459 50.8639 98.4393 50.8639 99.5518V99.626C50.8639 100.739 51.4319 101.406 52.2129 101.406C52.994 101.332 53.562 100.664 53.562 99.626Z" fill="white"/>
<path d="M58.0342 102.37L60.0932 100.071C60.6612 99.4032 61.0872 98.8841 61.0872 98.3649C61.0872 97.9199 60.8742 97.6974 60.4482 97.6974C60.0222 97.6974 59.7382 97.9941 59.6672 98.6616H58.1052C58.1762 97.1041 59.0282 96.3625 60.4482 96.3625C61.8682 96.3625 62.6493 97.1783 62.6493 98.2907C62.6493 99.1065 62.2233 99.774 61.5132 100.442L60.6612 101.257H62.6493V102.592H58.0342V102.37Z" fill="white"/>
<path d="M13.3779 109.934C13.3779 108.006 14.656 106.745 16.36 106.745C17.9221 106.745 18.9161 107.487 19.0581 109.118H17.3541C17.2831 108.525 16.928 108.154 16.36 108.154C15.579 108.154 15.153 108.748 15.153 109.86V109.934C15.153 111.047 15.579 111.64 16.431 111.64C16.999 111.64 17.4251 111.343 17.4961 110.602H19.2001C19.0581 112.159 17.9931 113.049 16.431 113.049C14.372 113.049 13.3779 111.788 13.3779 109.934Z" fill="white"/>
<path d="M20.335 106.819H24.3822V108.154H21.9681V109.193H23.8852V110.454H21.9681V111.566H24.5243V112.901H20.335V106.819Z" fill="white"/>
<path d="M25.7302 106.819H28.0023C29.5643 106.819 30.4164 107.487 30.4164 108.748C30.4164 109.638 29.9903 110.083 29.3513 110.379L30.7714 112.901H28.9963L27.7893 110.676H27.3632V112.901H25.6592V106.819H25.7302ZM28.0023 109.564C28.5703 109.564 28.8543 109.341 28.8543 108.822C28.8543 108.303 28.5703 108.154 28.0023 108.154H27.4342V109.638H28.0023V109.564Z" fill="white"/>
<path d="M32.8299 108.154H31.3389V106.819H36.0961V108.154H34.534V112.901H32.8299V108.154Z" fill="white"/>
<path d="M37.2314 106.819H38.9355V112.975H37.2314V106.819Z" fill="white"/>
<path d="M40.4971 106.819H44.4733V108.154H42.2012V109.489H44.0473V110.75H42.2012V112.901H40.4971V106.819Z" fill="white"/>
<path d="M45.6807 106.819H47.3847V112.975H45.6807V106.819Z" fill="white"/>
<path d="M48.9463 106.819H53.0644V108.154H50.6503V109.193H52.5674V110.454H50.6503V111.566H53.1354V112.901H48.9463V106.819Z" fill="white"/>
<path d="M54.4131 106.819H56.5432C58.6023 106.819 59.6673 107.932 59.6673 109.786V109.86C59.6673 111.789 58.6023 112.901 56.5432 112.901H54.4131V106.819ZM56.4722 111.566C57.4662 111.566 57.8922 111.047 57.8922 109.86V109.786C57.8922 108.599 57.4662 108.154 56.4012 108.154H56.0462V111.566H56.4722Z" fill="white"/>
<path d="M9.25948 120.242H11.2476C12.8096 120.242 13.5907 120.91 13.5907 122.468V122.987C13.5907 124.47 12.7386 125.212 11.2476 125.212H10.4665V128.698H9.18848V120.242H9.25948ZM11.2476 124.173C11.9576 124.173 12.3836 123.803 12.3836 122.913V122.393C12.3836 121.503 11.9576 121.207 11.2476 121.207H10.5375V124.099H11.2476V124.173Z" fill="white"/>
<path d="M15.0114 122.468H16.1475V123.358C16.4315 122.69 16.8575 122.394 17.5675 122.394V123.58C16.6445 123.58 16.1475 123.877 16.1475 124.767V128.549H14.9404V122.468H15.0114Z" fill="white"/>
<path d="M18.7021 126.473V124.619C18.7021 123.135 19.5542 122.319 20.8322 122.319C22.1103 122.319 22.9623 123.061 22.9623 124.545V126.399C22.9623 127.882 22.1103 128.698 20.8322 128.698C19.5542 128.698 18.7021 127.956 18.7021 126.473ZM21.7553 126.473V124.619C21.7553 123.729 21.4713 123.358 20.8322 123.358C20.1932 123.358 19.9092 123.803 19.9092 124.619V126.547C19.9092 127.363 20.1932 127.808 20.8322 127.808C21.4002 127.734 21.7553 127.289 21.7553 126.473Z" fill="white"/>
<path d="M24.6654 123.432H24.0264V122.468H24.6654V121.43C24.6654 120.391 25.2334 119.724 26.2984 119.724C26.5824 119.724 26.7954 119.724 26.8664 119.798V120.762C26.7954 120.762 26.6534 120.688 26.4404 120.688C25.9434 120.688 25.8014 120.91 25.8014 121.43V122.468H26.7954V123.432H25.8014V128.624H24.6654V123.432Z" fill="white"/>
<path d="M27.79 126.473V124.619C27.79 123.135 28.6421 122.394 29.8491 122.394C31.0561 122.394 31.9082 123.061 31.9082 124.619V125.88H28.9971V126.547C28.9971 127.437 29.2811 127.808 29.9201 127.808C30.4881 127.808 30.7721 127.511 30.8431 126.918H31.9082C31.8372 128.179 31.1271 128.772 29.9201 128.772C28.5711 128.698 27.79 127.956 27.79 126.473ZM28.9971 124.916H30.7721V124.545C30.7721 123.655 30.4171 123.284 29.9201 123.284C29.3521 123.284 28.9971 123.655 28.9971 124.619V124.916Z" fill="white"/>
<path d="M33.1846 126.844H34.3206C34.3206 127.511 34.6046 127.808 35.1017 127.808C35.5987 127.808 35.8117 127.585 35.8117 127.066C35.8117 126.547 35.4567 126.325 34.8177 126.028C33.8236 125.509 33.3266 125.064 33.3266 124.025C33.3266 122.987 34.1076 122.394 35.1017 122.394C36.1667 122.394 36.8768 122.913 36.8768 124.174H35.7407C35.7407 123.58 35.4567 123.358 35.0307 123.358C34.6046 123.358 34.3916 123.58 34.3916 124.025C34.3916 124.47 34.6046 124.693 35.3857 125.064C36.3087 125.509 36.9478 125.954 36.9478 127.066C36.9478 128.179 36.3087 128.846 35.1017 128.846C33.8946 128.698 33.1846 128.03 33.1846 126.844Z" fill="white"/>
<path d="M38.1553 126.844H39.2913C39.2913 127.511 39.5753 127.808 40.0723 127.808C40.5693 127.808 40.7823 127.585 40.7823 127.066C40.7823 126.547 40.4273 126.325 39.7883 126.028C38.7943 125.509 38.2973 125.064 38.2973 124.025C38.2973 122.987 39.0783 122.394 40.0723 122.394C41.1373 122.394 41.8473 122.913 41.8473 124.174H40.7113C40.7113 123.58 40.4273 123.358 40.0013 123.358C39.5753 123.358 39.3623 123.58 39.3623 124.025C39.3623 124.47 39.5753 124.693 40.3563 125.064C41.2793 125.509 41.9183 125.954 41.9183 127.066C41.9183 128.179 41.2793 128.846 40.0723 128.846C38.8653 128.698 38.1553 128.03 38.1553 126.844Z" fill="white"/>
<path d="M43.2666 120.911C43.2666 120.54 43.5506 120.169 43.9766 120.169C44.4026 120.169 44.6866 120.466 44.6866 120.911C44.6866 121.356 44.4026 121.652 43.9766 121.652C43.5506 121.652 43.2666 121.356 43.2666 120.911ZM43.4086 122.468H44.6156V128.624H43.4086V122.468Z" fill="white"/>
<path d="M46.1064 126.473V124.619C46.1064 123.135 46.9585 122.319 48.2365 122.319C49.5146 122.319 50.3666 123.061 50.3666 124.545V126.399C50.3666 127.882 49.5146 128.698 48.2365 128.698C46.9585 128.698 46.1064 127.956 46.1064 126.473ZM49.1596 126.473V124.619C49.1596 123.729 48.8755 123.358 48.2365 123.358C47.5975 123.358 47.3135 123.803 47.3135 124.619V126.547C47.3135 127.363 47.5975 127.808 48.2365 127.808C48.8045 127.734 49.1596 127.289 49.1596 126.473Z" fill="white"/>
<path d="M51.8571 122.468H53.0642V123.209C53.2772 122.69 53.7743 122.319 54.4133 122.319C55.2654 122.319 55.8334 122.913 55.8334 124.099V128.549H54.6263V124.174C54.6263 123.58 54.4133 123.284 53.9163 123.284C53.4192 123.284 52.9932 123.654 52.9932 124.248V128.475H51.7861V122.468H51.8571Z" fill="white"/>
<path d="M57.1807 127.067V126.844C57.1807 125.509 57.9617 125.064 59.2397 125.064H59.8787V124.322C59.8787 123.655 59.7367 123.284 59.1687 123.284C58.6717 123.284 58.4587 123.58 58.4587 124.1H57.3227C57.3227 122.913 58.1037 122.319 59.2397 122.319C60.4467 122.319 61.0857 122.913 61.0857 124.248V128.55H59.8787V127.957C59.6657 128.328 59.3817 128.624 58.6717 128.624C57.8197 128.699 57.1807 128.179 57.1807 127.067ZM59.9497 126.918V125.88H59.3107C58.6717 125.88 58.3167 126.102 58.3167 126.844V126.993C58.3167 127.586 58.5297 127.883 59.0267 127.883C59.6657 127.809 59.9497 127.586 59.9497 126.918Z" fill="white"/>
<path d="M62.792 119.797H63.9991V128.623H62.792V119.797Z" fill="white"/>
<path d="M7.62644 131.96C9.5435 131.96 10.4665 132.85 10.4665 134.779V137.523C10.4665 139.377 9.5435 140.341 7.69745 140.341H5.56738V131.96H7.62644ZM6.84542 132.998V139.303H7.62644C8.76248 139.303 9.18849 138.784 9.18849 137.523V134.779C9.18849 133.518 8.83348 132.998 7.62644 132.998H6.84542Z" fill="white"/>
<path d="M11.6748 138.265V136.411C11.6748 134.927 12.5268 134.186 13.7339 134.186C14.9409 134.186 15.7929 134.853 15.7929 136.411V137.672H12.8818V138.339C12.8818 139.229 13.1659 139.6 13.8049 139.6C14.3729 139.6 14.6569 139.303 14.7279 138.71H15.7929C15.7219 139.971 15.0119 140.564 13.8049 140.564C12.4558 140.49 11.6748 139.748 11.6748 138.265ZM12.8108 136.707H14.5859V136.337C14.5859 135.447 14.2309 135.076 13.7339 135.076C13.1659 135.076 12.8108 135.447 12.8108 136.411V136.707Z" fill="white"/>
<path d="M16.4307 134.26H17.7087L18.7027 139.007L19.6967 134.26H20.8327L19.3417 140.416H17.9927L16.4307 134.26Z" fill="white"/>
<path d="M21.4697 138.265V136.411C21.4697 134.927 22.3218 134.186 23.5288 134.186C24.7358 134.186 25.5879 134.853 25.5879 136.411V137.672H22.6768V138.339C22.6768 139.229 22.9608 139.6 23.5998 139.6C24.1678 139.6 24.4518 139.303 24.5228 138.71H25.5879C25.5169 139.971 24.8068 140.564 23.5998 140.564C22.2508 140.49 21.4697 139.748 21.4697 138.265ZM22.6768 136.707H24.4518V136.337C24.4518 135.447 24.0968 135.076 23.5998 135.076C23.0318 135.076 22.6768 135.447 22.6768 136.411V136.707Z" fill="white"/>
<path d="M26.7959 131.516H28.0029V140.342H26.7959V131.516Z" fill="white"/>
<path d="M29.21 138.265V136.411C29.21 134.927 30.062 134.186 31.34 134.186C32.6181 134.186 33.4701 134.927 33.4701 136.411V138.265C33.4701 139.748 32.6181 140.564 31.34 140.564C30.133 140.49 29.21 139.674 29.21 138.265ZM32.3341 138.265V136.411C32.3341 135.521 32.0501 135.15 31.411 135.15C30.772 135.15 30.488 135.595 30.488 136.411V138.339C30.488 139.155 30.772 139.6 31.411 139.6C31.9791 139.526 32.3341 139.081 32.3341 138.265Z" fill="white"/>
<path d="M35.8838 134.259V135.001C36.0968 134.481 36.5938 134.111 37.3039 134.111C38.2979 134.111 39.0079 134.852 39.0079 136.261V138.338C39.0079 139.747 38.2979 140.489 37.2329 140.489C36.5938 140.489 36.0968 140.118 35.8838 139.673V142.417H34.6768V134.185H35.8838V134.259ZM36.8778 139.525C37.4459 139.525 37.8009 139.154 37.8009 138.338V136.261C37.8009 135.446 37.4459 135.075 36.8778 135.075C36.2388 135.075 35.8838 135.52 35.8838 136.336V138.19C35.8838 139.08 36.2388 139.525 36.8778 139.525Z" fill="white"/>
<path d="M40.0713 138.265V136.411C40.0713 134.927 40.9233 134.186 42.1304 134.186C43.3374 134.186 44.1894 134.853 44.1894 136.411V137.672H41.2783V138.339C41.2783 139.229 41.5623 139.6 42.2014 139.6C42.7694 139.6 43.0534 139.303 43.1244 138.71H44.1894C44.1184 139.971 43.4084 140.564 42.2014 140.564C40.8523 140.49 40.0713 139.748 40.0713 138.265ZM41.2073 136.707H42.9824V136.337C42.9824 135.447 42.6274 135.076 42.1304 135.076C41.5623 135.076 41.2073 135.447 41.2073 136.411V136.707Z" fill="white"/>
<path d="M45.3271 134.26H46.5342V135.15C46.8182 134.482 47.2442 134.186 47.9543 134.186V135.372C47.0312 135.372 46.5342 135.669 46.5342 136.559V140.342H45.3271V134.26Z" fill="white"/>
<path d="M51.0056 131.96H52.9936C54.5556 131.96 55.3366 132.628 55.3366 134.185V134.704C55.3366 136.188 54.4846 136.929 52.9936 136.929H52.2126V140.415H50.9346V131.96H51.0056ZM52.9936 135.965C53.7036 135.965 54.1296 135.594 54.1296 134.704V134.185C54.1296 133.295 53.7036 132.998 52.9936 132.998H52.2836V135.891H52.9936V135.965Z" fill="white"/>
<path d="M56.4717 131.516H57.6786V140.342H56.4717V131.516Z" fill="white"/>
<path d="M63.0044 140.415H61.7974V139.674C61.5844 140.193 61.1584 140.564 60.4484 140.564C59.5963 140.564 59.0283 140.044 59.0283 138.783V134.333H60.2354V138.709C60.2354 139.303 60.4484 139.599 60.9454 139.599C61.4424 139.599 61.8684 139.228 61.8684 138.635V134.333H63.0754V140.415H63.0044Z" fill="white"/>
<path d="M64.1416 138.636H65.2776C65.2776 139.303 65.5616 139.6 66.0586 139.6C66.5556 139.6 66.7686 139.377 66.7686 138.858C66.7686 138.339 66.4136 138.117 65.7746 137.82C64.7806 137.301 64.2836 136.856 64.2836 135.817C64.2836 134.779 65.0646 134.186 66.0586 134.186C67.1236 134.186 67.8337 134.705 67.8337 135.966H66.6976C66.6976 135.372 66.4136 135.15 65.9876 135.15C65.5616 135.15 65.3486 135.372 65.3486 135.817C65.3486 136.262 65.5616 136.485 66.3426 136.856C67.2656 137.301 67.9047 137.746 67.9047 138.858C67.9047 139.971 67.2657 140.638 66.0586 140.638C64.8516 140.49 64.1416 139.822 64.1416 138.636Z" fill="white"/>
</svg>
