<svg width="76" height="149" viewBox="0 0 76 149" fill="none" xmlns="http://www.w3.org/2000/svg">
<path d="M75.0496 22.081L38.284 0.919031C38.1083 0.814954 37.8075 0.814954 37.6198 0.919031L0.866211 22.081V119.791H75.0496V22.081Z" fill="#C6C6C6"/>
<path d="M0.866211 119.791H75.0496V148.661H0.866211V119.791Z" fill="#717071"/>
<path d="M16.9942 85.8546H20.1149V96.6702H18.0972V89.3553C18.0972 89.1459 18.0972 88.8455 18.1098 88.4666C18.1098 88.0883 18.1223 87.801 18.1223 87.5916L16.1423 96.6702H14.0373L12.0823 87.5916C12.0823 87.801 12.0823 88.0883 12.0949 88.4666C12.0949 88.8449 12.1074 89.1459 12.1074 89.3553V96.6702H10.0771V85.8546H13.2344L15.1265 94.3586L16.9942 85.8546ZM24.7889 91.8109C25.1643 91.7591 25.4274 91.7068 25.5906 91.6283C25.8787 91.498 26.0288 91.3023 26.0288 91.0406C26.0288 90.7146 25.9164 90.4921 25.703 90.3612C25.4776 90.231 25.1518 90.1786 24.7255 90.1786C24.2496 90.1786 23.9112 90.2958 23.711 90.5438C23.5735 90.7271 23.473 90.9751 23.4228 91.2755H21.493C21.53 90.5706 21.7183 89.9954 22.0561 89.5517C22.5828 88.8455 23.4975 88.4934 24.8008 88.4934C25.6402 88.4934 26.3923 88.6629 27.0439 89.0163C27.6956 89.3684 28.0214 90.0216 28.0214 90.9757V94.6466C28.0214 94.8946 28.0214 95.2081 28.034 95.5739C28.0465 95.8482 28.0842 96.0308 28.1595 96.1355C28.2217 96.2265 28.3221 96.3187 28.4602 96.3835V96.697H26.2805C26.2177 96.54 26.1801 96.3835 26.1549 96.2396C26.1298 96.0962 26.1179 95.9398 26.1047 95.7566C25.8291 96.0707 25.5033 96.3318 25.1398 96.5537C24.7016 96.8148 24.2126 96.9457 23.6739 96.9457C22.972 96.9457 22.3957 96.7363 21.9443 96.3318C21.4936 95.9136 21.2556 95.339 21.2556 94.5811C21.2556 93.6014 21.6185 92.8822 22.3586 92.4515C22.7592 92.2166 23.3481 92.0471 24.1253 91.9424L24.7889 91.8109ZM26.0168 92.7781C25.8913 92.8567 25.7538 92.9346 25.6288 92.9738C25.5033 93.0256 25.3156 93.0779 25.0902 93.1172L24.6388 93.2082C24.2125 93.2867 23.8999 93.3777 23.7116 93.4961C23.3983 93.6918 23.2351 93.9791 23.2351 94.3842C23.2351 94.7363 23.3355 94.9981 23.5232 95.1545C23.711 95.3116 23.9495 95.3901 24.2251 95.3901C24.6633 95.3901 25.0645 95.2592 25.4405 94.9981C25.8034 94.7363 26.0043 94.2533 26.0168 93.5478V92.7781ZM33.3596 88.6629C33.8486 88.8723 34.2372 89.2637 34.5379 89.8253V88.676H36.4928V96.2657C36.4928 97.2972 36.3302 98.0812 35.9918 98.6041C35.4281 99.4922 34.3251 99.9366 32.6959 99.9366C31.7185 99.9366 30.9162 99.7409 30.3022 99.3358C29.6888 98.9307 29.3379 98.3299 29.2745 97.5328H31.4548C31.505 97.7808 31.6055 97.9503 31.7304 98.055C31.9433 98.2507 32.3073 98.3423 32.8209 98.3423C33.5473 98.3423 34.0238 98.0943 34.2743 97.5851C34.4369 97.2585 34.5122 96.7226 34.5122 95.9516V95.4431C34.3245 95.7827 34.111 96.0432 33.8982 96.2134C33.4971 96.5269 32.9835 96.6964 32.3444 96.6964C31.3544 96.6964 30.5778 96.3305 29.9889 95.612C29.4 94.894 29.1113 93.9137 29.1113 92.6859C29.1113 91.498 29.3994 90.5046 29.9638 89.695C30.5276 88.8848 31.3293 88.4803 32.3695 88.4803C32.733 88.4803 33.072 88.5458 33.3596 88.6629ZM34.0369 94.3973C34.3627 94.0321 34.5248 93.4444 34.5248 92.6342C34.5248 91.8763 34.3747 91.3017 34.0614 90.8966C33.7488 90.4921 33.3476 90.3089 32.8334 90.3089C32.1316 90.3089 31.6431 90.6485 31.3795 91.341C31.242 91.7068 31.1667 92.1636 31.1667 92.6996C31.1667 93.1701 31.242 93.5746 31.3926 93.9405C31.6682 94.6198 32.1441 94.9463 32.846 94.9463C33.3225 94.9594 33.723 94.7637 34.0369 94.3973ZM43.1594 88.8324C43.6981 89.0805 44.1369 89.4719 44.4878 90.0209C44.8005 90.4915 45.0013 91.053 45.1018 91.68C45.152 92.0458 45.1765 92.5812 45.164 93.2605H39.5747C39.5998 94.057 39.8755 94.6191 40.377 94.9457C40.6778 95.1414 41.0538 95.2461 41.4801 95.2461C41.9308 95.2461 42.3069 95.1283 42.595 94.8797C42.7451 94.7494 42.8832 94.5668 43.0081 94.3312H45.051C45.0008 94.8018 44.7503 95.2848 44.3114 95.7815C43.6227 96.5649 42.6572 96.9438 41.4298 96.9438C40.4147 96.9438 39.5125 96.6172 38.7234 95.9641C37.9342 95.3109 37.5582 94.2396 37.5582 92.7638C37.5582 91.3783 37.9091 90.3207 38.611 89.576C39.3129 88.8318 40.227 88.466 41.3551 88.466C42.0313 88.4672 42.6327 88.5844 43.1594 88.8324ZM40.1642 90.6485C39.876 90.9489 39.7009 91.3671 39.6255 91.89H43.0841C43.047 91.3409 42.8712 90.9103 42.5454 90.623C42.2196 90.3351 41.8316 90.1917 41.3551 90.1917C40.841 90.1911 40.4398 90.3351 40.1642 90.6485ZM52.1563 89.1328C52.6573 89.5641 52.9078 90.2833 52.9078 91.2886V96.6708H50.8656V91.8109C50.8656 91.3933 50.8154 91.0667 50.703 90.8442C50.5021 90.4398 50.1392 90.231 49.588 90.231C48.9106 90.231 48.4473 90.5308 48.1968 91.1315C48.0713 91.4457 47.9965 91.8501 47.9965 92.3462V96.6702H45.9914V88.6885H47.9332V89.8508C48.1843 89.4463 48.4348 89.1453 48.6601 88.9627C49.0739 88.6361 49.588 88.4797 50.2265 88.4797C51.0157 88.4803 51.6554 88.7016 52.1563 89.1328ZM53.7855 90.2434V88.7539H54.8502V86.5203H56.8303V88.7539H58.0708V90.2434H56.8303V94.4633C56.8303 94.7893 56.8679 94.9987 56.9558 95.0766C57.0312 95.1551 57.2816 95.1944 57.6828 95.1944H57.8705C57.9327 95.1944 58.008 95.1944 58.0708 95.1813V96.7494L57.1184 96.788C56.1661 96.8266 55.527 96.6577 55.176 96.2788C54.9507 96.0432 54.8383 95.6649 54.8383 95.1682V90.2441H53.7855V90.2434ZM65.5642 95.6905C64.9125 96.5269 63.935 96.9451 62.6192 96.9451C61.3039 96.9451 60.3139 96.5269 59.6748 95.6905C59.0357 94.8547 58.7099 93.8488 58.7099 92.6859C58.7099 91.5366 59.0357 90.5308 59.6748 89.695C60.3133 88.8586 61.3039 88.428 62.6192 88.428C63.935 88.428 64.9251 88.8455 65.5642 89.695C66.2033 90.5432 66.5291 91.5366 66.5291 92.6859C66.5417 93.8619 66.2158 94.8554 65.5642 95.6905ZM63.9608 94.5413C64.2734 94.1106 64.4372 93.4836 64.4372 92.6859C64.4372 91.89 64.274 91.2749 63.9608 90.8312C63.6475 90.3999 63.1967 90.178 62.6073 90.178C62.0178 90.178 61.567 90.3993 61.2537 90.8312C60.9404 91.2618 60.7772 91.8763 60.7772 92.6859C60.7772 93.4967 60.9398 94.11 61.2537 94.5413C61.5664 94.9719 62.0178 95.195 62.6073 95.195C63.1967 95.195 63.6469 94.9719 63.9608 94.5413Z" fill="#444444"/>
<path d="M24.8263 104.744H23.7364C23.7239 104.182 23.5738 103.75 23.2599 103.425C22.9592 103.098 22.4708 102.942 21.806 102.942C20.9917 102.942 20.2773 103.241 19.6514 103.842C19.0242 104.444 18.5986 105.358 18.3475 106.586C18.1472 107.591 18.1974 108.414 18.5232 109.041C18.8491 109.668 19.463 109.982 20.3532 109.982C21.1801 109.982 21.8694 109.656 22.4457 108.989C22.7464 108.637 23.0095 108.179 23.2348 107.617H24.3247C24.0491 108.518 23.5732 109.289 22.8965 109.904C22.0822 110.648 21.1167 111.014 20.0143 111.014C19.0493 111.014 18.3098 110.713 17.7843 110.099C17.095 109.302 16.9198 108.061 17.2576 106.389C17.5207 105.122 18.0468 104.076 18.8616 103.267C19.7393 102.378 20.7921 101.934 22.0194 101.934C23.0722 101.934 23.8243 102.222 24.2876 102.797C24.751 103.372 24.9136 104.012 24.8263 104.744ZM30.4897 105.475C30.6278 105.788 30.6905 106.167 30.6654 106.586C30.6654 106.873 30.6026 107.343 30.4777 107.97H26.0543C25.9419 108.61 25.9795 109.12 26.1798 109.499C26.3675 109.891 26.7561 110.073 27.3199 110.073C27.8466 110.073 28.3099 109.891 28.6985 109.525C28.9239 109.316 29.0997 109.068 29.2372 108.793H30.2398C30.1644 109.029 30.0269 109.276 29.8267 109.564C29.6258 109.851 29.4135 110.073 29.1876 110.256C28.8115 110.569 28.3984 110.779 27.9094 110.895C27.6463 110.961 27.3707 110.987 27.0569 110.987C26.3054 110.987 25.7284 110.699 25.3273 110.138C24.9267 109.576 24.8263 108.766 25.0397 107.747C25.24 106.741 25.6788 105.918 26.3305 105.292C26.9821 104.664 27.7342 104.351 28.5855 104.351C29.0118 104.351 29.4129 104.455 29.7633 104.664C30.1017 104.874 30.3522 105.148 30.4897 105.475ZM29.6126 107.134C29.6628 106.677 29.6497 106.311 29.5504 106.036C29.3747 105.527 28.9616 105.279 28.3219 105.279C27.8586 105.279 27.4323 105.448 27.0437 105.802C26.6551 106.155 26.392 106.598 26.2665 107.134H29.6126ZM32.3071 104.495H33.2714L33.046 105.579C33.171 105.37 33.4089 105.108 33.785 104.808C34.1485 104.508 34.5371 104.352 34.9382 104.352H35.0386C35.0883 104.352 35.1636 104.365 35.264 104.377L35.0386 105.488C34.9759 105.475 34.9256 105.475 34.876 105.462H34.7128C34.1993 105.462 33.7736 105.631 33.4346 105.971C33.0969 106.311 32.8709 106.703 32.783 107.16L32.056 110.779H31.0415L32.3071 104.495ZM36.5171 102.745H37.5448L37.1819 104.496H38.1468L37.9711 105.358H37.0061L36.1668 109.46C36.1165 109.681 36.1668 109.825 36.2923 109.904C36.3677 109.943 36.4926 109.969 36.6803 109.969H36.8429C36.8932 109.969 36.9685 109.956 37.0438 109.956L36.8812 110.792C36.7556 110.831 36.6301 110.857 36.5051 110.871C36.3796 110.884 36.2421 110.896 36.092 110.896C35.6156 110.896 35.3274 110.766 35.2025 110.518C35.0769 110.27 35.0649 109.944 35.1522 109.538L36.0042 105.385H35.1899L35.3657 104.522H36.1799L36.5171 102.745ZM38.9862 104.521H40.0139L38.7483 110.779H37.7206L38.9862 104.521ZM39.4752 102.157H40.5029L40.2518 103.358H39.2241L39.4752 102.157ZM42.257 102.574C42.5697 102.209 43.0587 102.039 43.7355 102.039H43.9363C43.9985 102.039 44.0738 102.052 44.1617 102.052L43.9609 103.019C43.861 103.006 43.7857 103.006 43.7355 103.006H43.598C43.2853 103.006 43.0844 103.085 42.9965 103.254C42.9092 103.424 42.7837 103.841 42.6456 104.521H43.6482L43.4856 105.357H42.4704L41.368 110.779H40.3648L41.4678 105.357H40.6285L40.7911 104.521H41.6305L41.8313 103.541C41.9431 103.097 42.0932 102.784 42.257 102.574ZM44.4248 104.521H45.4525L44.1868 110.779H43.1591L44.4248 104.521ZM44.9132 102.157H45.9409L45.6898 103.358H44.6621L44.9132 102.157ZM51.3041 105.475C51.4417 105.788 51.5044 106.167 51.4793 106.586C51.4793 106.873 51.4171 107.343 51.2916 107.97H46.8687C46.7564 108.61 46.7934 109.12 46.9943 109.499C47.1814 109.891 47.5706 110.073 48.1344 110.073C48.6605 110.073 49.1238 109.891 49.513 109.525C49.7384 109.316 49.9142 109.068 50.0517 108.793H51.0542C50.9789 109.029 50.8414 109.276 50.6405 109.564C50.4403 109.851 50.2274 110.073 50.0021 110.256C49.626 110.569 49.2129 110.779 48.7233 110.895C48.4608 110.961 48.1852 110.987 47.8713 110.987C47.1192 110.987 46.5429 110.699 46.1418 110.138C45.7406 109.576 45.6408 108.766 45.8542 107.747C46.0545 106.741 46.4927 105.918 47.1444 105.292C47.796 104.664 48.5481 104.351 49.4 104.351C49.8257 104.351 50.2268 104.455 50.5778 104.664C50.9156 104.874 51.166 105.148 51.3041 105.475ZM50.4271 107.134C50.4767 106.677 50.4642 106.311 50.3643 106.036C50.1892 105.527 49.7761 105.279 49.1364 105.279C48.673 105.279 48.2468 105.448 47.8582 105.802C47.4696 106.154 47.2065 106.598 47.081 107.134H50.4271ZM56.3792 104.692C56.5419 104.809 56.7051 105.017 56.8677 105.305L57.5193 102.13H58.4968L56.717 110.779H55.8023L55.9781 109.904C55.6648 110.295 55.3264 110.569 54.9629 110.739C54.6001 110.909 54.2115 111.001 53.7978 111.001C53.121 111.001 52.6074 110.7 52.2314 110.112C51.8554 109.525 51.7806 108.741 51.9809 107.762C52.1686 106.847 52.5447 106.05 53.1341 105.384C53.7224 104.718 54.4243 104.378 55.2637 104.378C55.7402 104.377 56.103 104.482 56.3792 104.692ZM54.3238 110.086C54.7872 110.086 55.226 109.877 55.602 109.459C55.99 109.041 56.2663 108.44 56.4289 107.643C56.5921 106.847 56.5544 106.258 56.3165 105.879C56.0791 105.501 55.7402 105.305 55.2768 105.305C54.7633 105.305 54.3119 105.514 53.9108 105.919C53.5102 106.323 53.234 106.925 53.0714 107.709C52.9339 108.388 52.959 108.949 53.1341 109.393C53.3219 109.851 53.7099 110.086 54.3238 110.086Z" fill="#444444"/>
<path d="M9.96386 125.617H12.8712C13.8612 125.617 14.5505 125.983 14.9511 126.714C15.302 127.38 15.3767 128.217 15.1639 129.248C15.0013 130.045 14.7125 130.763 14.2863 131.403C13.5473 132.54 12.5699 133.101 11.3293 133.101H8.43457L9.96386 125.617ZM11.3299 132.252C11.6558 132.252 11.9314 132.213 12.1568 132.148C12.5579 132.017 12.9214 131.756 13.2472 131.377C13.4977 131.077 13.7231 130.685 13.8989 130.215C14.0113 129.927 14.0866 129.667 14.1368 129.431C14.3245 128.504 14.2994 127.785 14.0489 127.276C13.7984 126.766 13.2849 126.505 12.4951 126.505H10.7656L9.60037 132.253H11.3299V132.252ZM17.1069 125.617H22.3452L22.1575 126.532H17.8596L17.3963 128.804H21.3689L21.1938 129.667H17.2336L16.7201 132.213H21.0808L20.9056 133.101H15.58L17.1069 125.617ZM24.1112 125.617L24.8759 132.005L28.2214 125.617H29.3119L25.164 133.114H24.1363L23.0465 125.617H24.1112ZM30.177 125.617H35.4147L35.2269 126.532H30.9416L30.4783 128.804H34.4509L34.2752 129.667H30.3025L29.7889 132.213H34.1502L33.9745 133.101H28.6614L30.177 125.617ZM36.6175 125.617H37.595L36.254 132.213H39.9009L39.7132 133.114H35.102L36.6175 125.617ZM47.7452 126.689C48.0836 127.354 48.1589 128.204 47.9461 129.235C47.7207 130.359 47.2567 131.286 46.5549 132.03C45.7406 132.905 44.738 133.336 43.5477 133.336C42.4447 133.336 41.6555 132.958 41.1797 132.187C40.766 131.456 40.6781 130.528 40.9035 129.405C41.1043 128.386 41.53 127.524 42.1571 126.806C42.9714 125.878 43.974 125.421 45.1894 125.421C46.4544 125.421 47.3064 125.839 47.7452 126.689ZM46.9435 129.248C47.1186 128.373 47.0433 127.654 46.7175 127.119C46.3917 126.584 45.8405 126.31 45.0764 126.31C44.3369 126.31 43.6727 126.57 43.0963 127.105C42.5194 127.641 42.1183 128.425 41.9054 129.457C41.7303 130.293 41.793 130.985 42.0812 131.56C42.3694 132.134 42.9583 132.408 43.873 132.408C44.7255 132.408 45.4142 132.082 45.9283 131.441C46.4293 130.829 46.7677 130.084 46.9435 129.248ZM49.788 125.617H53.0206C53.6596 125.617 54.1361 125.8 54.4494 126.178C54.7627 126.557 54.8506 127.08 54.7125 127.759C54.6001 128.347 54.3113 128.856 53.8731 129.287C53.4349 129.718 52.8579 129.94 52.131 129.94H49.8759L49.2368 133.114H48.2593L49.788 125.617ZM53.3715 126.649C53.1712 126.545 52.8956 126.492 52.5196 126.492H50.5772L50.0511 129.078H51.9929C52.4317 129.078 52.8077 128.987 53.121 128.791C53.4343 128.595 53.6345 128.256 53.735 127.772C53.848 127.224 53.7224 126.858 53.3715 126.649ZM56.329 125.617H61.5667L61.379 126.532H57.0811L56.6178 128.804H60.5904L60.4153 129.667H56.4426L55.9291 132.213H60.2897L60.1146 133.101H54.8009L56.329 125.617ZM62.8826 125.617H66.2156C66.7674 125.617 67.1936 125.695 67.5195 125.865C68.1329 126.178 68.3463 126.78 68.1711 127.641C68.0832 128.086 67.92 128.451 67.6821 128.739C67.4447 129.027 67.144 129.248 66.7931 129.431C67.0555 129.548 67.2313 129.705 67.3317 129.902C67.4316 130.097 67.4441 130.411 67.3814 130.842L67.2062 131.848C67.156 132.135 67.144 132.344 67.144 132.488C67.1566 132.723 67.2313 132.88 67.3694 132.944L67.3324 133.114H66.1414C66.1169 133.048 66.1169 132.971 66.1169 132.866C66.1169 132.761 66.1414 132.565 66.1917 132.278L66.3925 131.024C66.4679 130.528 66.3555 130.202 66.0667 130.045C65.8909 129.954 65.6153 129.902 65.2142 129.902H62.9962L62.3445 133.114H61.3671L62.8826 125.617ZM65.4138 129.052C65.8646 129.052 66.2532 128.961 66.554 128.765C66.8547 128.569 67.0675 128.23 67.1673 127.734C67.2803 127.198 67.1673 126.832 66.8296 126.65C66.6538 126.545 66.3913 126.493 66.0655 126.493H63.6849L63.1713 129.052H65.4138Z" fill="white"/>
<path d="M27.1931 135.414H30.4263C31.0654 135.414 31.5412 135.597 31.8551 135.976C32.1678 136.354 32.2563 136.877 32.1182 137.556C32.0052 138.144 31.717 138.654 31.2788 139.084C30.84 139.515 30.2637 139.738 29.5367 139.738H27.2816L26.6425 142.912H25.665L27.1931 135.414ZM30.7772 136.446C30.5769 136.342 30.3007 136.289 29.9253 136.289H27.9829L27.4562 138.876H29.3986C29.8368 138.876 30.2128 138.785 30.5267 138.588C30.8394 138.393 31.0403 138.053 31.1401 137.569C31.2405 137.021 31.1281 136.655 30.7772 136.446ZM33.6343 135.414H34.6118L33.2708 142.011H36.9176L36.7425 142.9H32.1307L33.6343 135.414ZM40.1125 135.414L39.1727 140.051C39.0603 140.6 39.0729 141.044 39.1853 141.41C39.3604 141.959 39.7992 142.22 40.4886 142.22C41.316 142.22 41.9293 141.92 42.3556 141.332C42.581 141.018 42.7436 140.587 42.8572 140.038L43.7964 135.402H44.7864L43.922 139.608C43.7342 140.535 43.4706 141.241 43.1328 141.737C42.5063 142.638 41.5916 143.096 40.3762 143.096C39.1607 143.096 38.4338 142.639 38.1833 141.737C38.0458 141.241 38.0709 140.535 38.2586 139.608L39.1231 135.402H40.1125V135.414ZM45.7388 140.495C45.6766 140.927 45.7017 141.266 45.8141 141.527C46.0395 142.024 46.5531 142.272 47.3679 142.272C47.7314 142.272 48.0823 142.22 48.3956 142.115C49.0228 141.906 49.3856 141.527 49.4986 140.978C49.5865 140.574 49.5237 140.273 49.3109 140.103C49.0981 139.934 48.7472 139.79 48.233 139.66L47.3057 139.424C46.7043 139.281 46.2912 139.111 46.0527 138.928C45.6641 138.614 45.526 138.144 45.6515 137.53C45.789 136.851 46.128 136.302 46.6541 135.871C47.1928 135.44 47.8695 135.218 48.6844 135.218C49.4365 135.218 50.0379 135.414 50.4893 135.793C50.9406 136.171 51.0781 136.773 50.9024 137.609H49.9877C50.0254 137.204 49.9751 136.903 49.8627 136.681C49.6499 136.289 49.1734 136.094 48.4715 136.094C47.8952 136.094 47.457 136.224 47.1563 136.472C46.855 136.72 46.6673 137.021 46.6045 137.347C46.5292 137.713 46.6171 137.987 46.8801 138.157C47.0559 138.262 47.457 138.405 48.1087 138.562L49.0736 138.797C49.5369 138.915 49.8753 139.071 50.1013 139.268C50.4893 139.62 50.6148 140.13 50.4767 140.796C50.3015 141.632 49.9004 142.22 49.2487 142.572C48.5971 142.925 47.8827 143.108 47.1186 143.108C46.229 143.108 45.5774 142.873 45.1637 142.389C44.7506 141.919 44.637 141.279 44.8128 140.47H45.74V140.495H45.7388Z" fill="white"/>
<path d="M37.9966 11.1096L9.88965 28.0123V61.7668L17.9223 66.5998L17.8589 32.8329L37.9464 20.7625L58.0339 32.8329V66.5868L66.0534 61.7668V27.9862L37.9966 11.1096Z" fill="#EF6229"/>
<path d="M42.1064 66.4174L38.0967 68.8468L34.0738 66.4436V32.6623L26.0537 37.4954L26.0669 71.2505L38.0967 78.4874L50.139 71.2505V37.4954L42.1064 32.6623V66.4174Z" fill="#EF6229"/>
</svg>
