<svg width="75" height="149" viewBox="0 0 75 149" fill="none" xmlns="http://www.w3.org/2000/svg">
<path d="M74.1829 22.081L37.4676 0.919031C37.2924 0.814954 36.9917 0.814954 36.8034 0.919031L0.0498047 22.081V119.791H74.2331V22.081H74.1829Z" fill="#F1F1F1"/>
<path d="M0.0498047 119.791H74.2332V148.661H0.0498047V119.791Z" fill="#717071"/>
<path d="M16.1784 85.8551H19.2985V96.6707H17.2808V89.3558C17.2808 89.1464 17.2808 88.846 17.2934 88.4671C17.2934 88.0888 17.3059 87.8015 17.3059 87.5921L15.3259 96.6707H13.2209L11.2659 87.5921C11.2659 87.8015 11.2659 88.0888 11.2785 88.4671C11.2785 88.8454 11.291 89.1464 11.291 89.3558V96.6707H9.26074V85.8551H12.4185L14.3107 94.3591L16.1784 85.8551ZM23.9731 91.8114C24.3491 91.7596 24.6122 91.7073 24.7748 91.6287C25.0629 91.4985 25.2136 91.3028 25.2136 91.041C25.2136 90.7151 25.1006 90.4926 24.8878 90.3617C24.6624 90.2315 24.3366 90.1791 23.9103 90.1791C23.4344 90.1791 23.096 90.2963 22.8952 90.5443C22.7577 90.7276 22.6572 90.9756 22.607 91.276H20.6772C20.7148 90.5711 20.9025 89.9959 21.2409 89.5521C21.767 88.846 22.6817 88.4939 23.985 88.4939C24.8244 88.4939 25.5765 88.6634 26.2281 89.0168C26.8798 89.3689 27.2056 90.0221 27.2056 90.9762V94.6471C27.2056 94.8951 27.2056 95.2086 27.2182 95.5744C27.2307 95.8487 27.2684 96.0313 27.3431 96.136C27.4059 96.227 27.5057 96.3192 27.6438 96.384V96.6975H25.4635C25.4013 96.5404 25.3636 96.384 25.3385 96.24C25.3134 96.0967 25.3009 95.9403 25.2883 95.757C25.0127 96.0711 24.6869 96.3323 24.3234 96.5541C23.8846 96.8153 23.3962 96.9462 22.8569 96.9462C22.1556 96.9462 21.5787 96.7368 21.1279 96.3323C20.6766 95.9141 20.4386 95.3395 20.4386 94.5816C20.4386 93.6019 20.8021 92.8827 21.5416 92.452C21.9428 92.2171 22.5317 92.0476 23.3089 91.9429L23.9731 91.8114ZM25.201 92.7786C25.0755 92.8571 24.938 92.935 24.8124 92.9743C24.6875 93.026 24.4992 93.0784 24.2738 93.1177L23.823 93.2086C23.3967 93.2872 23.0835 93.3782 22.8957 93.4966C22.5825 93.6923 22.4199 93.9796 22.4199 94.3847C22.4199 94.7368 22.5197 94.9986 22.708 95.155C22.8958 95.3121 23.1343 95.3906 23.4099 95.3906C23.8481 95.3906 24.2493 95.2597 24.6253 94.9986C25.0014 94.7368 25.1891 94.2538 25.2016 93.5483V92.7786H25.201ZM32.5437 88.6634C33.0322 88.8728 33.4208 89.2642 33.7215 89.8257V88.6765H35.6764V96.2662C35.6764 97.2977 35.5138 98.0817 35.1755 98.6046C34.6117 99.4927 33.5087 99.9371 31.8795 99.9371C30.9021 99.9371 30.1004 99.7414 29.4864 99.3363C28.8724 98.9312 28.5215 98.3304 28.4587 97.5332H30.639C30.6886 97.7813 30.7891 97.9508 30.9146 98.0555C31.1275 98.2512 31.4909 98.3428 32.0051 98.3428C32.7321 98.3428 33.2079 98.0948 33.4584 97.5856C33.6211 97.259 33.6964 96.7231 33.6964 95.9521V95.4436C33.5087 95.7832 33.2952 96.0437 33.0824 96.2139C32.6812 96.5274 32.1677 96.6969 31.5286 96.6969C30.5386 96.6969 29.7614 96.331 29.1725 95.6124C28.5836 94.8945 28.2955 93.9141 28.2955 92.6864C28.2955 91.4985 28.5836 90.5051 29.1474 89.6955C29.7112 88.8853 30.5135 88.4808 31.5531 88.4808C31.9172 88.4808 32.2556 88.5462 32.5437 88.6634ZM33.2205 94.3978C33.5463 94.0326 33.7089 93.4448 33.7089 92.6346C33.7089 91.8768 33.5589 91.3022 33.2456 90.8971C32.9323 90.4926 32.5312 90.3094 32.0176 90.3094C31.3158 90.3094 30.8273 90.649 30.5637 91.3414C30.4262 91.7073 30.3509 92.1641 30.3509 92.7001C30.3509 93.1706 30.4256 93.5751 30.5762 93.9409C30.8518 94.6203 31.3283 94.9468 32.0302 94.9468C32.5061 94.9599 32.9072 94.7642 33.2205 94.3978ZM42.343 88.8329C42.8817 89.081 43.3205 89.4724 43.6714 90.0214C43.9847 90.492 44.1849 91.0535 44.2854 91.6805C44.3356 92.0463 44.3607 92.5817 44.3482 93.261H38.7589C38.784 94.0575 39.0596 94.6196 39.5612 94.9462C39.8619 95.1419 40.238 95.2466 40.6636 95.2466C41.115 95.2466 41.4905 95.1288 41.7792 94.8802C41.9293 94.7499 42.0674 94.5673 42.1923 94.3317H44.2352C44.1855 94.8022 43.9345 95.2852 43.4962 95.782C42.8069 96.5654 41.842 96.9443 40.614 96.9443C39.5989 96.9443 38.6967 96.6177 37.9076 95.9646C37.131 95.3114 36.7424 94.2401 36.7424 92.7643C36.7424 91.3788 37.0933 90.3212 37.7952 89.5764C38.4971 88.8323 39.4118 88.4665 40.5393 88.4665C41.2155 88.4677 41.8169 88.5849 42.343 88.8329ZM39.3484 90.649C39.0602 90.9494 38.8851 91.3676 38.8097 91.8905H42.2683C42.2306 91.3414 42.0554 90.9108 41.7296 90.6235C41.4038 90.3355 41.0152 90.1922 40.5393 90.1922C40.0252 90.1916 39.624 90.3355 39.3484 90.649ZM51.3405 89.1333C51.8415 89.5646 52.092 90.2838 52.092 91.2891V96.6713H50.0492V91.8114C50.0492 91.3938 49.999 91.0672 49.8866 90.8447C49.6863 90.4402 49.3228 90.2315 48.7716 90.2315C48.0948 90.2315 47.6309 90.5312 47.3804 91.132C47.2555 91.4461 47.1801 91.8506 47.1801 92.3467V96.6707H45.175V88.689H47.1174V89.8513C47.3679 89.4468 47.6184 89.1458 47.8443 88.9632C48.2581 88.6366 48.7716 88.4802 49.4107 88.4802C50.1999 88.4808 50.8389 88.7021 51.3405 89.1333ZM52.9691 90.2439V88.7544H54.0344V86.5207H56.0145V88.7544H57.255V90.2439H56.0145V94.4638C56.0145 94.7898 56.0521 94.9992 56.14 95.0771C56.2148 95.1556 56.4658 95.1949 56.8664 95.1949H57.0541C57.1169 95.1949 57.1916 95.1949 57.2544 95.1818V96.7499L56.302 96.7885C55.3497 96.8271 54.7106 96.6582 54.3596 96.2793C54.1343 96.0437 54.0213 95.6654 54.0213 95.1687V90.2446H52.9691V90.2439ZM64.7484 95.691C64.0967 96.5274 63.1192 96.9455 61.804 96.9455C60.4881 96.9455 59.4981 96.5274 58.859 95.691C58.2199 94.8552 57.8941 93.8493 57.8941 92.6864C57.8941 91.5371 58.2199 90.5312 58.859 89.6955C59.4981 88.8591 60.4881 88.4285 61.804 88.4285C63.1198 88.4285 64.1093 88.846 64.7484 89.6955C65.3875 90.5437 65.7133 91.5371 65.7133 92.6864C65.7258 93.8624 65.4 94.8558 64.7484 95.691ZM63.1444 94.5417C63.4576 94.1111 63.6202 93.4841 63.6202 92.6864C63.6202 91.8905 63.4576 91.2754 63.1444 90.8316C62.8311 90.4004 62.3797 90.1785 61.7908 90.1785C61.202 90.1785 60.7512 90.3997 60.4373 90.8316C60.1241 91.2623 59.9614 91.8768 59.9614 92.6864C59.9614 93.4972 60.1241 94.1105 60.4373 94.5417C60.7506 94.9724 61.202 95.1955 61.7908 95.1955C62.3803 95.1949 62.8317 94.9724 63.1444 94.5417Z" fill="#444444"/>
<path d="M24.0078 104.744H22.9179C22.9053 104.182 22.7553 103.75 22.442 103.425C22.1413 103.098 21.6523 102.942 20.988 102.942C20.1738 102.942 19.4594 103.241 18.8328 103.842C18.2063 104.444 17.78 105.358 17.5295 106.586C17.3292 107.591 17.3795 108.414 17.7047 109.041C18.0305 109.668 18.6445 109.982 19.5347 109.982C20.3615 109.982 21.0508 109.656 21.6271 108.989C21.9279 108.637 22.1909 108.179 22.4169 107.617H23.5074C23.2318 108.518 22.7553 109.289 22.0785 109.904C21.2643 110.648 20.2987 111.014 19.1963 111.014C18.2314 111.014 17.4919 110.713 16.9658 110.099C16.2765 109.302 16.1013 108.061 16.4397 106.389C16.7027 105.122 17.2288 104.076 18.0437 103.267C18.9207 102.378 19.9735 101.934 21.2015 101.934C22.2543 101.934 23.0058 102.222 23.4697 102.797C23.933 103.372 24.0956 104.012 24.0078 104.744ZM29.6717 105.475C29.8098 105.788 29.872 106.167 29.8469 106.586C29.8469 106.873 29.7847 107.343 29.6592 107.97H25.2357C25.1233 108.61 25.161 109.12 25.3613 109.499C25.549 109.891 25.9376 110.073 26.5014 110.073C27.0275 110.073 27.4914 109.891 27.88 109.525C28.1054 109.316 28.2805 109.068 28.4186 108.793H29.4212C29.3459 109.029 29.2084 109.276 29.0075 109.564C28.8072 109.851 28.5944 110.073 28.3684 110.256C27.9924 110.569 27.5793 110.779 27.0902 110.895C26.8272 110.961 26.5516 110.987 26.2383 110.987C25.4862 110.987 24.9099 110.699 24.5088 110.138C24.1076 109.576 24.0072 108.766 24.2206 107.747C24.4209 106.741 24.8597 105.918 25.5113 105.292C26.163 104.664 26.9151 104.351 27.7664 104.351C28.1927 104.351 28.5938 104.455 28.9447 104.664C29.2837 104.874 29.5342 105.148 29.6717 105.475ZM28.7947 107.134C28.8449 106.677 28.8323 106.311 28.7325 106.036C28.5573 105.527 28.1436 105.279 27.5045 105.279C27.0412 105.279 26.615 105.448 26.2264 105.802C25.8384 106.154 25.5747 106.598 25.4497 107.134H28.7947ZM31.4892 104.495H32.4541L32.2287 105.579C32.3542 105.37 32.5922 105.108 32.9682 104.808C33.3317 104.508 33.7203 104.352 34.1209 104.352H34.2213C34.2715 104.352 34.3463 104.365 34.4467 104.377L34.2213 105.488C34.1585 105.475 34.1089 105.475 34.0587 105.462H33.8961C33.3825 105.462 32.9563 105.631 32.6179 105.971C32.2795 106.311 32.0541 106.703 31.9662 107.16L31.2393 110.779H30.2241L31.4892 104.495ZM35.6992 102.745H36.7269L36.3634 104.496H37.3283L37.1531 105.358H36.1882L35.3488 109.46C35.2992 109.681 35.3488 109.825 35.4738 109.904C35.5491 109.943 35.6741 109.969 35.8624 109.969H36.025C36.0752 109.969 36.1499 109.956 36.2253 109.956L36.0627 110.792C35.9377 110.831 35.8122 110.857 35.6866 110.871C35.5617 110.884 35.4236 110.896 35.2735 110.896C34.797 110.896 34.5089 110.766 34.3839 110.518C34.2584 110.27 34.2464 109.944 34.3337 109.538L35.1856 105.385H34.3714L34.5465 104.522H35.3608L35.6992 102.745ZM38.1683 104.521H39.196L37.9303 110.779H36.9026L38.1683 104.521ZM38.6567 102.157H39.6844L39.4339 103.358H38.4062L38.6567 102.157ZM41.4385 102.574C41.7517 102.209 42.2402 102.039 42.9169 102.039H43.1172C43.1794 102.039 43.2547 102.052 43.3426 102.052L43.1423 103.019C43.0419 103.006 42.9672 103.006 42.9169 103.006H42.7794C42.4662 103.006 42.2659 103.085 42.178 103.254C42.0907 103.424 41.9652 103.841 41.8271 104.521H42.8296L42.667 105.357H41.6519L40.5495 110.779H39.5469L40.6493 105.357H39.8099L39.9726 104.521H40.8119L41.0122 103.541C41.1252 103.097 41.2759 102.784 41.4385 102.574ZM43.6062 104.521H44.6339L43.3683 110.779H42.3406L43.6062 104.521ZM44.0953 102.157H45.123L44.8725 103.358H43.8448L44.0953 102.157ZM50.4862 105.475C50.6237 105.788 50.6865 106.167 50.6614 106.586C50.6614 106.873 50.5986 107.343 50.4737 107.97H46.0502C45.9372 108.61 45.9749 109.12 46.1752 109.499C46.3629 109.891 46.7515 110.073 47.3153 110.073C47.8414 110.073 48.3053 109.891 48.6939 109.525C48.9193 109.316 49.095 109.068 49.2325 108.793H50.2351C50.1598 109.029 50.0223 109.276 49.822 109.564C49.6217 109.851 49.4083 110.073 49.1829 110.256C48.8069 110.569 48.3938 110.779 47.9047 110.895C47.6417 110.961 47.3661 110.987 47.0528 110.987C46.3007 110.987 45.7244 110.699 45.3232 110.138C44.9221 109.576 44.8223 108.766 45.0351 107.747C45.2354 106.741 45.6742 105.918 46.3258 105.292C46.9775 104.664 47.7296 104.351 48.5815 104.351C49.0072 104.351 49.4083 104.455 49.7592 104.664C50.0976 104.874 50.3481 105.148 50.4862 105.475ZM49.6086 107.134C49.6588 106.677 49.6457 106.311 49.5458 106.036C49.3706 105.527 48.9569 105.279 48.3178 105.279C47.8545 105.279 47.4283 105.448 47.0397 105.802C46.6511 106.154 46.388 106.598 46.2625 107.134H49.6086ZM55.5607 104.692C55.7233 104.809 55.8865 105.017 56.0491 105.305L56.7008 102.13H57.6783L55.8991 110.779H54.9844L55.1596 109.904C54.8463 110.295 54.5079 110.569 54.1444 110.739C53.7809 110.91 53.3929 111.001 52.9792 111.001C52.3025 111.001 51.7889 110.7 51.4129 110.112C51.0368 109.525 50.9621 108.741 51.1624 107.762C51.3501 106.847 51.7262 106.05 52.315 105.384C52.9039 104.718 53.6058 104.378 54.4451 104.378C54.9216 104.377 55.2851 104.482 55.5607 104.692ZM53.5059 110.086C53.9692 110.086 54.4081 109.877 54.7841 109.459C55.1727 109.041 55.4483 108.44 55.6115 107.643C55.7741 106.847 55.7365 106.258 55.4985 105.879C55.2606 105.501 54.9222 105.305 54.4583 105.305C53.9447 105.305 53.4934 105.514 53.0922 105.919C52.6917 106.323 52.4155 106.925 52.2528 107.709C52.1153 108.388 52.1405 108.949 52.3156 109.393C52.5033 109.851 52.8913 110.086 53.5059 110.086Z" fill="#444444"/>
<path d="M37.1796 11.1095L9.07324 28.0123V61.7668L17.1053 66.5998L17.0425 32.8329L37.13 20.7625L57.217 32.8329V66.5867L65.2364 61.7668V27.9861L37.1796 11.1095Z" fill="#EF6229"/>
<path d="M41.2894 66.4174L37.2797 68.8468L33.2574 66.4436V32.6623L25.2373 37.4954L25.2499 71.2505L37.2797 78.4874L49.322 71.2505V37.4954L41.2894 32.6623V66.4174Z" fill="#EF6229"/>
<path d="M9.39745 130.45H12.3048C13.2948 130.45 13.9841 130.816 14.3846 131.548C14.7356 132.213 14.8103 133.05 14.5975 134.082C14.4343 134.878 14.1461 135.597 13.7205 136.237C12.9809 137.373 12.0034 137.936 10.7629 137.936H7.86816L9.39745 130.45ZM10.7629 137.086C11.0887 137.086 11.3644 137.047 11.5897 136.981C11.9909 136.851 12.3544 136.589 12.6802 136.211C12.9307 135.911 13.1561 135.519 13.3319 135.048C13.4443 134.761 13.5196 134.5 13.5698 134.264C13.7575 133.337 13.7324 132.618 13.4819 132.109C13.2314 131.6 12.7179 131.338 11.9281 131.338H10.1986L9.03336 137.086H10.7629V137.086ZM16.5399 130.45H21.7782L21.5905 131.365H17.2926L16.8292 133.637H20.8013L20.6261 134.5H16.6541L16.1405 137.047H20.5012L20.326 137.936H15.013L16.5399 130.45ZM23.5448 130.45L24.3095 136.838L27.655 130.45H28.7454L24.5976 137.948H23.5699L22.48 130.45H23.5448ZM29.6099 130.45H34.8476L34.6599 131.365H30.3746L29.9112 133.637H33.8839L33.7087 134.5H29.7361L29.2225 137.047H33.5832L33.408 137.936H28.095L29.6099 130.45ZM36.0505 130.45H37.028L35.687 137.047H39.3338L39.1587 137.936H34.5475L36.0505 130.45ZM47.1781 131.522C47.5165 132.188 47.5912 133.037 47.3784 134.069C47.153 135.192 46.6891 136.12 45.9872 136.864C45.173 137.739 44.1704 138.171 42.9801 138.171C41.8771 138.171 41.0879 137.792 40.6114 137.021C40.1983 136.289 40.1104 135.362 40.3358 134.239C40.5361 133.22 40.9624 132.357 41.5889 131.639C42.4032 130.711 43.4057 130.254 44.6212 130.254C45.8874 130.254 46.7393 130.672 47.1781 131.522ZM46.3764 134.082C46.5516 133.207 46.4763 132.488 46.151 131.953C45.8258 131.418 45.274 131.143 44.5094 131.143C43.7698 131.143 43.1056 131.404 42.5293 131.939C41.953 132.475 41.5518 133.258 41.339 134.291C41.1638 135.126 41.2266 135.818 41.5142 136.393C41.8017 136.968 42.3912 137.242 43.3065 137.242C44.1584 137.242 44.8477 136.916 45.3619 136.275C45.8623 135.662 46.2007 134.918 46.3764 134.082ZM49.2204 130.45H52.4535C53.0926 130.45 53.5691 130.634 53.8823 131.012C54.1956 131.39 54.2829 131.913 54.1454 132.592C54.033 133.18 53.7449 133.69 53.306 134.12C52.8678 134.551 52.2909 134.774 51.5639 134.774H49.3089L48.6698 137.948H47.6923L49.2204 130.45ZM52.8044 131.482C52.6042 131.378 52.3286 131.325 51.9525 131.325H50.0101L49.484 133.912H51.4264C51.8646 133.912 52.2407 133.82 52.5545 133.624C52.8678 133.429 53.0681 133.089 53.1685 132.605C53.2803 132.057 53.1554 131.691 52.8044 131.482ZM55.762 130.45H60.9997L60.8119 131.365H56.5141L56.0507 133.637H60.0234L59.8482 134.5H55.8756L55.362 137.047H59.7227L59.5475 137.936H54.2345L55.762 130.45ZM62.3155 130.45H65.6491C66.2003 130.45 66.6266 130.529 66.9524 130.698C67.5664 131.012 67.7798 131.613 67.604 132.475C67.5168 132.919 67.3535 133.285 67.1156 133.573C66.8777 133.86 66.577 134.082 66.226 134.264C66.4891 134.382 66.6648 134.539 66.7647 134.735C66.8651 134.931 66.8777 135.244 66.8149 135.675L66.6397 136.681C66.5895 136.969 66.577 137.178 66.577 137.321C66.5895 137.556 66.6648 137.713 66.8023 137.778L66.7647 137.947H65.5744C65.5493 137.883 65.5493 137.804 65.5493 137.7C65.5493 137.595 65.5744 137.4 65.6246 137.112L65.8249 135.858C65.8996 135.362 65.7872 135.035 65.499 134.878C65.3239 134.787 65.0483 134.735 64.6471 134.735H62.4291L61.7775 137.948H60.8L62.3155 130.45ZM64.8468 133.885C65.2976 133.885 65.6862 133.794 65.9869 133.598C66.2876 133.402 66.5004 133.063 66.6009 132.566C66.7139 132.031 66.6009 131.665 66.2625 131.482C66.0873 131.378 65.8243 131.325 65.4984 131.325H63.1178L62.6043 133.885H64.8468Z" fill="white"/>
</svg>
