<svg width="48" height="48" viewBox="0 0 48 48" fill="none" xmlns="http://www.w3.org/2000/svg">
<path fill-rule="evenodd" clip-rule="evenodd" d="M23.9999 4C12.5144 4 3.18896 13.5637 3.18896 25.2988C3.18896 32.9429 7.23775 40.0442 13.7605 43.8285C14.057 44.0001 14.4104 44.0451 14.7407 43.9526L14.7438 43.9517C15.0728 43.857 15.3512 43.634 15.517 43.3336L21.7895 31.9645C22.1326 31.3439 21.9211 30.5518 21.3079 30.1944C19.5707 29.1856 18.49 27.3085 18.49 25.2988C18.49 22.1735 20.9708 19.6482 23.9982 19.6482C27.0256 19.6482 29.5065 22.1735 29.5065 25.2988C29.5065 27.3087 28.4267 29.186 26.6881 30.1948C26.0747 30.5521 25.864 31.3443 26.2073 31.965L32.4812 43.3337L32.4826 43.3362C32.6489 43.6329 32.9237 43.8565 33.2544 43.9517L33.2577 43.9527C33.3704 43.9841 33.4861 44 33.6022 44C33.8238 44 34.0441 43.942 34.2393 43.8276C40.7631 40.0449 44.8109 32.9441 44.8109 25.2988C44.8109 13.5637 35.4855 4 23.9999 4ZM5.75655 25.2988C5.75655 14.9841 13.9512 6.60823 23.9999 6.60823C34.0486 6.60823 42.2433 14.9841 42.2433 25.2988C42.2433 31.5716 39.1392 37.4231 34.0677 40.872L29.0208 31.7288C30.9304 30.1726 32.0758 27.81 32.0758 25.2988C32.0758 20.7548 28.4625 17.04 23.9999 17.04C19.5374 17.04 15.9241 20.7548 15.9241 25.2988C15.9241 27.2294 16.6011 29.0723 17.7819 30.5283C18.137 30.9662 18.5376 31.369 18.979 31.7288L13.9322 40.872C9.11173 37.5938 6.0687 32.1451 5.77923 26.227C5.76415 25.9188 5.75655 25.6093 5.75655 25.2988Z" fill="url(#paint0_linear_219_989)"/>
<defs>
<linearGradient id="paint0_linear_219_989" x1="3.18896" y1="24" x2="44.8109" y2="24" gradientUnits="userSpaceOnUse">
<stop stop-color="#CD4B3A"/>
<stop offset="1" stop-color="#E17139"/>
</linearGradient>
</defs>
</svg>
