<?xml version="1.0" encoding="UTF-8" standalone="no" ?>
<!DOCTYPE svg PUBLIC "-//W3C//DTD SVG 1.1//EN" "http://www.w3.org/Graphics/SVG/1.1/DTD/svg11.dtd">
<svg xmlns="http://www.w3.org/2000/svg" xmlns:xlink="http://www.w3.org/1999/xlink" version="1.1" width="1080" height="1080" viewBox="0 0 1080 1080" xml:space="preserve">
<desc>Created with Fabric.js 5.2.4</desc>
<defs>
</defs>
<rect x="0" y="0" width="100%" height="100%" fill="transparent"></rect>
<g transform="matrix(1 0 0 1 540 540)" id="d51f1254-1c76-4a20-8c9a-9da0a6900627"  >
<rect style="stroke: none; stroke-width: 1; stroke-dasharray: none; stroke-linecap: butt; stroke-dashoffset: 0; stroke-linejoin: miter; stroke-miterlimit: 4; fill: rgb(255,255,255); fill-rule: nonzero; opacity: 1; visibility: hidden;" vector-effect="non-scaling-stroke"  x="-540" y="-540" rx="0" ry="0" width="1080" height="1080" />
</g>
<g transform="matrix(1 0 0 1 540 540)" id="d9924b57-a995-45f8-bf07-65fa3b893911"  >
</g>
<g transform="matrix(1 0 0 1 540 540)"  >
<g style="" vector-effect="non-scaling-stroke"   >
		<g transform="matrix(1 0 0 1 0 0)"  >
<circle style="stroke: rgb(255,218,206); stroke-width: 1; stroke-dasharray: none; stroke-linecap: butt; stroke-dashoffset: 0; stroke-linejoin: miter; stroke-miterlimit: 4; fill: none; fill-rule: nonzero; opacity: 1;" vector-effect="non-scaling-stroke"  cx="0" cy="0" r="305.227" />
</g>
		<g transform="matrix(1 0 0 1 0 0)"  >
<circle style="stroke: rgb(255,218,206); stroke-width: 1; stroke-dasharray: none; stroke-linecap: butt; stroke-dashoffset: 0; stroke-linejoin: miter; stroke-miterlimit: 4; fill: none; fill-rule: nonzero; opacity: 1;" vector-effect="non-scaling-stroke"  cx="0" cy="0" r="249.414" />
</g>
		<g transform="matrix(1 0 0 1 0 0)"  >
<circle style="stroke: rgb(255,218,206); stroke-width: 1; stroke-dasharray: none; stroke-linecap: butt; stroke-dashoffset: 0; stroke-linejoin: miter; stroke-miterlimit: 4; fill: rgb(255,255,255); fill-rule: nonzero; opacity: 1;" vector-effect="non-scaling-stroke"  cx="0" cy="0" r="191.742" />
</g>
		<g transform="matrix(1 0 0 1 7.29 29.34)"  >
<path style="stroke: rgb(255,218,206); stroke-width: 1; stroke-dasharray: none; stroke-linecap: butt; stroke-dashoffset: 0; stroke-linejoin: miter; stroke-miterlimit: 4; fill: none; fill-rule: nonzero; opacity: 1;" vector-effect="non-scaling-stroke"  transform=" translate(-125.13, -335.06)" d="M 13.6459 282.145 L 13.6459 254.876 C 13.8205 254.984 14.0237 255.109 14.2547 255.249 C 15.1524 255.793 16.4683 256.569 18.1449 257.5 C 21.4978 259.362 26.2949 261.844 32.0755 264.325 C 43.6292 269.286 59.1472 274.261 74.9312 274.261 C 97.3858 274.261 110.732 266.927 124.063 259.6 L 124.287 259.477 C 137.667 252.124 151.089 244.817 173.884 244.817 C 190.929 244.817 206.667 249.739 218.156 254.671 C 223.898 257.137 228.572 259.602 231.809 261.449 C 233.428 262.373 234.687 263.142 235.54 263.68 C 235.967 263.949 236.292 264.16 236.51 264.303 C 236.549 264.329 236.586 264.353 236.618 264.374 L 236.618 291.093 C 236.472 290.983 236.306 290.861 236.122 290.726 C 235.27 290.101 234.015 289.21 232.401 288.142 C 229.174 286.006 224.51 283.159 218.756 280.312 C 207.253 274.621 191.366 268.917 173.884 268.917 C 155.716 268.917 143.084 275.67 129.889 282.724 C 129.133 283.128 128.374 283.534 127.612 283.939 C 113.575 291.41 98.4584 298.844 74.9312 298.844 C 60.293 298.844 44.9097 294.642 33.1658 290.426 C 27.2981 288.32 22.3481 286.214 18.8657 284.634 C 17.1247 283.845 15.7509 283.187 14.8132 282.727 C 14.3444 282.497 13.9845 282.316 13.7424 282.194 C 13.7078 282.176 13.6756 282.16 13.6459 282.145 Z M 13.644 344.895 L 13.644 317.627 C 13.8187 317.735 14.0219 317.86 14.2528 317.999 C 15.1506 318.544 16.4665 319.32 18.1431 320.251 C 21.496 322.113 26.293 324.595 32.0737 327.076 C 43.6274 332.037 59.1454 337.012 74.9294 337.012 C 97.384 337.012 110.73 329.678 124.061 322.351 L 124.285 322.228 C 137.665 314.875 151.087 307.568 173.883 307.568 C 190.927 307.568 206.666 312.49 218.154 317.422 C 223.896 319.887 228.57 322.352 231.808 324.2 C 233.426 325.124 234.685 325.893 235.538 326.431 C 235.965 326.7 236.29 326.91 236.508 327.054 C 236.548 327.08 236.584 327.104 236.616 327.125 L 236.616 353.844 C 236.47 353.734 236.305 353.612 236.12 353.477 C 235.268 352.852 234.013 351.961 232.399 350.893 C 229.172 348.757 224.508 345.91 218.754 343.063 C 207.251 337.372 191.364 331.668 173.883 331.668 C 155.714 331.668 143.083 338.421 129.888 345.475 C 129.131 345.879 128.372 346.285 127.61 346.69 C 113.573 354.161 98.4566 361.595 74.9294 361.595 C 60.2912 361.595 44.9079 357.393 33.1639 353.177 C 27.2963 351.071 22.3462 348.965 18.8639 347.385 C 17.1229 346.595 15.7491 345.938 14.8114 345.478 C 14.3425 345.248 13.9827 345.067 13.7405 344.945 C 13.706 344.927 13.6738 344.911 13.644 344.895 Z M 13.644 381.343 C 13.8187 381.451 14.0219 381.576 14.2528 381.716 C 15.1506 382.26 16.4665 383.036 18.1431 383.967 C 21.496 385.829 26.293 388.311 32.0737 390.793 C 43.6274 395.753 59.1454 400.728 74.9294 400.728 C 97.384 400.728 110.73 393.394 124.061 386.067 L 124.285 385.944 C 137.665 378.591 151.087 371.284 173.883 371.284 C 190.927 371.284 206.666 376.206 218.154 381.139 C 223.896 383.604 228.57 386.069 231.808 387.916 C 233.426 388.84 234.685 389.61 235.538 390.147 C 235.965 390.416 236.29 390.627 236.508 390.77 C 236.548 390.796 236.584 390.82 236.616 390.841 L 236.616 417.56 C 236.47 417.45 236.305 417.328 236.12 417.193 C 235.268 416.568 234.013 415.677 232.399 414.609 C 229.172 412.473 224.508 409.626 218.754 406.779 C 207.251 401.088 191.364 395.384 173.883 395.384 C 155.714 395.384 143.083 402.137 129.888 409.191 C 129.131 409.595 128.372 410.001 127.61 410.406 C 113.573 417.877 98.4566 425.311 74.9294 425.311 C 60.2912 425.311 44.9079 421.109 33.1639 416.894 C 27.2963 414.787 22.3462 412.681 18.8639 411.101 C 17.1229 410.312 15.7491 409.654 14.8114 409.194 C 14.3425 408.964 13.9827 408.784 13.7405 408.661 C 13.706 408.643 13.6738 408.627 13.644 408.612 L 13.644 381.343 Z" stroke-linecap="round" />
</g>
		<g transform="matrix(1 0 0 1 -5.74 -52.11)"  >
<path style="stroke: none; stroke-width: 1; stroke-dasharray: none; stroke-linecap: butt; stroke-dashoffset: 0; stroke-linejoin: miter; stroke-miterlimit: 4; fill: rgb(216,80,38); fill-rule: nonzero; opacity: 1;" vector-effect="non-scaling-stroke"  transform=" translate(-112.1, -253.62)" d="M 0.115595 235.759 C 0.115595 235.759 30.5255 255.55 61.901 255.55 C 106.792 255.55 114.998 226.105 160.854 226.105 C 195.126 226.105 224.088 245.896 224.088 245.896 L 224.088 273.892 C 224.088 273.892 195.608 251.206 160.854 251.206 C 122.721 251.206 109.205 281.133 61.901 281.133 C 32.4563 281.133 0.115595 264.238 0.115595 264.238 L 0.115595 235.759 Z" stroke-linecap="round" />
</g>
		<g transform="matrix(1 0 0 1 -5.74 10.64)"  >
<path style="stroke: none; stroke-width: 1; stroke-dasharray: none; stroke-linecap: butt; stroke-dashoffset: 0; stroke-linejoin: miter; stroke-miterlimit: 4; fill: rgb(216,80,38); fill-rule: nonzero; opacity: 1;" vector-effect="non-scaling-stroke"  transform=" translate(-112.1, -316.37)" d="M 0.11377 298.51 C 0.11377 298.51 30.5237 318.301 61.8992 318.301 C 106.79 318.301 114.996 288.856 160.852 288.856 C 195.124 288.856 224.086 308.647 224.086 308.647 L 224.086 336.643 C 224.086 336.643 195.607 313.956 160.852 313.956 C 122.719 313.956 109.204 343.884 61.8992 343.884 C 32.4545 343.884 0.11377 326.989 0.11377 326.989 L 0.11377 298.51 Z" stroke-linecap="round" />
</g>
		<g transform="matrix(1 0 0 1 -5.74 74.36)"  >
<path style="stroke: none; stroke-width: 1; stroke-dasharray: none; stroke-linecap: butt; stroke-dashoffset: 0; stroke-linejoin: miter; stroke-miterlimit: 4; fill: rgb(216,80,38); fill-rule: nonzero; opacity: 1;" vector-effect="non-scaling-stroke"  transform=" translate(-112.1, -380.09)" d="M 0.11377 362.226 C 0.11377 362.226 30.5237 382.017 61.8992 382.017 C 106.79 382.017 114.996 352.572 160.852 352.572 C 195.124 352.572 224.086 372.363 224.086 372.363 L 224.086 400.36 C 224.086 400.36 195.607 377.673 160.852 377.673 C 122.719 377.673 109.204 407.6 61.8992 407.6 C 32.4545 407.6 0.11377 390.706 0.11377 390.706 L 0.11377 362.226 Z" stroke-linecap="round" />
</g>
</g>
</g>
</svg>