<svg width="201" height="88" viewBox="0 0 201 88" fill="none" xmlns="http://www.w3.org/2000/svg">
<path d="M2.74316 68.6442V49.3979H10.4695C11.9182 49.3979 13.045 49.4785 14.0108 49.6395C14.9766 49.8006 15.7009 50.1227 16.3448 50.5253C16.9082 50.928 17.3106 51.5722 17.552 52.3775C17.7935 53.1828 17.9544 54.2297 17.9544 55.5986C17.9544 56.9676 17.7935 58.0145 17.552 58.8198C17.3106 59.625 16.9082 60.2693 16.3448 60.6719C15.7814 61.0746 14.9766 61.3967 14.0108 61.5577C13.045 61.7188 11.8377 61.7993 10.4695 61.7993H4.83572V68.7247H2.74316V68.6442ZM15.7009 55.5181C15.7009 54.4712 15.6204 53.6659 15.379 53.1022C15.218 52.5386 14.8961 52.0554 14.4937 51.8138C14.0913 51.4917 13.5279 51.3306 12.884 51.2501C12.2401 51.1696 11.4353 51.1696 10.4695 51.1696H4.83572V60.0277H10.4695C11.4353 60.0277 12.2401 60.0277 12.884 59.9472C13.5279 59.8666 14.0913 59.7056 14.4937 59.464C14.8961 59.2224 15.218 58.7392 15.379 58.1755C15.5399 57.6118 15.7009 56.8066 15.7009 55.7597V55.5181Z" fill="#3D3C3C"/>
<path d="M20.5293 68.6442V49.3979H34.8553L34.5333 51.089H22.6219V57.7729H32.2798V59.464H22.6219V66.7921H34.8553L34.5333 68.5637H20.5293V68.6442Z" fill="#3D3C3C"/>
<path d="M50.8707 68.6442L45.7198 61.7188H39.5226V68.6442H37.3496V49.3979H45.1565C46.6051 49.3979 47.7319 49.4785 48.6977 49.6395C49.6635 49.8006 50.3878 50.1227 51.0317 50.5253C51.5951 50.928 51.9975 51.5722 52.2389 52.3775C52.4804 53.1828 52.6414 54.2297 52.6414 55.5986C52.6414 56.6455 52.5609 57.5313 52.3999 58.2561C52.239 58.9808 51.9975 59.5445 51.6756 60.0277C51.3536 60.5109 50.8707 60.833 50.3074 61.0746C49.744 61.3161 49.0196 61.4772 48.2148 61.6383L53.5267 68.6442H50.8707V68.6442ZM45.2369 60.0277C46.2027 60.0277 47.0076 60.0277 47.6514 59.9472C48.2953 59.8666 48.8587 59.7056 49.2611 59.3835C49.6635 59.0613 49.9854 58.6587 50.1464 58.095C50.3074 57.5313 50.4683 56.6455 50.4683 55.5986C50.4683 54.4712 50.3878 53.6659 50.1464 53.0217C49.9854 52.458 49.6635 51.9749 49.2611 51.7333C48.8587 51.4917 48.2953 51.2501 47.6514 51.2501C47.0076 51.1696 46.2027 51.1696 45.2369 51.1696H39.5226V60.0277H45.2369Z" fill="#3D3C3C"/>
<path d="M70.6713 51.8136C70.4298 51.7331 70.0274 51.5721 69.5445 51.4915C69.0616 51.411 68.5787 51.25 68.0153 51.1694C67.4519 51.0889 66.8886 51.0084 66.2447 50.9278C65.6008 50.8473 65.0374 50.8473 64.3936 50.8473C62.623 50.8473 61.2548 51.0889 60.3694 51.5721C59.4841 52.0552 59.0012 53.0216 59.0012 54.3906C59.0012 55.0348 59.0012 55.5179 59.0817 55.8401C59.1622 56.1622 59.3232 56.4843 59.5646 56.6453C59.8061 56.8869 60.2085 57.048 60.6914 57.1285C61.1743 57.2896 61.8986 57.4506 62.7839 57.6117C63.9107 57.8533 65.0374 58.0949 66.1642 58.2559C67.291 58.417 68.3372 58.7391 69.2226 59.0612C70.1079 59.4638 70.9127 59.947 71.4761 60.5912C72.0395 61.2355 72.3614 62.1213 72.3614 63.3292C72.3614 64.4566 72.2004 65.4229 71.798 66.1477C71.3956 66.8724 70.9127 67.4361 70.1884 67.8388C69.5445 68.2414 68.6592 68.5635 67.7739 68.7246C66.8081 68.8856 65.7618 68.9662 64.635 68.9662C63.9107 68.9662 63.1863 68.9662 62.3815 68.8857C61.5767 68.8051 60.8523 68.7246 60.128 68.5635C59.4036 68.4025 58.6793 68.2414 58.0354 68.0804C57.3916 67.9193 56.8282 67.6777 56.4258 67.5167C56.5867 67.1946 56.7477 66.953 56.9087 66.7114C57.0696 66.4698 57.2306 66.1477 57.3916 65.9061C57.7135 65.9866 58.1159 66.1477 58.5988 66.3087C59.0817 66.4698 59.6451 66.6309 60.289 66.7919C60.9328 66.953 61.6572 67.0335 62.462 67.114C63.2668 67.1946 64.0717 67.2751 64.957 67.2751C65.7618 67.2751 66.5666 67.2751 67.2105 67.1946C67.8543 67.1946 68.4177 67.0335 68.9006 66.7919C69.3835 66.5503 69.7055 66.1477 69.9469 65.6645C70.1884 65.1813 70.3493 64.4566 70.3493 63.4903C70.3493 62.9266 70.2688 62.4434 70.1079 62.0407C69.9469 61.7186 69.7055 61.3965 69.3835 61.2355C69.0616 60.9939 68.6592 60.8328 68.0958 60.7523C67.5324 60.6718 66.8886 60.5107 66.0837 60.3496C64.3936 60.0275 62.9449 59.7859 61.8181 59.4638C60.6109 59.2223 59.7256 58.9001 59.0012 58.4975C58.2769 58.0949 57.7135 57.6117 57.3916 56.9675C57.0696 56.3232 56.9087 55.4374 56.9087 54.31C56.9087 53.4242 57.0696 52.6995 57.4721 51.9747C57.8745 51.3305 58.3574 50.7668 59.0012 50.3641C59.6451 49.9615 60.3694 49.6394 61.2548 49.3978C62.1401 49.1562 63.0254 49.0757 63.9912 49.0757C64.7155 49.0757 65.4399 49.0757 66.1642 49.1562C66.8886 49.2367 67.6129 49.3173 68.2568 49.3978C68.9006 49.4783 69.5445 49.6394 70.1884 49.7199C70.7517 49.881 71.3151 50.042 71.7175 50.2031L70.6713 51.8136Z" fill="#3D3C3C"/>
<path d="M76.1445 68.6442V49.3979H83.8709C85.3196 49.3979 86.4463 49.4785 87.4121 49.6395C88.3779 49.8006 89.1023 50.1227 89.7461 50.5253C90.3095 50.928 90.7119 51.5722 90.9534 52.3775C91.1948 53.1828 91.3558 54.2297 91.3558 55.5986C91.3558 56.9676 91.1948 58.0145 90.9534 58.8198C90.7119 59.625 90.3095 60.2693 89.7461 60.6719C89.1828 61.0746 88.3779 61.3967 87.4121 61.5577C86.4463 61.7188 85.2391 61.7993 83.8709 61.7993H78.2371V68.7247H76.1445V68.6442ZM89.1023 55.5181C89.1023 54.4712 89.0218 53.6659 88.7803 53.1022C88.6194 52.5386 88.2975 52.0554 87.895 51.8138C87.4926 51.4917 86.9292 51.3306 86.2854 51.2501C85.6415 51.1696 84.8367 51.1696 83.8709 51.1696H78.2371V60.0277H83.8709C84.8367 60.0277 85.6415 60.0277 86.2854 59.9472C86.9292 59.8666 87.4926 59.7056 87.895 59.464C88.2975 59.2224 88.6194 58.7392 88.7803 58.1755C88.9413 57.6118 89.1023 56.8066 89.1023 55.7597V55.5181Z" fill="#3D3C3C"/>
<path d="M93.9307 68.6442V49.3979H108.257L107.935 51.089H96.0232V57.7729H105.681V59.464H96.0232V66.7921H108.257L107.935 68.5637H93.9307V68.6442V68.6442Z" fill="#3D3C3C"/>
<path d="M126.848 67.6779C126.043 68.0805 124.997 68.4026 123.79 68.6442C122.582 68.8858 121.214 68.9663 119.846 68.9663C118.397 68.9663 117.029 68.8053 115.822 68.5637C114.614 68.3221 113.649 67.8389 112.763 67.1142C111.959 66.3894 111.315 65.4231 110.832 64.0541C110.349 62.7656 110.107 61.0745 110.107 58.9003C110.107 56.8065 110.349 55.0349 110.832 53.7465C111.315 52.458 111.959 51.4111 112.763 50.6864C113.568 49.9616 114.614 49.4785 115.822 49.2369C117.029 48.9953 118.317 48.8342 119.846 48.8342C122.663 48.8342 124.916 49.2369 126.606 50.0422L125.641 51.6527C125.077 51.4917 124.272 51.2501 123.307 50.928C122.341 50.6864 121.214 50.5253 120.007 50.5253C118.961 50.5253 117.914 50.6059 117.029 50.7669C116.144 50.928 115.339 51.2501 114.614 51.8138C113.971 52.3775 113.407 53.1828 113.005 54.3102C112.602 55.4375 112.441 56.8871 112.441 58.8197C112.441 60.7524 112.602 62.2825 113.005 63.3293C113.407 64.4567 113.89 65.262 114.614 65.8257C115.258 66.3894 116.063 66.7115 117.029 66.8726C117.914 67.0336 118.961 67.1142 120.007 67.1142C120.57 67.1142 121.214 67.0336 121.777 66.9531C122.341 66.8726 122.904 66.792 123.468 66.631C123.95 66.5505 124.433 66.3894 124.916 66.2283C125.319 66.0673 125.721 65.9868 125.963 65.9062L126.848 67.6779Z" fill="#3D3C3C"/>
<path d="M154.775 68.6442V49.3979H156.948V68.6442H154.775Z" fill="#3D3C3C"/>
<path d="M167.974 68.6442L160.248 49.3979H162.502L168.055 63.1683L169.182 66.7921H169.343L170.469 63.1683L176.023 49.3979H178.276L170.55 68.6442H167.974Z" fill="#3D3C3C"/>
<path d="M181.576 68.6442V49.3979H195.902L195.58 51.089H183.669V57.7729H193.327V59.464H183.669V66.7921H195.902L195.58 68.5637H181.576V68.6442Z" fill="#3D3C3C"/>
<path d="M163.307 29.0244C163.87 30.2323 163.066 30.957 162.1 31.7623C161.134 32.5676 159.766 32.9702 158.558 32.9702C157.271 33.0508 155.983 33.0508 154.695 33.1313C151.878 33.4534 149.303 34.9029 147.13 36.6745C148.579 31.6818 153.005 27.6554 158.076 26.6085C159.041 26.4474 160.007 26.2864 160.892 26.528C161.939 26.8501 162.905 28.2191 163.307 29.0244Z" fill="#F26322"/>
<path d="M157.352 37.9631C158.318 37.1578 157.594 35.7083 157.272 35.3862C156.95 35.0641 156.386 34.8225 155.823 34.6614C154.133 34.2588 152.443 34.5809 150.994 35.6278C151.316 35.3056 153.006 36.3525 153.328 36.6746C153.892 37.0773 155.662 39.3321 157.352 37.9631Z" fill="#F26322"/>
<path d="M160.893 18.5555C163.79 21.0519 160.973 24.112 159.847 24.5951C157.915 25.4004 157.191 25.7225 155.259 26.5278C153.327 27.3331 150.269 28.7826 149.384 30.6348C149.867 26.5278 151.637 22.5819 154.374 19.5218C155.179 18.5555 158.398 16.4618 160.893 18.5555Z" fill="#F26322"/>
<path d="M154.455 11.308C155.018 10.8248 155.662 10.3417 156.387 10.1806C157.111 10.0195 157.916 10.1001 158.479 10.5832C159.284 11.2275 159.284 12.5159 158.801 13.4017C158.318 14.3681 157.594 15.0123 156.709 15.6565C156.065 16.2202 155.421 16.7034 154.777 17.2671C153.57 18.314 152.202 19.4414 151.719 20.9714C150.753 17.5892 151.88 13.7239 154.455 11.308Z" fill="#F26322"/>
<path d="M149.545 15.8981C148.659 13.9654 148.337 12.1938 148.257 10.1C148.257 9.53635 149.384 5.02676 152.12 6.23469C154.535 7.28156 153.408 9.93899 152.844 10.9053C151.637 12.5964 150.913 13.5628 150.43 17.1865C150.188 17.106 149.706 16.1397 149.545 15.8981Z" fill="#F26322"/>
<path d="M143.427 3.01371C146.485 3.2553 147.129 6.71802 147.129 8.32858C147.129 13.0798 144.393 17.6699 142.944 18.3946C143.668 17.4283 143.185 15.3345 142.864 14.2071C142.542 13.1603 142.3 11.8718 141.656 10.9055C140.851 9.69756 139.886 8.087 139.725 6.71802C139.564 5.42956 139.966 2.77213 143.427 3.01371Z" fill="#F26322"/>
<path d="M148.902 16.6231C150.994 20.0858 150.109 23.9512 149.626 25.4007C149.385 24.1927 149.385 22.3406 147.775 20.9716C146.89 20.1663 145.28 18.7168 145.28 17.5089C145.2 15.8178 147.936 15.093 148.902 16.6231Z" fill="#F26322"/>
<path d="M146.002 22.26C147.451 23.4679 148.578 25.8837 147.853 29.9101C147.532 31.6012 144.715 40.6204 140.61 42.5531C140.932 41.1036 141.415 38.6072 141.495 37.1577C141.656 31.6818 139 28.7827 139.161 25.2395C139.161 22.3405 142.139 18.9583 146.002 22.26Z" fill="#F26322"/>
<path d="M140.288 12.2744C141.576 13.4824 141.898 15.7371 141.335 17.5088C140.691 19.683 139.162 20.9715 138.437 23.0652C137.632 25.4811 138.115 28.1385 138.84 30.6349C136.023 28.3801 134.252 26.3669 133.125 22.9042C132.562 21.1325 131.838 18.0725 132.159 16.2203C132.481 14.3682 133.206 12.8381 134.815 11.8718C136.506 10.986 139.001 10.986 140.288 12.2744Z" fill="#F26322"/>
<path d="M127.091 6.55681C125.642 6.87892 124.837 8.57002 124.918 10.0195C124.998 11.469 125.32 12.677 126.125 13.9654C127.574 16.3007 128.942 18.8776 131.115 20.6493C130.551 20.005 131.437 14.5291 131.517 12.5964C131.598 10.6638 131.195 8.65054 129.827 7.44262C129.103 6.71786 128.137 6.31522 127.091 6.55681Z" fill="#F26322"/>
<path d="M120.248 14.2877C120.248 14.8514 120.65 15.3345 121.133 15.6566C121.616 15.9788 122.18 16.0593 122.743 16.2203C123.95 16.5425 125.318 16.784 126.526 17.0256C126.043 15.6566 125.158 14.4487 124.031 13.5629C123.387 13.0797 122.582 12.6771 121.858 12.7576C121.053 12.8382 120.248 13.4824 120.248 14.2877Z" fill="#F26322"/>
<path d="M128.379 20.569C127.815 20.0053 120.652 15.2541 119.123 19.6832C117.916 23.1459 123.872 24.1122 128.379 25.2396C130.954 25.8033 132.644 26.8502 134.173 27.4944C132.886 25.6423 132.483 25.1591 128.379 20.569Z" fill="#F26322"/>
<path d="M119.363 29.4269C118.961 30.7959 119.766 35.547 125.4 34.8223C126.848 34.6612 132.965 33.3728 134.897 33.7754C136.828 34.0975 138.357 34.3391 139.565 35.7886C139.243 33.2117 133.126 28.219 130.551 27.4942C122.583 25.1589 119.685 28.4606 119.363 29.4269Z" fill="#F26322"/>
<path d="M140.048 41.7478C141.255 39.7346 138.599 32.8092 129.263 35.7082C127.332 36.2719 126.205 37.6409 125.48 38.2046C127.412 37.8824 130.309 37.3187 133.126 41.1036C134.012 42.3115 138.036 44.9689 140.048 41.7478Z" fill="#F26322"/>
<path d="M121.94 37.0771C122.262 39.4124 123.711 38.4461 124.274 37.9629C125.079 37.3187 125.159 36.755 126.206 36.4329C125.401 36.1108 121.699 35.1444 121.94 37.0771Z" fill="#F26322"/>
<path d="M117.915 24.6759C117.271 25.1591 117.11 26.6086 117.674 27.1723C117.995 27.4944 118.478 27.4944 118.961 27.4139C119.364 27.3334 119.766 27.0113 120.169 26.7697C120.973 26.2865 121.778 25.8839 122.663 25.5617C121.939 25.2396 121.215 24.9175 120.41 24.7565C119.686 24.5954 118.559 24.1928 117.915 24.6759Z" fill="#F26322"/>
<path d="M133.77 10.5833C135.863 10.7443 137.955 9.778 139.887 10.5028C139.324 9.29483 138.197 8.24796 136.829 7.84532C135.541 7.44267 134.012 7.76479 132.965 8.73113C132.643 9.05324 132.402 9.53641 132.563 9.93905C132.724 10.3417 133.287 10.5028 133.77 10.5833Z" fill="#F26322"/>
<path d="M135.701 6.47643C134.252 6.71802 132.884 7.28172 131.677 7.92594C131.596 6.95961 131.838 5.91274 132.562 5.18798C133.287 4.46323 134.252 4.14111 135.218 4.14111C135.701 4.22164 136.264 4.3827 136.506 4.78534C136.828 5.18798 136.828 5.83221 136.425 6.15432C136.184 6.39591 135.943 6.39591 135.701 6.47643Z" fill="#F26322"/>
<path d="M126.928 40.8621C126.928 40.8621 129.664 45.4522 133.527 48.5123C135.861 50.3644 137.954 50.8476 138.437 52.4582C139.081 54.4714 137.793 56.0014 136.747 59.6252C135.62 63.5711 134.574 68.2417 135.459 68.2417H144.875C140.127 62.6047 143.346 53.4245 144.795 50.445C146.002 48.0291 145.841 47.3849 148.095 44.0027C150.348 40.6205 151.958 38.3657 151.958 38.3657C151.958 38.3657 150.59 38.9294 146.727 42.4727C143.266 45.6938 142.059 46.5796 139.081 46.9822C134.493 47.7875 126.928 40.8621 126.928 40.8621Z" fill="#3D3C3C"/>
<path d="M101.576 84.3474V77.0998L98.5179 84.3474H97.5521L94.4937 77.0998V84.3474H93.6084V76.053H94.9766L97.5521 82.0121L98.1154 83.5421L98.6788 82.0121L101.254 76.053H102.622V84.3474H101.576Z" fill="#3D3C3C"/>
<path d="M110.912 84.3472L109.866 81.7703H106.083L105.037 84.3472H104.071L107.371 76.0527H108.498L111.798 84.3472H110.912ZM108.578 78.3881L108.095 76.858H108.015L107.532 78.3881L106.486 81.0455H109.705L108.578 78.3881Z" fill="#3D3C3C"/>
<path d="M119.443 80.4818H116.787L116.948 79.757H120.329V83.864C120.168 83.9445 119.926 84.025 119.685 84.1861C119.443 84.3471 119.121 84.3471 118.88 84.4277C118.558 84.5082 118.236 84.5082 117.914 84.5887C117.592 84.5887 117.27 84.6693 116.948 84.6693C116.305 84.6693 115.741 84.5887 115.178 84.5082C114.614 84.4277 114.292 84.1861 113.89 83.864C113.568 83.5419 113.327 83.1392 113.085 82.5755C112.844 82.0118 112.844 81.2871 112.844 80.3207C112.844 79.4349 112.924 78.7102 113.166 78.1465C113.407 77.5828 113.649 77.1801 113.971 76.858C114.292 76.5359 114.775 76.3749 115.258 76.2138C115.741 76.0527 116.305 76.0527 116.948 76.0527C117.512 76.0527 118.075 76.1333 118.639 76.2138C119.121 76.2943 119.604 76.4554 119.926 76.6164L119.524 77.2607C119.443 77.1801 119.282 77.1801 119.041 77.0996C118.88 77.0191 118.639 77.0191 118.478 76.9386C118.236 76.858 117.995 76.858 117.753 76.7775C117.512 76.697 117.27 76.697 117.029 76.697C116.546 76.697 116.144 76.697 115.741 76.7775C115.339 76.858 115.017 77.0191 114.695 77.1801C114.373 77.3412 114.212 77.7438 114.051 78.227C113.89 78.7102 113.81 79.3544 113.81 80.1597C113.81 80.965 113.89 81.5287 113.971 82.0118C114.051 82.495 114.292 82.8171 114.534 83.1392C114.775 83.3808 115.097 83.5419 115.58 83.6224C115.983 83.7029 116.546 83.7835 117.109 83.7835C117.27 83.7835 117.512 83.7834 117.753 83.7029C117.995 83.7029 118.156 83.6224 118.397 83.6224C118.558 83.5419 118.799 83.5419 118.96 83.4613C119.121 83.3808 119.282 83.3808 119.443 83.3003V80.4818V80.4818Z" fill="#3D3C3C"/>
<path d="M122.259 84.3472V76.0527H128.456L128.295 76.7775H123.144V79.6765H127.329V80.4013H123.144V83.5419H128.375L128.215 84.2666L122.259 84.3472Z" fill="#3D3C3C"/>
<path d="M135.62 84.3472L130.711 77.3412V84.3472H129.825V76.0527H130.871L135.781 83.0587V76.0527H136.666V84.3472H135.62Z" fill="#3D3C3C"/>
<path d="M141.014 84.3472V76.7775H138.116L138.277 76.0527H145.118L144.957 76.7775H141.979V84.3472H141.014Z" fill="#3D3C3C"/>
<path d="M145.843 80.2404C145.843 79.274 145.923 78.5493 146.165 77.9856C146.406 77.4219 146.648 77.0192 147.05 76.6971C147.452 76.375 147.855 76.214 148.338 76.0529C148.821 75.8918 149.384 75.8918 149.947 75.8918C150.511 75.8918 151.074 75.9724 151.557 76.0529C152.04 76.1334 152.523 76.375 152.845 76.6971C153.167 77.0192 153.489 77.4219 153.73 77.9856C153.972 78.5493 154.052 79.274 154.052 80.2404C154.052 81.2067 153.972 81.9315 153.73 82.4952C153.489 83.0589 153.247 83.4615 152.845 83.7836C152.442 84.1057 152.04 84.2668 151.557 84.4278C151.074 84.5084 150.511 84.5889 149.947 84.5889C149.384 84.5889 148.821 84.5084 148.338 84.4278C147.855 84.3473 147.372 84.1057 147.05 83.7836C146.728 83.4615 146.406 83.0589 146.165 82.4952C145.923 81.8509 145.843 81.1262 145.843 80.2404ZM149.947 76.6166C149.545 76.6166 149.143 76.6166 148.74 76.6971C148.338 76.6971 148.016 76.8582 147.694 77.0998C147.372 77.3414 147.131 77.6635 146.97 78.1466C146.809 78.6298 146.728 79.3546 146.728 80.2404C146.728 80.8041 146.809 81.3678 146.889 81.7704C146.97 82.1731 147.05 82.4952 147.211 82.7368C147.372 82.9783 147.533 83.2199 147.694 83.381C147.855 83.542 148.096 83.6226 148.338 83.7031C148.579 83.7836 148.821 83.7836 149.062 83.7836C149.304 83.7836 149.625 83.7836 149.867 83.7836C150.108 83.7836 150.43 83.7836 150.672 83.7836C150.913 83.7836 151.155 83.7031 151.396 83.7031C151.638 83.7031 151.879 83.542 152.04 83.381C152.201 83.2199 152.442 83.0589 152.523 82.7368C152.603 82.4146 152.764 82.1731 152.845 81.7704C152.925 81.3678 153.006 80.8846 153.006 80.2404C153.006 79.3546 152.925 78.7103 152.764 78.1466C152.603 77.6635 152.362 77.3414 152.04 77.0998C151.718 76.8582 151.396 76.7777 150.994 76.6971C150.591 76.6166 150.35 76.6166 149.947 76.6166Z" fill="#3D3C3C"/>
<path d="M164.917 84.3472V76.7775H162.02L162.18 76.0527H169.022L168.861 76.7775H165.883V84.3472H164.917Z" fill="#3D3C3C"/>
<path d="M170.229 84.3472V76.0527H176.426L176.265 76.7775H171.114V79.6765H175.299V80.4013H171.114V83.5419H176.345L176.184 84.2666L170.229 84.3472Z" fill="#3D3C3C"/>
<path d="M183.991 84.3472L182.945 81.7703H179.162L178.116 84.3472H177.15L180.45 76.0527H181.577L184.877 84.3472H183.991ZM181.577 78.3881L181.094 76.858H181.014L180.531 78.3881L179.484 81.0455H182.704L181.577 78.3881Z" fill="#3D3C3C"/>
<path d="M194.774 84.3472V77.0996L191.716 84.3472H190.75L187.692 77.0996V84.3472H186.807V76.0527H188.175L190.75 82.0118L191.314 83.5419L191.877 82.0118L194.453 76.0527H195.821V84.3472H194.774Z" fill="#3D3C3C"/>
</svg>
