<svg width="598" height="504" viewBox="0 0 598 504" fill="none" xmlns="http://www.w3.org/2000/svg">
<path d="M34.2412 300.115V229.621C34.2776 229.644 34.3153 229.668 34.3542 229.692C34.9365 230.059 35.8 230.595 36.9265 231.278C39.1795 232.644 42.4846 234.594 46.6971 236.933C55.1217 241.611 67.1772 247.848 81.7047 254.085C110.752 266.555 149.717 279.041 189.314 279.041C245.659 279.041 279.121 260.651 312.675 242.211L313.223 241.909C346.936 223.383 380.874 204.901 438.474 204.901C481.53 204.901 521.265 217.334 550.247 229.777C564.736 235.997 576.531 242.217 584.703 246.881C588.788 249.213 591.968 251.156 594.125 252.515C595.203 253.194 596.026 253.728 596.579 254.091C596.849 254.269 597.054 254.406 597.193 254.499V323.706C597.186 323.7 597.178 323.694 597.171 323.689C596.621 323.268 595.806 322.652 594.737 321.869C592.599 320.303 589.45 318.067 585.397 315.385C577.293 310.02 565.577 302.868 551.122 295.717C522.217 281.416 482.333 267.103 438.474 267.103C392.921 267.103 361.269 284.023 328.029 301.791C326.132 302.805 324.229 303.822 322.319 304.839C286.941 323.667 248.744 342.458 189.314 342.458C152.328 342.458 113.498 331.845 83.894 321.218C69.0963 315.906 56.6131 310.594 47.83 306.61C43.4386 304.618 39.9726 302.959 37.6053 301.798C36.4216 301.217 35.5126 300.761 34.8999 300.451C34.616 300.307 34.3957 300.194 34.2412 300.115ZM34.2458 71.6172C34.2822 71.6402 34.3199 71.6639 34.3588 71.6884C34.9411 72.0548 35.8046 72.5915 36.9311 73.2743C39.1841 74.6399 42.4892 76.5897 46.7017 78.9289C55.1263 83.6071 67.1818 89.844 81.7092 96.081C110.757 108.552 149.721 121.038 189.319 121.038C245.663 121.038 279.125 102.648 312.679 84.2069L313.228 83.9056C346.941 65.3786 380.879 46.8972 438.478 46.8972C481.534 46.8972 521.269 59.3301 550.251 71.7727C564.74 77.993 576.535 84.2131 584.707 88.8772C588.793 91.2092 591.972 93.152 594.129 94.511C595.208 95.1905 596.031 95.7241 596.583 96.0874C596.853 96.2649 597.059 96.4017 597.198 96.495V165.702C597.19 165.696 597.183 165.691 597.175 165.685C596.626 165.264 595.81 164.649 594.741 163.865C592.604 162.299 589.454 160.063 585.402 157.381C577.298 152.016 565.581 144.864 551.126 137.713C522.221 123.412 482.338 109.099 438.478 109.099C392.925 109.099 361.273 126.019 328.034 143.787C326.136 144.801 324.234 145.818 322.323 146.835C286.946 165.663 248.749 184.454 189.319 184.454C152.333 184.454 113.502 173.841 83.8985 163.214C69.1009 157.902 56.6177 152.59 47.8346 148.606C43.4432 146.615 39.9772 144.955 37.6099 143.794C36.4262 143.213 35.5172 142.757 34.9045 142.447C34.6206 142.303 34.4003 142.19 34.2458 142.111V71.6172ZM34.2412 390.056C34.2776 390.079 34.3153 390.103 34.3542 390.127C34.9365 390.493 35.8 391.03 36.9265 391.713C39.1795 393.079 42.4846 395.028 46.6971 397.368C55.1217 402.046 67.1772 408.283 81.7047 414.52C110.752 426.99 149.717 439.476 189.314 439.476C245.659 439.476 279.121 421.086 312.675 402.646L313.223 402.344C346.936 383.817 380.874 365.336 438.474 365.336C481.53 365.336 521.265 377.769 550.247 390.211C564.736 396.432 576.531 402.652 584.703 407.316C588.788 409.648 591.968 411.591 594.125 412.95C595.203 413.629 596.026 414.163 596.579 414.526C596.849 414.703 597.054 414.84 597.193 414.934V484.141C597.186 484.135 597.178 484.129 597.171 484.123C596.621 483.703 595.806 483.087 594.737 482.304C592.599 480.738 589.45 478.502 585.397 475.819C577.293 470.455 565.577 463.303 551.122 456.151C522.217 441.851 482.333 427.537 438.474 427.537C392.921 427.537 361.269 444.457 328.029 462.226C326.132 463.24 324.229 464.257 322.319 465.274C286.941 484.101 248.744 502.893 189.314 502.893C152.328 502.893 113.498 492.28 83.894 481.653C69.0963 476.341 56.6131 471.029 47.83 467.045C43.4386 465.053 39.9726 463.394 37.6053 462.233C36.4216 461.652 35.5126 461.196 34.8999 460.885C34.616 460.741 34.3957 460.629 34.2412 460.549V390.056Z" stroke="#FFDACE"/>
<path d="M0.934285 24.8503C0.934285 24.8503 77.5052 74.6823 156.507 74.6823C269.541 74.6823 290.203 0.541992 405.667 0.541992C491.961 0.541992 564.886 50.374 564.886 50.374V120.868C564.886 120.868 493.177 63.7436 405.667 63.7436C309.649 63.7436 275.618 139.099 156.507 139.099C82.3668 139.099 0.934285 96.5597 0.934285 96.5597V24.8503Z" fill="#D85026"/>
<path d="M0.929688 182.854C0.929688 182.854 77.5006 232.686 156.503 232.686C269.536 232.686 290.198 158.546 405.663 158.546C491.957 158.546 564.882 208.378 564.882 208.378V278.872C564.882 278.872 493.172 221.747 405.663 221.747C309.645 221.747 275.613 297.103 156.503 297.103C82.3623 297.103 0.929688 254.564 0.929688 254.564V182.854Z" fill="#D85026"/>
<path d="M0.929688 343.289C0.929688 343.289 77.5006 393.121 156.503 393.121C269.536 393.121 290.198 318.981 405.663 318.981C491.957 318.981 564.882 368.813 564.882 368.813V439.307C564.882 439.307 493.172 382.182 405.663 382.182C309.645 382.182 275.613 457.538 156.503 457.538C82.3623 457.538 0.929688 414.998 0.929688 414.998V343.289Z" fill="#D85026"/>
</svg>
