<svg width="24" height="25" viewBox="0 0 24 25" fill="none" xmlns="http://www.w3.org/2000/svg">
<path d="M2 6.00781C2 5.47738 2.21071 4.96867 2.58579 4.5936C2.96086 4.21853 3.46957 4.00781 4 4.00781H20C20.5304 4.00781 21.0391 4.21853 21.4142 4.5936C21.7893 4.96867 22 5.47738 22 6.00781V18.0078C22 18.5382 21.7893 19.047 21.4142 19.422C21.0391 19.7971 20.5304 20.0078 20 20.0078H4C3.46957 20.0078 2.96086 19.7971 2.58579 19.422C2.21071 19.047 2 18.5382 2 18.0078V6.00781ZM5.519 6.00781L12 11.6788L18.481 6.00781H5.52H5.519ZM20 7.33681L12.659 13.7608C12.4766 13.9206 12.2424 14.0087 12 14.0087C11.7576 14.0087 11.5234 13.9206 11.341 13.7608L4 7.33681V18.0078H20V7.33681Z" fill="white"/>
</svg>
