<svg width="24" height="25" viewBox="0 0 24 25" fill="none" xmlns="http://www.w3.org/2000/svg">
<path d="M12 9.55781C12.917 8.62081 14.111 8.00781 15.5 8.00781C16.9587 8.00781 18.3576 8.58727 19.3891 9.61872C20.4205 10.6502 21 12.0491 21 13.5078V21.0078H19V13.5078C19 12.5796 18.6313 11.6893 17.9749 11.0329C17.3185 10.3766 16.4283 10.0078 15.5 10.0078C14.5717 10.0078 13.6815 10.3766 13.0251 11.0329C12.3687 11.6893 12 12.5796 12 13.5078V21.0078H10V8.50781H12V9.55781ZM5 6.50781C4.60218 6.50781 4.22064 6.34978 3.93934 6.06847C3.65804 5.78717 3.5 5.40564 3.5 5.00781C3.5 4.60999 3.65804 4.22846 3.93934 3.94715C4.22064 3.66585 4.60218 3.50781 5 3.50781C5.39782 3.50781 5.77936 3.66585 6.06066 3.94715C6.34196 4.22846 6.5 4.60999 6.5 5.00781C6.5 5.40564 6.34196 5.78717 6.06066 6.06847C5.77936 6.34978 5.39782 6.50781 5 6.50781ZM4 8.50781H6V21.0078H4V8.50781Z" fill="white"/>
</svg>
