<svg width="48" height="48" viewBox="0 0 48 48" fill="none" xmlns="http://www.w3.org/2000/svg">
<path fill-rule="evenodd" clip-rule="evenodd" d="M14.3708 12.4057C14.7988 11.6395 15.0427 10.7565 15.0427 9.81653C15.0427 6.88029 12.6624 4.5 9.7262 4.5C6.78996 4.5 4.40967 6.88029 4.40967 9.81653C4.40967 12.7528 6.78996 15.1331 9.7262 15.1331C10.8105 15.1331 11.819 14.8085 12.6597 14.2512L16.7755 18.4831C15.6312 19.9984 14.9526 21.8851 14.9526 23.9302C14.9526 25.9134 15.5907 27.7476 16.6728 29.2386L12.4277 33.6035C11.636 33.1355 10.7125 32.8669 9.7262 32.8669C6.78996 32.8669 4.40967 35.2472 4.40967 38.1835C4.40967 41.1197 6.78996 43.5 9.7262 43.5C12.6624 43.5 15.0427 41.1197 15.0427 38.1835C15.0427 37.1444 14.7446 36.1749 14.2293 35.3559L18.417 31.05C19.9546 32.2575 21.8932 32.9775 23.9999 32.9775C26.1067 32.9775 28.0452 32.2574 29.5829 31.05L33.7707 35.3559C33.2554 36.1749 32.9573 37.1444 32.9573 38.1835C32.9573 41.1197 35.3375 43.5 38.2738 43.5C41.21 43.5 43.5903 41.1197 43.5903 38.1835C43.5903 35.2472 41.21 32.8669 38.2738 32.8669C37.2875 32.8669 36.3639 33.1355 35.5723 33.6035L31.3271 29.2385C32.4091 27.7475 33.0472 25.9134 33.0472 23.9302C33.0472 21.9828 32.4319 20.179 31.3851 18.7028L35.5728 14.3969C36.3644 14.8646 37.2877 15.1331 38.2738 15.1331C41.21 15.1331 43.5903 12.7528 43.5903 9.81653C43.5903 6.88029 41.21 4.5 38.2738 4.5C35.3375 4.5 32.9573 6.88029 32.9573 9.81653C32.9573 10.8559 33.2555 11.8256 33.7711 12.6447L29.66 16.8717C28.1103 15.6274 26.142 14.8829 23.9999 14.8829C21.9548 14.8829 20.0681 15.5615 18.5529 16.7058L14.3708 12.4057ZM30.5339 23.9302C30.5339 27.5389 27.6086 30.4643 23.9999 30.4643C20.3912 30.4643 17.4659 27.5389 17.4659 23.9302C17.4659 20.3216 20.3912 17.3962 23.9999 17.3962C27.6086 17.3962 30.5339 20.3216 30.5339 23.9302Z" fill="url(#paint0_linear_219_1022)"/>
<defs>
<linearGradient id="paint0_linear_219_1022" x1="4.40967" y1="24" x2="43.5903" y2="24" gradientUnits="userSpaceOnUse">
<stop stop-color="#CD4B3A"/>
<stop offset="1" stop-color="#E17139"/>
</linearGradient>
</defs>
</svg>
