<svg width="75" height="149" viewBox="0 0 75 149" fill="none" xmlns="http://www.w3.org/2000/svg">
<path d="M74.5501 22.081L37.8342 0.919031C37.659 0.814954 37.3583 0.814954 37.17 0.919031L0.416992 22.081V119.791H74.6004V22.081H74.5501Z" fill="#EF6229"/>
<path d="M16.5456 85.8532H19.6657V96.6687H17.648V89.3539C17.648 89.1445 17.648 88.8441 17.6605 88.4651C17.6605 88.0868 17.6731 87.7995 17.6731 87.5901L15.693 96.6687H13.588L11.6331 87.5901C11.6331 87.7995 11.6331 88.0868 11.6457 88.4651C11.6457 88.8434 11.6582 89.1445 11.6582 89.3539V96.6687H9.62793V85.8532H12.7857L14.6779 94.3572L16.5456 85.8532ZM24.3396 91.8094C24.7157 91.7577 24.9787 91.7053 25.1414 91.6268C25.4295 91.4965 25.5802 91.3008 25.5802 91.0391C25.5802 90.7131 25.4672 90.4906 25.2543 90.3598C25.029 90.2295 24.7031 90.1772 24.2769 90.1772C23.801 90.1772 23.4626 90.2943 23.2617 90.5424C23.1242 90.7256 23.0238 90.9737 22.9736 91.274H21.0437C21.0814 90.5692 21.2691 89.9939 21.6075 89.5502C22.1336 88.8441 23.0489 88.4919 24.3516 88.4919C25.191 88.4919 25.9431 88.6615 26.5947 89.0148C27.2464 89.367 27.5722 90.0201 27.5722 90.9743V94.6451C27.5722 94.8932 27.5722 95.2066 27.5847 95.5725C27.5973 95.8467 27.635 96.0293 27.7097 96.134C27.7725 96.225 27.8723 96.3172 28.0104 96.3821V96.6955H25.8301C25.7679 96.5385 25.7302 96.3821 25.7051 96.2381C25.68 96.0947 25.6675 95.9383 25.6549 95.7551C25.3793 96.0692 25.0535 96.3303 24.69 96.5522C24.2512 96.8133 23.7627 96.9442 23.2241 96.9442C22.5222 96.9442 21.9459 96.7348 21.4945 96.3303C21.0431 95.9121 20.8052 95.3375 20.8052 94.5797C20.8052 93.6 21.1687 92.8807 21.9076 92.4501C22.3088 92.2151 22.8977 92.0456 23.6748 91.9409L24.3396 91.8094ZM25.5676 92.7767C25.4427 92.8552 25.3046 92.9331 25.179 92.9724C25.0541 93.0241 24.8658 93.0764 24.6404 93.1157L24.1896 93.2067C23.7633 93.2852 23.4501 93.3762 23.2623 93.4946C22.9491 93.6903 22.7865 93.9776 22.7865 94.3827C22.7865 94.7348 22.8869 94.9966 23.0746 95.153C23.2623 95.3101 23.5003 95.3886 23.7759 95.3886C24.2147 95.3886 24.6159 95.2577 24.9913 94.9966C25.3673 94.7349 25.5551 94.2518 25.5676 93.5464V92.7767ZM32.9109 88.6615C33.3994 88.8709 33.788 89.2623 34.0887 89.8238V88.6745H36.0436V96.2643C36.0436 97.2957 35.8804 98.0797 35.5426 98.6026C34.9789 99.4907 33.8758 99.9351 32.2467 99.9351C31.2692 99.9351 30.4669 99.7394 29.8536 99.3343C29.2396 98.9292 28.8886 98.3284 28.8259 97.5313H31.0062C31.0564 97.7793 31.1563 97.9489 31.2818 98.0536C31.4946 98.2493 31.8581 98.3409 32.3723 98.3409C33.0992 98.3409 33.5751 98.0928 33.8256 97.5836C33.9888 97.2571 34.0636 96.7211 34.0636 95.9502V95.4416C33.8758 95.7813 33.6624 96.0424 33.4496 96.2119C33.0484 96.5254 32.5349 96.6949 31.8958 96.6949C30.9058 96.6949 30.1286 96.3291 29.5403 95.6105C28.9514 94.8925 28.6632 93.9122 28.6632 92.6844C28.6632 91.4965 28.9514 90.5031 29.5152 89.6935C30.0789 88.8833 30.8812 88.4789 31.9209 88.4789C32.2844 88.4789 32.6228 88.5443 32.9109 88.6615ZM33.5877 94.3958C33.9135 94.0306 34.0761 93.4429 34.0761 92.6327C34.0761 91.8748 33.9261 91.3002 33.6128 90.8951C33.2995 90.4906 32.8984 90.3074 32.3848 90.3074C31.683 90.3074 31.1945 90.6471 30.9309 91.3395C30.7934 91.7053 30.718 92.1622 30.718 92.6981C30.718 93.1687 30.7928 93.5732 30.9434 93.939C31.219 94.6183 31.6955 94.9449 32.3974 94.9449C32.8733 94.958 33.2744 94.7623 33.5877 94.3958ZM42.7102 88.831C43.2488 89.079 43.6876 89.4704 44.0386 90.0195C44.3518 90.49 44.5521 91.0516 44.6526 91.6785C44.7028 92.0444 44.7279 92.5797 44.7153 93.259H39.1261C39.1512 94.0555 39.4268 94.6177 39.9284 94.9443C40.2291 95.14 40.6052 95.2447 41.0308 95.2447C41.4822 95.2447 41.8576 95.1269 42.1464 94.8782C42.2965 94.7479 42.4346 94.5653 42.5595 94.3298H44.6023C44.5521 94.8003 44.3016 95.2833 43.8628 95.78C43.1735 96.5634 42.2086 96.9423 40.9806 96.9423C39.9655 96.9423 39.0633 96.6158 38.2742 95.9626C37.497 95.3095 37.1084 94.2381 37.1084 92.7623C37.1084 91.3769 37.4593 90.3193 38.1612 89.5745C38.863 88.8304 39.7777 88.4645 40.9053 88.4645C41.582 88.4658 42.1841 88.5829 42.7102 88.831ZM39.715 90.6471C39.4268 90.9475 39.2516 91.3657 39.1763 91.8886H42.6348C42.5972 91.3395 42.422 90.9088 42.0962 90.6215C41.7704 90.3336 41.3818 90.1902 40.9059 90.1902C40.3917 90.1896 39.9906 90.3336 39.715 90.6471ZM51.7077 89.1314C52.2087 89.5627 52.4592 90.2819 52.4592 91.2871V96.6694H50.417V91.8094C50.417 91.3918 50.3667 91.0653 50.2543 90.8428C50.0541 90.4383 49.6906 90.2295 49.1388 90.2295C48.462 90.2295 47.9987 90.5293 47.7476 91.1301C47.6226 91.4442 47.5473 91.8487 47.5473 92.3448V96.6687H45.5421V88.687H47.4845V89.8493C47.735 89.4449 47.9855 89.1438 48.2109 88.9612C48.6246 88.6347 49.1382 88.4782 49.7773 88.4782C50.567 88.4788 51.2061 88.7001 51.7077 89.1314ZM53.3362 90.242V88.7524H54.4016V86.5188H56.3816V88.7524H57.6222V90.242H56.3816V94.4619C56.3816 94.7878 56.4187 94.9972 56.5066 95.0751C56.5813 95.1537 56.8324 95.1929 57.2336 95.1929H57.4213C57.4835 95.1929 57.5588 95.1929 57.6216 95.1798V96.7479L56.6692 96.7865C55.7168 96.8252 55.0777 96.6563 54.7268 96.2774C54.5014 96.0424 54.3884 95.6635 54.3884 95.1668V90.2426H53.3362V90.242ZM65.1155 95.689C64.4639 96.5254 63.4864 96.9436 62.1712 96.9436C60.8553 96.9436 59.8653 96.5254 59.2262 95.689C58.5871 94.8533 58.2613 93.8474 58.2613 92.6844C58.2613 91.5352 58.5871 90.5293 59.2262 89.6935C59.8653 88.8572 60.8553 88.4265 62.1712 88.4265C63.487 88.4265 64.4764 88.8441 65.1155 89.6935C65.7546 90.5418 66.0804 91.5352 66.0804 92.6844C66.093 93.8605 65.7672 94.8539 65.1155 95.689ZM63.5115 94.5398C63.8248 94.1091 63.9874 93.4822 63.9874 92.6844C63.9874 91.8886 63.8248 91.2734 63.5115 90.8297C63.1982 90.3984 62.7469 90.1765 62.158 90.1765C61.5691 90.1765 61.1178 90.3978 60.8045 90.8297C60.4912 91.2603 60.328 91.8748 60.328 92.6844C60.328 93.4952 60.4906 94.1085 60.8045 94.5398C61.1178 94.9711 61.5685 95.1936 62.158 95.1936C62.7469 95.1929 63.1982 94.9711 63.5115 94.5398Z" fill="white"/>
<path d="M24.3767 104.743H23.2863C23.2737 104.181 23.1237 103.75 22.8104 103.424C22.5097 103.097 22.0212 102.941 21.3564 102.941C20.5422 102.941 19.8277 103.241 19.2012 103.841C18.5747 104.443 18.1484 105.357 17.8979 106.585C17.6976 107.59 17.7479 108.413 18.0731 109.04C18.3989 109.667 19.0129 109.981 19.9025 109.981C20.7293 109.981 21.4186 109.655 21.9949 108.988C22.2956 108.636 22.5587 108.178 22.7841 107.616H23.8745C23.5989 108.517 23.1225 109.288 22.4457 109.903C21.6314 110.647 20.6665 111.013 19.5635 111.013C18.5986 111.013 17.8591 110.712 17.3329 110.098C16.6436 109.301 16.4685 108.06 16.8068 106.388C17.0699 105.121 17.596 104.076 18.4109 103.266C19.2879 102.378 20.3407 101.933 21.5687 101.933C22.6215 101.933 23.3736 102.221 23.8369 102.796C24.3014 103.372 24.4646 104.012 24.3767 104.743ZM30.0407 105.474C30.1782 105.788 30.241 106.167 30.2159 106.585C30.2159 106.872 30.1531 107.342 30.0281 107.969H25.6047C25.4917 108.609 25.5294 109.119 25.7297 109.498C25.9174 109.89 26.306 110.072 26.8697 110.072C27.3958 110.072 27.8598 109.89 28.2484 109.524C28.4738 109.315 28.6495 109.067 28.787 108.792H29.7896C29.7149 109.027 29.5768 109.275 29.3765 109.562C29.1762 109.85 28.9628 110.072 28.7374 110.255C28.3614 110.568 27.9483 110.778 27.4592 110.894C27.1962 110.96 26.9206 110.986 26.6073 110.986C25.8552 110.986 25.2789 110.698 24.8777 110.137C24.4766 109.575 24.3767 108.765 24.5896 107.746C24.7898 106.741 25.2287 105.917 25.8803 105.291C26.532 104.663 27.284 104.351 28.136 104.351C28.5616 104.351 28.9628 104.455 29.3137 104.663C29.6521 104.873 29.9026 105.147 30.0407 105.474ZM29.1637 107.133C29.2139 106.676 29.2013 106.311 29.1009 106.036C28.9257 105.527 28.512 105.279 27.8729 105.279C27.4096 105.279 26.9833 105.447 26.5947 105.801C26.2061 106.154 25.9431 106.597 25.8175 107.133H29.1637ZM31.8575 104.495H32.8225L32.5971 105.578C32.722 105.37 32.9606 105.108 33.336 104.807C33.6995 104.508 34.0881 104.351 34.4893 104.351H34.5891C34.6393 104.351 34.714 104.364 34.8145 104.377L34.5891 105.487C34.5263 105.474 34.4767 105.474 34.4265 105.461H34.2639C33.7503 105.461 33.3241 105.631 32.9857 105.97C32.6479 106.31 32.4219 106.702 32.334 107.159L31.6071 110.778H30.5925L31.8575 104.495ZM36.0682 102.745H37.0959L36.733 104.495H37.6979L37.5227 105.357H36.5572L35.7172 109.459C35.6676 109.68 35.7172 109.824 35.8428 109.903C35.9175 109.942 36.043 109.968 36.2308 109.968H36.3934C36.4436 109.968 36.5189 109.955 36.5937 109.955L36.431 110.791C36.3061 110.83 36.1806 110.856 36.0556 110.87C35.9301 110.883 35.7926 110.895 35.6419 110.895C35.166 110.895 34.8773 110.765 34.7523 110.517C34.6274 110.269 34.6148 109.943 34.7021 109.537L35.554 105.384H34.7397L34.9149 104.521H35.7292L36.0682 102.745ZM38.5367 104.52H39.5643L38.2987 110.778H37.271L38.5367 104.52ZM39.0257 102.156H40.0534L39.8029 103.358H38.7752L39.0257 102.156ZM41.8075 102.574C42.1207 102.209 42.6092 102.039 43.2859 102.039H43.4862C43.549 102.039 43.6237 102.052 43.7116 102.052L43.5113 103.018C43.4115 103.005 43.3361 103.005 43.2859 103.005H43.1484C42.8351 103.005 42.6349 103.084 42.547 103.253C42.4591 103.423 42.3342 103.841 42.1961 104.52H43.1986L43.036 105.356H42.0209L40.9179 110.778H39.9153L41.0177 105.356H40.1783L40.3409 104.52H41.1803L41.3806 103.54C41.4942 103.097 41.6442 102.783 41.8075 102.574ZM43.9752 104.52H45.0029L43.7373 110.778H42.7096L43.9752 104.52ZM44.4637 102.156H45.4914L45.2409 103.358H44.2132L44.4637 102.156ZM50.8546 105.474C50.9921 105.788 51.0549 106.167 51.0298 106.585C51.0298 106.872 50.967 107.342 50.8421 107.969H46.4186C46.3062 108.609 46.3433 109.119 46.5436 109.498C46.7313 109.89 47.1199 110.072 47.6842 110.072C48.2104 110.072 48.6743 109.89 49.0623 109.524C49.2877 109.315 49.4634 109.067 49.6009 108.792H50.6035C50.5288 109.027 50.3907 109.275 50.1904 109.562C49.9901 109.85 49.7767 110.072 49.5513 110.255C49.1753 110.568 48.7616 110.778 48.2731 110.894C48.0101 110.96 47.7345 110.986 47.4212 110.986C46.6691 110.986 46.0928 110.698 45.6916 110.137C45.2905 109.575 45.1906 108.765 45.4035 107.746C45.6038 106.741 46.0426 105.917 46.6942 105.291C47.3459 104.663 48.098 104.351 48.9499 104.351C49.3761 104.351 49.7767 104.455 50.1276 104.663C50.466 104.873 50.7171 105.147 50.8546 105.474ZM49.9776 107.133C50.0278 106.676 50.0152 106.311 49.9148 106.036C49.7396 105.527 49.3259 105.279 48.6868 105.279C48.2229 105.279 47.7972 105.447 47.4086 105.801C47.02 106.154 46.757 106.597 46.632 107.133H49.9776ZM55.9297 104.691C56.0923 104.808 56.2555 105.017 56.4181 105.304L57.0698 102.13H58.0473L56.2675 110.778H55.3528L55.528 109.903C55.2147 110.294 54.8763 110.568 54.5128 110.738C54.1499 110.908 53.7613 110.999 53.3476 110.999C52.6709 110.999 52.1573 110.699 51.7813 110.111C51.4058 109.524 51.3305 108.74 51.5308 107.761C51.7185 106.846 52.0945 106.049 52.6834 105.383C53.2723 104.717 53.9742 104.377 54.8135 104.377C55.2906 104.377 55.6541 104.481 55.9297 104.691ZM53.8749 110.085C54.3388 110.085 54.7771 109.876 55.1531 109.458C55.5411 109.04 55.8173 108.439 55.9799 107.642C56.1425 106.846 56.1049 106.258 55.8675 105.879C55.6296 105.5 55.2912 105.304 54.8273 105.304C54.3137 105.304 53.8624 105.513 53.4612 105.918C53.0601 106.322 52.7845 106.924 52.6218 107.708C52.4837 108.387 52.5088 108.948 52.684 109.392C52.8723 109.85 53.2609 110.085 53.8749 110.085Z" fill="white"/>
<path d="M0.416992 119.791H74.6004V148.66H0.416992V119.791Z" fill="#717071"/>
<path d="M12.6459 130.567C12.5838 130.998 12.6089 131.337 12.7213 131.599C12.9467 132.096 13.4608 132.344 14.2751 132.344C14.6386 132.344 14.9895 132.291 15.3028 132.187C15.9293 131.977 16.2928 131.599 16.4052 131.05C16.4931 130.645 16.4303 130.345 16.2175 130.175C16.0046 130.006 15.6537 129.862 15.1402 129.73L14.2129 129.495C13.6115 129.352 13.1978 129.182 12.9598 128.999C12.5712 128.686 12.4337 128.215 12.5587 127.601C12.6962 126.922 13.0345 126.373 13.5612 125.942C14.0999 125.512 14.7767 125.289 15.5915 125.289C16.3436 125.289 16.945 125.485 17.3964 125.864C17.8472 126.243 17.9853 126.844 17.8095 127.68H16.8948C16.9319 127.275 16.8823 126.974 16.7693 126.753C16.5564 126.361 16.08 126.165 15.3781 126.165C14.8018 126.165 14.363 126.296 14.0622 126.544C13.7615 126.792 13.5738 127.092 13.511 127.419C13.4363 127.784 13.5236 128.059 13.7866 128.228C13.9618 128.333 14.363 128.476 15.0146 128.634L15.9795 128.868C16.4429 128.986 16.7812 129.143 17.0072 129.339C17.3958 129.691 17.5208 130.202 17.3833 130.867C17.2081 131.704 16.8069 132.291 16.1553 132.644C15.5036 132.997 14.7892 133.179 14.0252 133.179C13.1356 133.179 12.4839 132.944 12.0702 132.461C11.6565 131.991 11.5441 131.351 11.7193 130.541H12.6465V130.567H12.6459ZM25.2897 126.557C25.6275 127.223 25.7028 128.073 25.49 129.104C25.2646 130.228 24.8007 131.155 24.0994 131.9C23.2846 132.775 22.282 133.206 21.0917 133.206C19.9893 133.206 19.1995 132.828 18.7236 132.056C18.3099 131.325 18.2226 130.398 18.448 129.274C18.6483 128.255 19.0746 127.393 19.7011 126.674C20.5154 125.747 21.5179 125.289 22.7334 125.289C23.999 125.289 24.8515 125.707 25.2897 126.557ZM24.4755 129.117C24.6506 128.242 24.5759 127.524 24.2501 126.988C23.9243 126.453 23.373 126.177 22.6084 126.177C21.8689 126.177 21.2047 126.439 20.6284 126.974C20.052 127.51 19.6509 128.294 19.438 129.326C19.2629 130.162 19.3251 130.854 19.6132 131.429C19.9014 132.004 20.4903 132.278 21.405 132.278C22.2569 132.278 22.9462 131.952 23.4603 131.311C23.9613 130.698 24.3123 129.954 24.4755 129.117ZM27.2321 125.486H28.2096L26.8561 132.096H30.5029L30.3278 132.984H25.7166L27.2321 125.486ZM33.7104 125.486L32.7705 130.122C32.6576 130.672 32.6701 131.116 32.7831 131.482C32.9583 132.03 33.3971 132.292 34.0864 132.292C34.9132 132.292 35.5278 131.992 35.9535 131.403C36.1789 131.09 36.3421 130.658 36.4545 130.11L37.3943 125.473H38.3843L37.5198 129.679C37.3321 130.607 37.069 131.312 36.7307 131.809C36.1041 132.71 35.1894 133.168 33.974 133.168C32.7586 133.168 32.0316 132.71 31.7811 131.809C31.643 131.312 31.6681 130.607 31.8558 129.679L32.7203 125.473H33.7104V125.486ZM44.9761 125.486L44.8009 126.374H42.3827L41.0292 132.984H40.0391L41.3801 126.387H38.9618L39.1376 125.498H44.9767V125.486H44.9761ZM45.941 125.486H46.9311L45.3898 132.984H44.3998L45.941 125.486ZM54.0609 126.557C54.3993 127.223 54.4747 128.073 54.2612 129.104C54.0358 130.228 53.5719 131.155 52.87 131.9C52.0558 132.775 51.0532 133.206 49.8629 133.206C48.7599 133.206 47.9707 132.828 47.4948 132.056C47.0811 131.325 46.9932 130.398 47.2192 129.274C47.4195 128.255 47.8458 127.393 48.4723 126.674C49.2866 125.747 50.2892 125.289 51.5046 125.289C52.7702 125.289 53.6227 125.707 54.0609 126.557ZM53.2467 129.117C53.4218 128.242 53.3465 127.524 53.0213 126.988C52.6961 126.453 52.1443 126.177 51.3796 126.177C50.6401 126.177 49.9759 126.439 49.3996 126.974C48.8232 127.51 48.4221 128.294 48.2093 129.326C48.0341 130.162 48.0969 130.854 48.3844 131.429C48.6726 132.004 49.2615 132.278 50.1768 132.278C51.0287 132.278 51.718 131.952 52.2321 131.311C52.7325 130.698 53.0835 129.954 53.2467 129.117ZM56.0033 125.486H57.156L59.5491 131.56L60.7897 125.486H61.7169L60.1757 132.984H59.0858L56.6299 126.922L55.4019 132.984H54.4746L56.0033 125.486Z" fill="white"/>
<path d="M9.45259 140.365C9.39041 140.796 9.41492 141.135 9.52792 141.397C9.7533 141.893 10.2668 142.141 11.0817 142.141C11.4452 142.141 11.7955 142.089 12.1094 141.985C12.7359 141.775 13.0994 141.397 13.2118 140.848C13.2997 140.443 13.2369 140.142 13.0241 139.973C12.8113 139.803 12.4603 139.659 11.9462 139.528L11.0189 139.294C10.4175 139.15 10.0038 138.98 9.76586 138.797C9.37786 138.483 9.23976 138.013 9.3653 137.399C9.50281 136.72 9.84119 136.171 10.3679 135.74C10.9065 135.31 11.5833 135.087 12.3982 135.087C13.1502 135.087 13.7517 135.282 14.2024 135.662C14.6538 136.041 14.7913 136.642 14.6162 137.477H13.7015C13.7391 137.073 13.6889 136.772 13.5765 136.55C13.3637 136.158 12.8872 135.962 12.1853 135.962C11.609 135.962 11.1702 136.094 10.8695 136.341C10.5688 136.589 10.381 136.89 10.3183 137.216C10.2429 137.582 10.3308 137.856 10.5939 138.026C10.7696 138.131 11.1702 138.274 11.8218 138.431L12.7868 138.667C13.2501 138.784 13.5885 138.94 13.8144 139.136C14.2024 139.489 14.328 139.999 14.1899 140.665C14.0147 141.501 13.6136 142.089 12.9619 142.442C12.3103 142.794 11.5959 142.977 10.8318 142.977C9.94222 142.977 9.29057 142.742 8.87687 142.259C8.46316 141.789 8.35076 141.149 8.52593 140.339H9.45319V140.365H9.45259ZM16.4826 135.283H19.7158C20.3548 135.283 20.8313 135.466 21.1446 135.845C21.4579 136.223 21.5452 136.746 21.4076 137.425C21.2953 138.013 21.0065 138.523 20.5683 138.954C20.1301 139.384 19.5531 139.607 18.8262 139.607H16.5705L15.9314 142.781H14.9539L16.4826 135.283ZM20.0667 136.315C19.8664 136.21 19.5908 136.158 19.2148 136.158H17.2724L16.7463 138.744H18.6887C19.1275 138.744 19.5029 138.653 19.8162 138.457C20.1295 138.261 20.3297 137.922 20.4302 137.438C20.5426 136.89 20.4176 136.524 20.0667 136.315ZM23.0117 135.283H28.2494L28.0616 136.198H23.7637L23.3004 138.471H27.2731L27.0979 139.333H23.1241L22.6105 141.881H26.9837L26.8086 142.769H21.4955L23.0117 135.283ZM34.9912 137.53H34.0389C34.0263 137.047 33.8888 136.668 33.6258 136.38C33.3627 136.093 32.9364 135.949 32.3601 135.949C31.6457 135.949 31.0317 136.21 30.4931 136.733C29.9544 137.256 29.5784 138.053 29.353 139.124C29.1778 139.999 29.2274 140.718 29.503 141.267C29.7912 141.815 30.3173 142.089 31.0945 142.089C31.8089 142.089 32.4229 141.802 32.9119 141.227C33.175 140.927 33.4004 140.522 33.6013 140.038H34.5536C34.3031 140.822 33.8894 141.489 33.3131 142.025C32.6118 142.665 31.7719 142.991 30.8069 142.991C29.9676 142.991 29.3285 142.729 28.8645 142.195C28.2631 141.502 28.1125 140.418 28.4006 138.968C28.626 137.858 29.0899 136.956 29.7918 136.251C30.5564 135.48 31.4711 135.101 32.5359 135.101C33.4506 135.101 34.1022 135.349 34.5034 135.846C34.9034 136.341 35.066 136.903 34.9912 137.53ZM36.7704 135.283H37.7604L36.2312 142.781H35.2411L36.7704 135.283ZM41.2692 135.283H42.3716L43.4495 142.781H42.3848L42.1091 140.535H39.2646L38.0366 142.781H37.0341L41.2692 135.283ZM41.9705 139.711L41.5567 136.394L39.7273 139.711H41.9705ZM45.7171 135.283H46.6946L45.3536 141.881H49.0005L48.8253 142.769H44.2142L45.7171 135.283ZM51.3691 135.283H52.3592L50.8305 142.781H49.8405L51.3691 135.283ZM53.3737 140.365C53.3115 140.796 53.336 141.135 53.449 141.397C53.6744 141.893 54.188 142.141 55.0028 142.141C55.3663 142.141 55.7173 142.089 56.0305 141.985C56.6571 141.775 57.0205 141.397 57.1329 140.848C57.2208 140.443 57.1581 140.142 56.9452 139.973C56.7324 139.803 56.3815 139.659 55.8679 139.528L54.9407 139.294C54.3392 139.15 53.9255 138.98 53.6876 138.797C53.2996 138.483 53.1615 138.013 53.287 137.399C53.4245 136.72 53.7629 136.171 54.2896 135.74C54.8283 135.31 55.505 135.087 56.3199 135.087C57.072 135.087 57.6734 135.282 58.1242 135.662C58.5755 136.041 58.713 136.642 58.5379 137.477H57.6232C57.6608 137.073 57.6106 136.772 57.4982 136.55C57.2854 136.158 56.8089 135.962 56.107 135.962C55.5307 135.962 55.0919 136.094 54.7912 136.341C54.4905 136.589 54.3028 136.89 54.24 137.216C54.1652 137.582 54.2525 137.856 54.5156 138.026C54.6913 138.131 55.0919 138.274 55.7436 138.431L56.7085 138.667C57.1718 138.784 57.5102 138.94 57.7362 139.136C58.1242 139.489 58.2497 139.999 58.1116 140.665C57.9364 141.501 57.5353 142.089 56.8836 142.442C56.232 142.794 55.5176 142.977 54.7535 142.977C53.8639 142.977 53.2123 142.742 52.7986 142.259C52.3849 141.789 52.2725 141.149 52.4476 140.339H53.3749V140.365H53.3737ZM65.5542 135.283L65.379 136.172H62.9482L61.6072 142.769H60.6172L61.9581 136.172H59.5399L59.715 135.283H65.5542Z" fill="white"/>
<path d="M37.5474 11.1081L9.44043 28.0112V61.7663L17.473 66.5994L17.4109 32.8312L37.4978 20.7612L57.5853 32.8312V66.5863L65.6054 61.7663V27.985L37.5474 11.1081ZM41.6576 66.4168L37.6473 68.8462L33.625 66.443V32.6617L25.6055 37.4948L25.6181 71.263L37.6479 78.4999L49.6902 71.263V37.4948L41.6576 32.6617V66.4168Z" fill="white"/>
</svg>
