<svg width="74" height="150" viewBox="0 0 74 150" fill="none" xmlns="http://www.w3.org/2000/svg">
<path d="M37.0223 0.840973L0.600586 22.7931V149.166H73.4441V22.7931L37.0223 0.840973Z" fill="#316094"/>
<g opacity="0.2">
<g opacity="0.2">
<path opacity="0.2" d="M73.4441 66.3263L37.0225 88.2785V149.166H73.4441V66.3263Z" fill="black"/>
</g>
</g>
<g opacity="0.1">
<g opacity="0.1">
<path opacity="0.1" d="M0.600586 66.3263V149.166H37.0223V88.2785L0.600586 66.3263Z" fill="black"/>
</g>
</g>
<path d="M10.7549 60.9884V29.3946L37.024 13.5236L63.2221 29.3205V60.9884L55.6963 65.5124V33.9186L36.953 22.5716L18.2096 33.9186V65.5124L10.7549 60.9884Z" fill="white"/>
<path d="M25.7334 70.0349V38.442L33.1881 33.9181V65.5852L36.951 67.8101L40.7138 65.511V33.9181L48.2395 38.442V70.0349L36.951 76.8578L25.7334 70.0349Z" fill="white"/>
<path d="M14.7295 85.089H16.9306L18.0666 88.3528L19.2026 85.089H21.3327V91.2456H19.6286V87.3885L18.2086 91.2456H17.6406L16.2205 87.3885V91.2456H14.7295V85.089Z" fill="white"/>
<path d="M24.3131 85.089H26.5142L28.3603 91.2456H26.5852L26.3012 90.133H24.3841L24.1001 91.2456H22.5381L24.3131 85.089ZM24.6682 88.872H25.9462L25.3072 86.4984L24.6682 88.872Z" fill="white"/>
<path d="M28.8564 88.2048C28.8564 86.2765 30.2055 85.0158 31.9096 85.0158C33.3296 85.0158 34.5367 85.6832 34.6787 87.2407H33.0456C32.9746 86.6474 32.6196 86.3507 31.9806 86.3507C31.1285 86.3507 30.6315 87.0182 30.6315 88.1306V88.2048C30.6315 89.1689 30.9865 89.9847 31.9806 89.9847C32.8326 89.9847 33.1166 89.5397 33.1166 89.0206H32.0516V87.7598H34.8207V88.5014C34.8207 90.0588 33.8266 91.2455 31.9096 91.2455C29.9215 91.3196 28.8564 90.0588 28.8564 88.2048Z" fill="white"/>
<path d="M36.0283 85.089H40.0755V86.4242H37.7324V87.5368H39.5785V88.7236H37.7324V89.9104H40.2175V91.2456H36.0283V85.089Z" fill="white"/>
<path d="M41.4248 85.089H43.3419L45.259 88.5753V85.089H46.679V91.2456H45.046L42.9159 87.3885V91.2456H41.4248V85.089Z" fill="white"/>
<path d="M49.3768 86.4242H47.8857V85.089H52.572V86.4242H51.0809V91.2456H49.3768V86.4242Z" fill="white"/>
<path d="M53.21 88.2051C53.21 86.2767 54.559 85.0158 56.334 85.0158C58.1091 85.0158 59.4581 86.2025 59.4581 88.1309V88.2051C59.4581 90.0594 58.2511 91.3944 56.334 91.3944C54.417 91.3203 53.21 90.0594 53.21 88.2051ZM57.6831 88.2051C57.6831 87.0184 57.186 86.425 56.334 86.425C55.482 86.425 54.985 87.0184 54.985 88.1309V88.2051C54.985 89.3177 55.553 89.9852 56.334 89.9852C57.186 89.9852 57.6831 89.3177 57.6831 88.2051Z" fill="white"/>
<path d="M13.8057 98.5127C13.8057 96.5843 15.0837 95.3234 16.7878 95.3234C18.3498 95.3234 19.3438 96.0651 19.4859 97.6968H17.7818C17.7108 97.1035 17.3558 96.7326 16.7878 96.7326C16.0067 96.7326 15.5807 97.326 15.5807 98.4385V98.5127C15.5807 99.6252 16.0067 100.219 16.8588 100.219C17.4268 100.219 17.8528 99.9219 17.9238 99.1802H19.6279C19.4859 100.738 18.4208 101.554 16.8588 101.554C14.7997 101.628 13.8057 100.367 13.8057 98.5127Z" fill="white"/>
<path d="M20.6943 95.3976H24.8125V96.7328H22.3984V97.7712H24.3155V99.0322H22.3984V100.145H24.8835V101.554H20.6943V95.3976Z" fill="white"/>
<path d="M26.1599 95.3976H28.432C29.994 95.3976 30.846 96.0651 30.846 97.3259C30.846 98.2159 30.42 98.6609 29.781 98.9576L31.2011 101.479H29.426L28.2189 99.2542H27.7929V101.479H26.0889V95.3976H26.1599ZM28.361 98.2159C28.929 98.2159 29.213 97.9934 29.213 97.4743C29.213 96.9551 28.929 96.8068 28.361 96.8068H27.7929V98.2901H28.361V98.2159Z" fill="white"/>
<path d="M33.2603 96.7328H31.6982V95.3976H36.4554V96.7328H34.9644V101.554H33.2603V96.7328Z" fill="white"/>
<path d="M39.3652 95.3976H37.6611V101.554H39.3652V95.3976Z" fill="white"/>
<path d="M40.9287 95.3976H44.9048V96.7328H42.6328V98.0679H44.4078V99.3289H42.6328V101.554H40.9287V95.3976Z" fill="white"/>
<path d="M47.8143 95.3976H46.1104V101.554H47.8143V95.3976Z" fill="white"/>
<path d="M49.376 95.3976H53.4231V96.7328H51.08V97.7712H52.9261V99.0322H51.08V100.145H53.5651V101.554H49.376V95.3976Z" fill="white"/>
<path d="M54.8428 95.3976H56.9729C59.032 95.3976 60.097 96.5101 60.097 98.3642V98.4384C60.097 100.367 59.032 101.479 56.9729 101.479H54.8428V95.3976ZM56.9019 100.144C57.8959 100.144 58.3219 99.6251 58.3219 98.4384V98.3642C58.3219 97.1776 57.8959 96.7326 56.8309 96.7326H56.4758V100.144H56.9019Z" fill="white"/>
<path d="M9.90137 108.599H11.8894C13.4515 108.599 14.2325 109.266 14.2325 110.824V111.343C14.2325 112.827 13.3805 113.568 11.8894 113.568H11.1794V117.054H9.90137V108.599ZM11.8894 112.604C12.5995 112.604 13.0255 112.233 13.0255 111.343V110.898C13.0255 110.008 12.5995 109.711 11.8894 109.711H11.1794V112.604H11.8894Z" fill="white"/>
<path d="M15.6514 110.899H16.8584V111.789C17.1424 111.121 17.5684 110.824 18.2784 110.824V112.011C17.3554 112.011 16.8584 112.308 16.8584 113.198V116.98H15.6514V110.899Z" fill="white"/>
<path d="M19.3428 114.904V113.05C19.3428 111.566 20.1948 110.824 21.4729 110.824C22.7509 110.824 23.6029 111.566 23.6029 113.05V114.904C23.6029 116.387 22.7509 117.129 21.4729 117.129C20.1948 117.129 19.3428 116.387 19.3428 114.904ZM22.3959 114.904V113.05C22.3959 112.16 22.1119 111.789 21.4729 111.789C20.8338 111.789 20.5498 112.234 20.5498 113.05V114.978C20.5498 115.794 20.8338 116.239 21.4729 116.239C22.1119 116.165 22.3959 115.72 22.3959 114.904Z" fill="white"/>
<path d="M25.308 111.863H24.6689V110.899H25.308V109.86C25.308 108.822 25.876 108.154 26.941 108.154C27.225 108.154 27.438 108.154 27.509 108.229V109.193C27.438 109.193 27.296 109.119 27.083 109.119C26.586 109.119 26.444 109.341 26.444 109.86V110.899H27.438V111.863H26.444V117.055H25.237L25.308 111.863Z" fill="white"/>
<path d="M28.4307 114.904V113.05C28.4307 111.566 29.2827 110.824 30.4897 110.824C31.6968 110.824 32.5488 111.492 32.5488 113.05V114.311H29.6377V114.978C29.6377 115.868 29.9217 116.239 30.5607 116.239C31.1288 116.239 31.4128 115.943 31.4838 115.349H32.5488C32.4778 116.61 31.7678 117.204 30.5607 117.204C29.2827 117.129 28.4307 116.388 28.4307 114.904ZM29.6377 113.346H31.4128V112.976C31.4128 112.085 31.0577 111.714 30.5607 111.714C29.9927 111.714 29.6377 112.085 29.6377 113.05V113.346Z" fill="white"/>
<path d="M33.8994 115.275H35.0355C35.0355 115.942 35.3195 116.239 35.8165 116.239C36.3135 116.239 36.5265 116.016 36.5265 115.497C36.5265 114.978 36.1715 114.756 35.5325 114.459C34.5384 113.94 34.0414 113.495 34.0414 112.456C34.0414 111.418 34.8224 110.824 35.8165 110.824C36.8815 110.824 37.5915 111.344 37.5915 112.605H36.4555C36.4555 112.011 36.1715 111.789 35.7455 111.789C35.3195 111.789 35.1065 112.011 35.1065 112.456C35.1065 112.975 35.3195 113.124 36.1005 113.495C37.0235 113.94 37.6625 114.385 37.6625 115.497C37.6625 116.61 37.0235 117.277 35.8165 117.277C34.5384 117.129 33.8994 116.462 33.8994 115.275Z" fill="white"/>
<path d="M38.8682 115.275H40.0042C40.0042 115.942 40.2882 116.239 40.7852 116.239C41.2822 116.239 41.4952 116.016 41.4952 115.497C41.4952 114.978 41.1402 114.756 40.5012 114.459C39.5072 113.94 39.0102 113.495 39.0102 112.456C39.0102 111.418 39.7912 110.824 40.7852 110.824C41.8502 110.824 42.5602 111.344 42.5602 112.605H41.4242C41.4242 112.011 41.1402 111.789 40.7142 111.789C40.2882 111.789 40.0752 112.011 40.0752 112.456C40.0752 112.975 40.2882 113.124 41.0692 113.495C41.9922 113.94 42.6312 114.385 42.6312 115.497C42.6312 116.61 41.9922 117.277 40.7852 117.277C39.5072 117.129 38.8682 116.462 38.8682 115.275Z" fill="white"/>
<path d="M43.9795 109.341C43.9795 108.97 44.2635 108.599 44.6895 108.599C45.1155 108.599 45.3995 108.895 45.3995 109.341C45.3995 109.786 45.1155 110.082 44.6895 110.082C44.1925 110.082 43.9795 109.711 43.9795 109.341ZM44.0505 110.898H45.2575V117.054H44.0505V110.898Z" fill="white"/>
<path d="M46.749 114.904V113.05C46.749 111.566 47.6011 110.824 48.8791 110.824C50.1572 110.824 51.0092 111.566 51.0092 113.05V114.904C51.0092 116.387 50.1572 117.129 48.8791 117.129C47.6011 117.129 46.749 116.387 46.749 114.904ZM49.8021 114.904V113.05C49.8021 112.16 49.5181 111.789 48.8791 111.789C48.2401 111.789 47.9561 112.234 47.9561 113.05V114.978C47.9561 115.794 48.2401 116.239 48.8791 116.239C49.5181 116.165 49.8021 115.72 49.8021 114.904Z" fill="white"/>
<path d="M52.4997 110.899H53.7067V111.64C53.9198 111.121 54.4168 110.75 55.0558 110.75C55.9078 110.75 56.4758 111.344 56.4758 112.53V116.981H55.2688V112.605C55.2688 112.011 55.0558 111.714 54.5588 111.714C54.0618 111.714 53.6357 112.085 53.6357 112.679V116.907H52.4287L52.4997 110.899Z" fill="white"/>
<path d="M57.8955 115.423V115.2C57.8955 113.865 58.6765 113.42 59.9546 113.42H60.5936V112.679C60.5936 112.011 60.4516 111.714 59.8836 111.714C59.3865 111.714 59.1735 112.011 59.1735 112.53H58.0375C58.0375 111.344 58.8185 110.75 59.9546 110.75C61.1616 110.75 61.8006 111.344 61.8006 112.679V116.98H60.6646V116.387C60.4516 116.758 60.1676 117.055 59.4576 117.055C58.4635 117.129 57.8955 116.61 57.8955 115.423ZM60.5936 115.274V114.236H59.9546C59.3155 114.236 58.9605 114.459 58.9605 115.2V115.349C58.9605 115.942 59.1735 116.239 59.6705 116.239C60.3096 116.239 60.5936 115.942 60.5936 115.274Z" fill="white"/>
<path d="M64.6417 108.228H63.4346V117.054H64.6417V108.228Z" fill="white"/>
<path d="M24.9541 126.028V123.209C24.9541 121.355 26.0191 120.317 27.5102 120.317C28.8592 120.317 29.8533 120.984 29.9243 122.764H28.6462C28.5752 121.726 28.2202 121.355 27.5102 121.355C26.7292 121.355 26.3031 121.948 26.3031 123.135V126.028C26.3031 127.214 26.6582 127.882 27.5812 127.882C28.2912 127.882 28.7882 127.437 28.7882 126.398H29.9243C29.9243 128.253 28.8592 128.994 27.5102 128.994C25.8771 128.92 24.9541 127.882 24.9541 126.028Z" fill="white"/>
<path d="M32.5498 119.947H31.3428V128.773H32.5498V119.947Z" fill="white"/>
<path d="M34.1104 126.695V124.84C34.1104 123.357 34.9624 122.615 36.2404 122.615C37.5185 122.615 38.3705 123.357 38.3705 124.84V126.695C38.3705 128.178 37.5185 128.92 36.2404 128.92C34.9624 128.92 34.1104 128.104 34.1104 126.695ZM37.1635 126.695V124.84C37.1635 123.95 36.8795 123.58 36.2404 123.58C35.6014 123.58 35.3174 124.025 35.3174 124.84V126.769C35.3174 127.585 35.6014 128.03 36.2404 128.03C36.8085 127.955 37.1635 127.51 37.1635 126.695Z" fill="white"/>
<path d="M43.7681 128.846H42.5611V128.105C42.3481 128.624 41.9221 128.995 41.212 128.995C40.36 128.995 39.792 128.476 39.792 127.215V122.764H40.999V127.14C40.999 127.734 41.212 128.031 41.709 128.031C42.2061 128.031 42.6321 127.66 42.6321 127.066V122.764H43.8391V128.846H43.7681Z" fill="white"/>
<path d="M49.517 128.847H48.31V128.105C48.0969 128.624 47.5999 128.995 46.9609 128.995C45.9669 128.995 45.2568 128.254 45.2568 126.844V124.842C45.2568 123.433 45.9669 122.691 47.0319 122.691C47.6709 122.691 48.0969 122.987 48.31 123.507V120.095H49.517V128.847ZM48.381 124.842C48.381 123.952 48.0259 123.507 47.3869 123.507C46.8189 123.507 46.4639 123.878 46.4639 124.693V126.77C46.4639 127.586 46.7479 127.957 47.3159 127.957C47.9549 127.957 48.31 127.512 48.31 126.622V124.842H48.381Z" fill="white"/>
<path d="M17.2144 132.183C19.1315 132.183 20.0545 133.073 20.0545 135.001V137.746C20.0545 139.6 19.1315 140.564 17.2854 140.564H15.1553V132.109L17.2144 132.183ZM16.3623 133.221V139.526H17.1434C18.2794 139.526 18.7054 139.007 18.7054 137.746V135.001C18.7054 133.74 18.3504 133.221 17.1434 133.221H16.3623Z" fill="white"/>
<path d="M21.4736 138.413V136.558C21.4736 135.075 22.3257 134.333 23.5327 134.333C24.7397 134.333 25.5918 135.001 25.5918 136.558V137.819H22.6807V138.487C22.6807 139.377 22.9647 139.748 23.6037 139.748C24.1717 139.748 24.4557 139.451 24.5267 138.858H25.5918C25.5208 140.118 24.8107 140.712 23.6037 140.712C22.3257 140.712 21.4736 139.896 21.4736 138.413ZM22.6807 136.929H24.4557V136.558C24.4557 135.668 24.1007 135.297 23.6037 135.297C23.0357 135.297 22.6807 135.668 22.6807 136.632V136.929Z" fill="white"/>
<path d="M26.5869 134.408H27.794L28.788 139.155L29.782 134.408H30.9181L29.498 140.564H28.078L26.5869 134.408Z" fill="white"/>
<path d="M31.9111 138.412V136.558C31.9111 135.075 32.7632 134.333 33.9702 134.333C35.1772 134.333 36.0293 135.001 36.0293 136.558V137.819H33.1182V138.487C33.1182 139.377 33.4022 139.748 34.0412 139.748C34.6092 139.748 34.8932 139.451 34.9642 138.858H36.0293C35.9583 140.118 35.2482 140.712 34.0412 140.712C32.6922 140.712 31.9111 139.896 31.9111 138.412ZM33.0472 136.929H34.8222V136.558C34.8222 135.668 34.4672 135.297 33.9702 135.297C33.4022 135.297 33.0472 135.668 33.0472 136.632V136.929Z" fill="white"/>
<path d="M38.7257 131.738H37.5186V140.564H38.7257V131.738Z" fill="white"/>
<path d="M40.2178 138.487V136.633C40.2178 135.15 41.0698 134.408 42.3479 134.408C43.6259 134.408 44.4779 135.15 44.4779 136.633V138.487C44.4779 139.97 43.6259 140.712 42.3479 140.712C41.0698 140.712 40.2178 139.896 40.2178 138.487ZM43.2709 138.487V136.559C43.2709 135.669 42.9869 135.298 42.3479 135.298C41.7088 135.298 41.4248 135.743 41.4248 136.559V138.487C41.4248 139.303 41.7088 139.748 42.3479 139.748C42.9869 139.748 43.2709 139.303 43.2709 138.487Z" fill="white"/>
<path d="M47.1045 134.408V135.15C47.3175 134.705 47.8145 134.26 48.5246 134.26C49.5186 134.26 50.2286 135.002 50.2286 136.411V138.487C50.2286 139.896 49.5186 140.638 48.4536 140.638C47.8145 140.638 47.3175 140.267 47.1045 139.822V142.566H45.8975V134.334L47.1045 134.408ZM48.0985 139.748C48.6666 139.748 49.0216 139.377 49.0216 138.561V136.485C49.0216 135.669 48.6666 135.298 48.0985 135.298C47.4595 135.298 47.1045 135.743 47.1045 136.559V138.413C47.1045 139.303 47.4595 139.748 48.0985 139.748Z" fill="white"/>
<path d="M51.5771 138.413V136.558C51.5771 135.075 52.4292 134.333 53.6363 134.333C54.8434 134.333 55.6954 135.001 55.6954 136.558V137.819H52.7842V138.487C52.7842 139.377 53.0682 139.748 53.7073 139.748C54.2753 139.748 54.5593 139.451 54.6304 138.858H55.6954C55.6244 140.118 54.9144 140.712 53.7073 140.712C52.3582 140.712 51.5771 139.896 51.5771 138.413ZM52.7132 136.929H54.4883V136.558C54.4883 135.668 54.1333 135.297 53.6363 135.297C53.0682 135.297 52.7132 135.668 52.7132 136.632V136.929Z" fill="white"/>
<path d="M57.1143 134.407H58.3212V135.297C58.6052 134.63 59.0312 134.333 59.7412 134.333V135.52C58.8182 135.52 58.3212 135.817 58.3212 136.707V140.489H57.1143V134.407Z" fill="white"/>
</svg>
