<svg width="74" height="150" viewBox="0 0 74 150" fill="none" xmlns="http://www.w3.org/2000/svg">
<path d="M73.468 149.166V22.7931L37.0462 0.840973L0.624512 22.7931V149.166H73.468Z" fill="#134840"/>
<path d="M73.4681 66.3263L37.0464 88.2785V149.166H73.4681V66.3263Z" fill="#1C3B35"/>
<path d="M0.624512 66.3263V149.166H37.0462V88.2785L0.624512 66.3263Z" fill="#19413A"/>
<path d="M10.7769 60.9875V29.3937L36.975 13.5226L63.2441 29.3195V60.9875L55.7893 65.5115V33.9177L36.975 22.5706L18.1606 33.9177L18.2316 65.5115L10.7769 60.9875Z" fill="white"/>
<path d="M25.7573 70.0344V38.4411L33.2121 33.9171V65.5105L36.975 67.8096L40.7378 65.5105V33.9171L48.2636 38.4411V70.0344L36.975 76.8574L25.7573 70.0344Z" fill="white"/>
<path d="M10.9175 96.5099H13.1186L14.1836 99.773L15.3197 96.5099H17.5208V102.665H15.8167V98.8089L14.3966 102.665H13.8286L12.4085 98.8089V102.665H10.9175V96.5099Z" fill="white"/>
<path d="M20.7865 100.292H22.0646L21.4256 97.919L20.7865 100.292ZM20.5025 96.5099H22.7036L24.5497 102.665H22.7746L22.4196 101.553H20.5025L20.1475 102.665H18.5854L20.5025 96.5099Z" fill="white"/>
<path d="M24.9761 99.626V99.5518C24.9761 97.6976 26.2541 96.4367 28.1002 96.4367C29.4492 96.4367 30.7273 97.1042 30.7983 98.6618H29.0942C29.0232 98.0684 28.6682 97.7717 28.0292 97.7717C27.1772 97.7717 26.6801 98.4393 26.6801 99.5518V99.626C26.6801 100.59 27.0351 101.406 28.0292 101.406C28.8812 101.406 29.1652 100.961 29.1652 100.516H28.1002V99.3293H30.8693V100.071C30.8693 101.629 29.8752 102.815 27.9582 102.815C26.1121 102.741 24.9761 101.406 24.9761 99.626Z" fill="white"/>
<path d="M32.146 96.5099H36.2642V97.8448H33.8501V98.9573H35.7671V100.144H33.8501V101.256H36.4062V102.665H32.146V96.5099Z" fill="white"/>
<path d="M37.6128 96.5099H39.5299L41.447 99.9214V96.5099H42.867V102.665H41.2339L39.1039 98.8089V102.665H37.6128V96.5099Z" fill="white"/>
<path d="M45.4945 97.8448H44.0034V96.5099H48.7606V97.8448H47.2695V102.665H45.4945V97.8448Z" fill="white"/>
<path d="M53.8001 99.5518V99.4777C53.8001 98.3651 53.3031 97.6976 52.451 97.6976C51.599 97.6976 51.102 98.2909 51.102 99.4777V99.5518C51.102 100.664 51.67 101.332 52.451 101.332C53.3031 101.332 53.8001 100.664 53.8001 99.5518ZM49.3979 99.626V99.5518C49.3979 97.6976 50.747 96.4367 52.5221 96.4367C54.2971 96.4367 55.6462 97.6234 55.6462 99.5518V99.626C55.6462 101.554 54.4391 102.815 52.5221 102.815C50.534 102.741 49.3979 101.406 49.3979 99.626Z" fill="white"/>
<path d="M58.344 102.368L60.403 100.069C60.9711 99.4015 61.3971 98.8823 61.3971 98.3631C61.3971 97.9181 61.1841 97.6956 60.758 97.6956C60.332 97.6956 60.048 97.9923 59.977 98.6598H58.415C58.486 97.1022 59.338 96.3605 60.758 96.3605C62.1781 96.3605 62.9591 97.1764 62.9591 98.289C62.9591 99.1048 62.5331 99.7724 61.8941 100.44L61.0421 101.256H63.0301V102.591H58.2729L58.344 102.368Z" fill="white"/>
<path d="M13.687 109.933V109.859C13.687 107.931 14.9651 106.744 16.6691 106.744C18.2312 106.744 19.2253 107.486 19.3673 109.118H17.5922C17.5212 108.524 17.1662 108.153 16.5981 108.153C15.8171 108.153 15.3911 108.747 15.3911 109.933V110.008C15.3911 111.12 15.8171 111.788 16.6691 111.788C17.2372 111.788 17.6632 111.417 17.7342 110.823H19.4383C19.2963 112.455 18.2312 113.197 16.7401 113.197C14.6811 113.048 13.687 111.788 13.687 109.933Z" fill="white"/>
<path d="M20.644 106.819H24.6912V108.154H22.2771V109.193H24.1942V110.454H22.2771V111.566H24.8332V112.901H20.644V106.819Z" fill="white"/>
<path d="M28.2423 109.563C28.8103 109.563 29.0943 109.267 29.0943 108.822V108.748C29.0943 108.229 28.8103 108.08 28.2423 108.08H27.6743V109.563H28.2423ZM26.0412 106.819H28.3133C29.8754 106.819 30.7274 107.487 30.7274 108.748V108.822C30.7274 109.712 30.3014 110.157 29.6624 110.453L31.0824 112.975H29.3073L28.1003 110.75H27.6743V112.975H25.9702V106.819H26.0412Z" fill="white"/>
<path d="M33.141 108.154H31.6499V106.819H36.4071V108.154H34.845V112.901H33.141V108.154Z" fill="white"/>
<path d="M37.5425 106.819H39.2465V112.975H37.5425V106.819Z" fill="white"/>
<path d="M40.8081 106.819H44.7843V108.154H42.5122V109.489H44.3583V110.75H42.5122V112.901H40.8081V106.819Z" fill="white"/>
<path d="M46.062 106.819H47.7661V112.975H46.062V106.819Z" fill="white"/>
<path d="M49.2573 106.819H53.3755V108.154H50.9614V109.193H52.8785V110.454H50.9614V111.566H53.4465V112.901H49.2573V106.819Z" fill="white"/>
<path d="M56.7819 111.566C57.776 111.566 58.273 111.047 58.273 109.86C58.273 108.674 57.847 108.154 56.7819 108.154H56.4269V111.566H56.7819ZM54.7229 106.819H56.8529C58.912 106.819 59.977 107.932 59.977 109.86V109.934C59.977 111.863 58.912 113.049 56.7819 113.049H54.6519V106.819H54.7229Z" fill="white"/>
<path d="M16.882 125.657H18.444L17.663 121.355L16.882 125.657ZM18.657 126.621H16.669L16.314 128.624H15.1069L16.811 120.242H18.657L20.3611 128.624H19.083L18.657 126.621Z" fill="white"/>
<path d="M21.355 126.844H22.491C22.562 127.511 22.775 127.808 23.272 127.808C23.769 127.808 23.982 127.511 23.982 127.066C23.982 126.547 23.627 126.325 22.988 126.028C21.994 125.509 21.497 125.064 21.497 124.025C21.497 122.987 22.278 122.394 23.272 122.394C24.337 122.394 25.047 122.913 25.047 124.174H23.982C23.982 123.58 23.698 123.358 23.272 123.358C22.846 123.358 22.633 123.58 22.633 124.025C22.633 124.545 22.917 124.693 23.627 125.064C24.55 125.509 25.189 125.954 25.189 127.066C25.189 128.179 24.55 128.846 23.343 128.846C22.136 128.698 21.355 128.03 21.355 126.844Z" fill="white"/>
<path d="M26.396 126.844H27.532C27.603 127.511 27.816 127.808 28.3131 127.808C28.8101 127.808 29.0231 127.511 29.0231 127.066C29.0231 126.547 28.6681 126.325 28.0291 126.028C27.035 125.509 26.538 125.064 26.538 124.025C26.538 122.987 27.319 122.394 28.3131 122.394C29.3781 122.394 30.0881 122.913 30.0881 124.174H29.0231C29.0231 123.58 28.7391 123.358 28.3131 123.358C27.887 123.358 27.674 123.58 27.674 124.025C27.674 124.545 27.9581 124.693 28.6681 125.064C29.5911 125.509 30.2301 125.954 30.2301 127.066C30.2301 128.179 29.5911 128.846 28.3841 128.846C27.035 128.698 26.396 128.03 26.396 126.844Z" fill="white"/>
<path d="M34.4901 126.473V124.545C34.4901 123.655 34.1351 123.284 33.5671 123.284C32.928 123.284 32.644 123.729 32.644 124.545V126.473C32.644 127.289 32.928 127.734 33.5671 127.734C34.2061 127.734 34.4901 127.363 34.4901 126.473ZM31.437 126.473V124.619C31.437 123.135 32.289 122.394 33.5671 122.394C34.7741 122.394 35.6971 123.135 35.6971 124.619V126.473C35.6971 127.956 34.8451 128.698 33.5671 128.698C32.289 128.698 31.437 127.956 31.437 126.473Z" fill="white"/>
<path d="M37.0444 126.473V124.619C37.0444 123.061 37.9675 122.394 39.1035 122.394C40.1686 122.394 41.0206 122.839 41.0916 124.396H39.9556C39.8846 123.58 39.6006 123.358 39.1035 123.358C38.5355 123.358 38.2515 123.729 38.2515 124.619V126.547C38.2515 127.437 38.6065 127.808 39.1745 127.808C39.6716 127.808 40.0266 127.511 40.0266 126.621H41.0916C41.0206 128.105 40.3106 128.772 39.1035 128.772C37.8965 128.698 37.0444 128.031 37.0444 126.473Z" fill="white"/>
<path d="M42.5126 122.468H43.6487V128.624H42.5126V122.468ZM42.3706 120.911C42.3706 120.466 42.6546 120.169 43.0806 120.169C43.5067 120.169 43.7907 120.466 43.7907 120.911C43.7907 121.356 43.5067 121.652 43.0806 121.652C42.6546 121.652 42.3706 121.356 42.3706 120.911Z" fill="white"/>
<path d="M47.9073 126.844V125.805H47.2683C46.6292 125.805 46.2742 126.102 46.2742 126.77V126.918C46.2742 127.511 46.4872 127.808 46.9843 127.808C47.5523 127.808 47.9073 127.585 47.9073 126.844ZM45.1382 127.066V126.844C45.1382 125.583 45.9192 125.064 47.1973 125.064H47.8363V124.322C47.8363 123.655 47.6943 123.358 47.1263 123.358C46.6292 123.358 46.4162 123.655 46.4162 124.174H45.2802C45.3512 122.987 46.0612 122.394 47.1973 122.394C48.4043 122.394 49.0433 122.987 49.0433 124.322V128.624H47.9073V128.03C47.6943 128.401 47.3393 128.698 46.7002 128.698C45.7772 128.698 45.1382 128.179 45.1382 127.066Z" fill="white"/>
<path d="M52.0975 121.206V122.467H53.0915V123.431H52.0975V127.065C52.0975 127.51 52.3105 127.733 52.6655 127.733C52.8785 127.733 53.0205 127.659 53.0915 127.659V128.623C52.9495 128.697 52.7365 128.697 52.4525 128.697C51.3875 128.697 50.8905 128.178 50.8905 127.139V123.431H50.2515V122.467H50.8905V121.206H52.0975Z" fill="white"/>
<path d="M55.5757 124.916H57.3508V124.545C57.3508 123.655 56.9957 123.284 56.4987 123.284C55.9307 123.284 55.5757 123.729 55.5757 124.545V124.916ZM54.3687 126.473V124.619C54.3687 123.135 55.2207 122.394 56.4277 122.394C57.6348 122.394 58.4868 123.061 58.4868 124.619V125.88H55.5757V126.547C55.5757 127.437 55.8597 127.808 56.4987 127.808C57.0667 127.808 57.3508 127.511 57.3508 126.918H58.4158C58.3448 128.179 57.6348 128.772 56.4277 128.772C55.1497 128.698 54.3687 127.956 54.3687 126.473Z" fill="white"/>
<path d="M16.0302 132.998V139.377H16.8112C17.9472 139.377 18.3733 138.784 18.3733 137.597V134.853C18.3733 133.666 17.9472 133.073 16.8112 133.073L16.0302 132.998ZM16.8112 131.96C18.7283 131.96 19.5803 132.85 19.5803 134.779V137.523C19.5803 139.377 18.7283 140.341 16.8112 140.341H14.6812V131.96H16.8112Z" fill="white"/>
<path d="M22.2781 136.707H24.0532V136.336C24.0532 135.446 23.6982 135.075 23.2012 135.075C22.6331 135.075 22.2781 135.52 22.2781 136.336V136.707ZM21.1421 138.264V136.41C21.1421 134.926 21.9941 134.185 23.2012 134.185C24.4082 134.185 25.2602 134.852 25.2602 136.41V137.671H22.3491V138.338C22.3491 139.228 22.6331 139.599 23.2722 139.599C23.8402 139.599 24.1242 139.302 24.1242 138.709H25.1892C25.1182 139.97 24.4082 140.563 23.2012 140.563C21.9231 140.489 21.1421 139.748 21.1421 138.264Z" fill="white"/>
<path d="M26.2534 134.259H27.4604L28.4545 139.006L29.4485 134.259H30.5845L29.0935 140.415H27.7445L26.2534 134.259Z" fill="white"/>
<path d="M32.7144 136.707H34.4894V136.336C34.4894 135.446 34.1344 135.075 33.6374 135.075C33.0694 135.075 32.7144 135.52 32.7144 136.336V136.707ZM31.5073 138.264V136.41C31.5073 134.926 32.3594 134.185 33.5664 134.185C34.7734 134.185 35.6255 134.852 35.6255 136.41V137.671H32.7144V138.338C32.7144 139.228 32.9984 139.599 33.6374 139.599C34.2054 139.599 34.4894 139.303 34.4894 138.709H35.6255C35.5545 139.97 34.8444 140.563 33.6374 140.563C32.2883 140.489 31.5073 139.748 31.5073 138.264Z" fill="white"/>
<path d="M37.187 131.589H38.394V140.415H37.187V131.589Z" fill="white"/>
<path d="M42.9381 138.264V136.336C42.9381 135.446 42.5831 135.075 42.015 135.075C41.376 135.075 41.092 135.52 41.092 136.336V138.264C41.092 139.08 41.376 139.525 42.015 139.525C42.5831 139.451 42.9381 139.08 42.9381 138.264ZM39.814 138.264V136.41C39.814 134.926 40.666 134.185 41.944 134.185C43.1511 134.185 44.0741 134.926 44.0741 136.41V138.264C44.0741 139.747 43.2221 140.489 41.944 140.489C40.737 140.489 39.814 139.673 39.814 138.264Z" fill="white"/>
<path d="M47.7657 139.524C48.3337 139.524 48.6887 139.154 48.6887 138.338V136.261C48.6887 135.445 48.3337 135.075 47.8367 135.075C47.1977 135.075 46.8427 135.52 46.8427 136.335V138.189C46.7717 139.079 47.1267 139.524 47.7657 139.524ZM46.7717 134.259V135C46.9847 134.481 47.4817 134.111 48.1207 134.111C49.1147 134.111 49.8248 134.852 49.8248 136.261V138.338C49.8248 139.747 49.1147 140.489 48.0497 140.489C47.4107 140.489 46.9137 140.118 46.7007 139.673V142.417H45.4937V134.185H46.7717V134.259Z" fill="white"/>
<path d="M52.3804 136.707H54.1554V136.336C54.1554 135.446 53.8004 135.075 53.3034 135.075C52.7354 135.075 52.3804 135.52 52.3804 136.336V136.707ZM51.1733 138.264V136.41C51.1733 134.926 52.0254 134.185 53.2324 134.185C54.4394 134.185 55.2915 134.852 55.2915 136.41V137.671H52.3804V138.338C52.3804 139.228 52.6644 139.599 53.3034 139.599C53.8714 139.599 54.1554 139.302 54.1554 138.709H55.2205C55.1495 139.97 54.4394 140.563 53.2324 140.563C52.0254 140.489 51.1733 139.748 51.1733 138.264Z" fill="white"/>
<path d="M56.7827 134.259H57.9188V135.149C58.2028 134.481 58.6288 134.185 59.3388 134.185V135.371C58.4158 135.446 57.9188 135.668 57.9188 136.558V140.341H56.7827V134.259Z" fill="white"/>
</svg>
