<svg width="72" height="150" viewBox="0 0 72 150" fill="none" xmlns="http://www.w3.org/2000/svg">
<path d="M71.8662 149.166V22.7931L36.0125 0.840973L0.158691 22.7931V149.166H71.8662Z" fill="#FDBA16"/>
<path d="M71.8659 66.3263L36.0122 88.2785V149.166H71.8659V66.3263Z" fill="#B88A2C"/>
<path d="M0.158691 66.3263V149.166H36.0124V88.2785L0.158691 66.3263Z" fill="#D6A026"/>
<path d="M10.1001 60.9884V29.3946L36.0142 13.5236L61.8573 29.3205V60.9884L54.4736 65.5124V33.9186L35.9432 22.5716L17.4128 33.9186L17.4838 65.5124L10.1001 60.9884Z" fill="white"/>
<path d="M24.8657 70.0349V38.442L32.2495 33.9181V65.5852L35.9413 67.8101L39.6332 65.511V33.9181L47.0169 38.442V70.0349L35.9413 76.8578L24.8657 70.0349Z" fill="white"/>
<path d="M10.3813 96.5109H12.5824L13.6474 99.774L14.7835 96.5109H16.9135V102.666H15.2805V98.8099L13.8605 102.666H13.2924L11.8724 98.8099V102.666H10.3813V96.5109Z" fill="white"/>
<path d="M20.1801 100.293H21.4581L20.8191 97.92L20.1801 100.293ZM19.8251 96.5109H21.9551L23.8012 102.666H22.0261L21.7421 101.554H19.8251L19.5411 102.666H17.979L19.8251 96.5109Z" fill="white"/>
<path d="M31.397 96.5109H35.3731V97.8458H33.03V98.8841H34.8761V100.145H33.03V101.257H35.5151V102.666H31.397V96.5109Z" fill="white"/>
<path d="M36.7212 96.5109H38.5673L40.4843 99.9223V96.5109H41.9044V102.666H40.2713L38.2122 98.8099V102.666H36.7212V96.5109Z" fill="white"/>
<path d="M44.5306 97.8458H43.0396V96.5109H47.7257V97.8458H46.2346V102.666H44.5306V97.8458Z" fill="white"/>
<path d="M19.9673 106.819H24.0144V108.154H21.6713V109.193H23.5174V110.453H21.6713V111.566H24.0854V112.9H19.9673V106.819Z" fill="white"/>
<path d="M32.3216 108.154H30.8306V106.819H35.5168V108.154H34.0257V112.9H32.3216V108.154Z" fill="white"/>
<path d="M38.3549 106.819H36.6509V112.975H38.3549V106.819Z" fill="white"/>
<path d="M39.9165 106.819H43.8216V108.154H41.5495V109.489H43.3246V110.75H41.5495V112.9H39.9165V106.819Z" fill="white"/>
<path d="M46.7338 106.819H45.0298V112.975H46.7338V106.819Z" fill="white"/>
<path d="M48.2231 106.819H52.1993V108.154H49.8562V109.193H51.7733V110.453H49.8562V111.566H52.3413V112.9H48.2231V106.819Z" fill="white"/>
<path d="M62.565 119.872H61.3579V128.698H62.565V119.872Z" fill="white"/>
<path d="M25.0083 134.333H26.2153L27.2094 139.08L28.1324 134.333H29.2685L27.8484 140.489H26.4284L25.0083 134.333Z" fill="white"/>
<path d="M36.9361 131.663H35.729V140.49H36.9361V131.663Z" fill="white"/>
<path d="M41.4064 138.339V136.485C41.4064 135.595 41.1224 135.224 40.4834 135.224C39.9154 135.224 39.5604 135.669 39.5604 136.485V138.413C39.5604 139.229 39.8444 139.674 40.4834 139.674C41.1224 139.674 41.4064 139.229 41.4064 138.339ZM38.4243 138.339V136.485C38.4243 135.002 39.2763 134.26 40.4834 134.26C41.6904 134.26 42.6135 135.002 42.6135 136.485V138.339C42.6135 139.822 41.7614 140.564 40.4834 140.564C39.2763 140.564 38.4243 139.822 38.4243 138.339Z" fill="white"/>
<path d="M46.236 139.674C46.804 139.674 47.0881 139.303 47.0881 138.487V136.411C47.0881 135.595 46.733 135.224 46.236 135.224C45.668 135.224 45.242 135.669 45.242 136.485V138.339C45.242 139.229 45.597 139.674 46.236 139.674ZM45.242 134.334V135.076C45.455 134.557 45.952 134.186 46.591 134.186C47.5851 134.186 48.2241 134.927 48.2241 136.337V138.413C48.2241 139.822 47.5141 140.564 46.52 140.564C45.881 140.564 45.455 140.193 45.242 139.748V142.493H44.106V134.334H45.242Z" fill="white"/>
<path d="M50.7811 136.856H52.5561V136.485C52.5561 135.595 52.2011 135.224 51.7041 135.224C51.1361 135.224 50.7811 135.595 50.7811 136.559V136.856ZM49.645 138.339V136.485C49.645 135.002 50.497 134.26 51.7041 134.26C52.9111 134.26 53.6921 134.927 53.6921 136.485V137.746H50.7811V138.413C50.7811 139.303 51.0651 139.674 51.7041 139.674C52.2721 139.674 52.4851 139.377 52.5561 138.784H53.6211C53.5501 140.045 52.8401 140.638 51.6331 140.638C50.426 140.564 49.645 139.822 49.645 138.339Z" fill="white"/>
<path d="M55.1099 134.334H56.2459V135.224C56.5299 134.557 56.9559 134.26 57.666 134.26V135.447C56.7429 135.447 56.2459 135.743 56.2459 136.633V140.416H55.1099V134.334Z" fill="white"/>
<path d="M31.326 136.856H33.101V136.485C33.101 135.595 32.746 135.224 32.249 135.224C31.681 135.224 31.326 135.595 31.326 136.559V136.856ZM30.1899 138.339V136.485C30.1899 135.002 31.042 134.26 32.249 134.26C33.456 134.26 34.2371 134.927 34.2371 136.485V137.746H31.326V138.413C31.326 139.303 31.61 139.674 32.249 139.674C32.817 139.674 33.03 139.377 33.101 138.784H34.1661C34.0951 140.045 33.385 140.638 32.178 140.638C30.971 140.564 30.1899 139.822 30.1899 138.339Z" fill="white"/>
<path d="M21.1033 136.856H22.8784V136.485C22.8784 135.595 22.5234 135.224 22.0263 135.224C21.4583 135.224 21.1033 135.595 21.1033 136.559V136.856ZM19.9673 138.339V136.485C19.9673 135.002 20.8193 134.26 22.0263 134.26C23.2334 134.26 24.0144 134.927 24.0144 136.485V137.746H21.1033V138.413C21.1033 139.303 21.3873 139.674 22.0263 139.674C22.5944 139.674 22.8074 139.377 22.8784 138.784H23.9434C23.8724 140.045 23.1624 140.638 21.9553 140.638C20.7483 140.564 19.9673 139.822 19.9673 138.339Z" fill="white"/>
<path d="M14.925 133.147V139.452H15.635C16.7711 139.452 17.1971 138.933 17.1971 137.672V134.927C17.1971 133.666 16.8421 133.147 15.635 133.147H14.925ZM15.706 132.109C17.5521 132.109 18.4751 132.999 18.4751 134.927V137.672C18.4751 139.526 17.6231 140.49 15.706 140.49H13.647V132.109H15.706Z" fill="white"/>
<path d="M58.5188 126.992V125.954H57.9508C57.3118 125.954 57.0278 126.176 57.0278 126.918V127.066C57.0278 127.66 57.2408 127.956 57.7378 127.956C58.2348 127.956 58.5188 127.66 58.5188 126.992ZM55.8208 127.14V126.918C55.8208 125.583 56.6018 125.138 57.8798 125.138H58.5188V124.396C58.5188 123.729 58.3768 123.358 57.8088 123.358C57.3118 123.358 57.0988 123.655 57.0988 124.174H55.9628C55.9628 122.987 56.7438 122.394 57.8088 122.394C58.9449 122.394 59.6549 122.987 59.6549 124.322V128.624H58.5188V128.03C58.3058 128.401 58.0218 128.698 57.3118 128.698C56.4598 128.846 55.8208 128.253 55.8208 127.14Z" fill="white"/>
<path d="M50.4966 122.542H51.6326V123.284C51.8457 122.765 52.2717 122.394 52.9817 122.394C53.8338 122.394 54.4018 122.987 54.4018 124.174V128.624H53.2657V124.248C53.2657 123.655 53.0527 123.358 52.5557 123.358C52.0587 123.358 51.7037 123.729 51.7037 124.322V128.549H50.5676V122.542H50.4966Z" fill="white"/>
<path d="M47.8693 126.621V124.693C47.8693 123.803 47.5853 123.432 46.9463 123.432C46.3783 123.432 46.0232 123.877 46.0232 124.693V126.621C46.0232 127.437 46.3073 127.882 46.9463 127.882C47.5853 127.882 47.8693 127.437 47.8693 126.621ZM44.8872 126.621V124.767C44.8872 123.284 45.7392 122.542 46.9463 122.542C48.1533 122.542 49.0764 123.284 49.0764 124.767V126.621C49.0764 128.105 48.2243 128.846 46.9463 128.846C45.7392 128.846 44.8872 128.031 44.8872 126.621Z" fill="white"/>
<path d="M55.6077 111.566C56.6017 111.566 57.0277 111.047 57.0277 109.86V109.786C57.0277 108.599 56.6017 108.154 55.6077 108.154H55.2526V111.566H55.6077ZM53.6196 106.819H55.7497C57.8087 106.819 58.8737 107.932 58.8737 109.786V109.86C58.8737 111.788 57.8087 112.9 55.7497 112.9H53.6196V106.819Z" fill="white"/>
<path d="M10.5237 124.248C11.2338 124.248 11.5888 123.877 11.5888 122.987V122.542C11.5888 121.652 11.2338 121.355 10.5237 121.355H9.81369V124.248H10.5237ZM8.53564 120.317H10.5237C12.0148 120.317 12.8668 120.984 12.8668 122.542V123.061C12.8668 124.544 12.0148 125.286 10.5237 125.286H9.81369V128.772H8.53564V120.317Z" fill="white"/>
<path d="M14.2153 122.542H15.3514V123.432C15.6354 122.765 16.0614 122.468 16.7714 122.468V123.655C15.8484 123.655 15.3514 123.951 15.3514 124.841V128.624H14.2153V122.542Z" fill="white"/>
<path d="M23.7293 123.506H23.0903V122.542H23.7293V121.504C23.7293 120.465 24.2973 119.798 25.2913 119.798C25.5753 119.798 25.7883 119.798 25.8593 119.872V120.836C25.7883 120.836 25.6463 120.762 25.5043 120.762C25.0783 120.762 24.8653 120.985 24.8653 121.504V122.542H25.8593V123.506H24.8653V128.698H23.7293V123.506Z" fill="white"/>
<path d="M20.8895 126.621V124.693C20.8895 123.803 20.6055 123.432 19.9665 123.432C19.3985 123.432 19.0435 123.877 19.0435 124.693V126.621C19.0435 127.437 19.3275 127.882 19.9665 127.882C20.5345 127.882 20.8895 127.437 20.8895 126.621ZM17.8364 126.621V124.767C17.8364 123.284 18.6885 122.542 19.8955 122.542C21.1025 122.542 22.0256 123.284 22.0256 124.767V126.621C22.0256 128.105 21.1735 128.846 19.8955 128.846C18.6885 128.846 17.8364 128.031 17.8364 126.621Z" fill="white"/>
<path d="M27.99 125.064H29.7651V124.693C29.7651 123.803 29.4101 123.432 28.9131 123.432C28.345 123.432 27.99 123.803 27.99 124.767V125.064ZM26.854 126.547V124.693C26.854 123.21 27.706 122.468 28.9131 122.468C30.1201 122.468 30.9011 123.135 30.9011 124.693V125.954H27.99V126.621C27.99 127.512 28.274 127.882 28.9131 127.882C29.4811 127.882 29.6941 127.586 29.7651 126.992H30.8301C30.7591 128.253 30.0491 128.847 28.8421 128.847C27.635 128.847 26.854 128.031 26.854 126.547Z" fill="white"/>
<path d="M32.1782 126.918H33.2433C33.2433 127.585 33.5273 127.882 34.0243 127.882C34.5213 127.882 34.7343 127.66 34.7343 127.14C34.7343 126.621 34.3793 126.399 33.7403 126.102C32.7463 125.583 32.2492 125.138 32.2492 124.1C32.2492 123.061 33.0303 122.468 33.9533 122.468C35.0184 122.468 35.7284 122.987 35.7284 124.248H34.6633C34.6633 123.655 34.3793 123.432 33.9533 123.432C33.5273 123.432 33.3143 123.655 33.3143 124.1C33.3143 124.545 33.5273 124.767 34.3083 125.138C35.2314 125.583 35.8704 126.028 35.8704 127.14C35.8704 128.253 35.3024 128.92 34.0953 128.92C32.8883 128.846 32.1782 128.179 32.1782 126.918Z" fill="white"/>
<path d="M37.0767 126.918H38.1417C38.1417 127.585 38.4257 127.882 38.9227 127.882C39.4197 127.882 39.6327 127.66 39.6327 127.14C39.6327 126.621 39.2777 126.399 38.6387 126.102C37.6447 125.583 37.1477 125.138 37.1477 124.1C37.1477 123.061 37.9287 122.468 38.8517 122.468C39.9167 122.468 40.6267 122.987 40.6267 124.248H39.5617C39.5617 123.655 39.2777 123.432 38.8517 123.432C38.4257 123.432 38.2127 123.655 38.2127 124.1C38.2127 124.545 38.4257 124.767 39.2067 125.138C40.1297 125.583 40.7687 126.028 40.7687 127.14C40.7687 128.253 40.2007 128.92 38.9937 128.92C37.7867 128.846 37.0767 128.179 37.0767 126.918Z" fill="white"/>
<path d="M42.1887 122.543H43.3247V128.698H42.1887V122.543ZM42.1177 120.985C42.1177 120.614 42.4017 120.243 42.8277 120.243C43.1827 120.243 43.5377 120.54 43.5377 120.985C43.5377 121.43 43.2537 121.727 42.8277 121.727C42.4017 121.727 42.1177 121.43 42.1177 120.985Z" fill="white"/>
<path d="M27.5629 109.563C28.1309 109.563 28.4149 109.341 28.4149 108.822C28.4149 108.303 28.1309 108.154 27.5629 108.154H26.9949V109.638H27.5629V109.563ZM25.3618 106.819H27.6339C29.1249 106.819 29.977 107.487 29.977 108.748C29.977 109.638 29.551 110.082 28.9119 110.379L30.332 112.9H28.5569L27.3499 110.676H26.9949V112.9H25.3618V106.819Z" fill="white"/>
<path d="M52.6976 99.626C52.6976 98.4393 52.2006 97.8459 51.3485 97.8459C50.5675 97.8459 49.9995 98.4393 49.9995 99.626V99.7002C49.9995 100.813 50.5675 101.48 51.3485 101.48C52.2006 101.332 52.6976 100.664 52.6976 99.626ZM48.2954 99.626C48.2954 97.6976 49.6445 96.4367 51.3485 96.4367C53.1236 96.4367 54.4017 97.6234 54.4017 99.5518V99.626C54.4017 101.48 53.1946 102.815 51.2775 102.815C49.5025 102.741 48.2954 101.48 48.2954 99.626Z" fill="white"/>
<path d="M57.1704 102.369L59.1585 100.07C59.7266 99.4022 60.0816 98.8831 60.0816 98.3639C60.0816 97.9189 59.8686 97.6964 59.4425 97.6964C59.0165 97.6964 58.8035 97.9931 58.6615 98.6606H57.3124C57.3834 97.1031 58.2355 96.3615 59.6555 96.3615C61.0756 96.3615 61.8567 97.1773 61.8567 98.2898C61.8567 99.1056 61.4306 99.7731 60.7916 100.441L60.0106 101.256H61.9277V102.591H57.2414V102.369H57.1704Z" fill="white"/>
<path d="M13.1509 109.934C13.1509 108.006 14.4289 106.745 16.133 106.745C17.624 106.745 18.689 107.487 18.831 109.119H17.127C17.056 108.525 16.701 108.154 16.133 108.154C15.3519 108.154 14.9259 108.748 14.9259 109.86V109.934C14.9259 111.047 15.3519 111.64 16.133 111.64C16.701 111.64 17.127 111.344 17.198 110.602H18.831C18.689 112.159 17.624 113.05 16.133 113.05C14.1449 113.05 13.1509 111.789 13.1509 109.934Z" fill="white"/>
<path d="M24.2993 99.6259C24.2993 97.6975 25.5774 96.4367 27.3524 96.4367C28.7015 96.4367 29.9085 97.1042 30.0505 98.6617H28.4175C28.3465 98.0684 27.9914 97.7717 27.3524 97.7717C26.5004 97.7717 26.0744 98.4392 26.0744 99.5517V99.6259C26.0744 100.59 26.4294 101.406 27.4234 101.406C28.2045 101.406 28.5595 100.961 28.5595 100.516H27.4944V99.255H30.1925V99.9967C30.1925 101.554 29.1985 102.741 27.3524 102.741C25.3644 102.741 24.2993 101.48 24.2993 99.6259Z" fill="white"/>
</svg>
