<svg width="40" height="41" viewBox="0 0 40 41" fill="none" xmlns="http://www.w3.org/2000/svg">
<path d="M28.4449 15.5701L31.7876 24.446H29.3221L28.7524 22.8567H25.5639L26.2456 21.1338H28.2121L27.279 18.5209L28.4459 15.5701H28.4449ZM20.4776 15.5701L22.2182 21.3066L24.6661 15.5701H27.0383L23.4598 24.446H21.1201L19.5091 19.3018L17.8196 24.446H15.4857L14.2736 22.3675L15.466 18.6918L16.7843 21.3057L18.6535 15.5701H20.4776V15.5701ZM11.8866 15.5701C12.9318 15.5701 13.7254 15.8697 14.2677 16.4709C14.3697 16.5831 14.4617 16.7041 14.5427 16.8324L13.4877 20.0867L13.1096 21.2507C12.7638 21.3489 12.3699 21.399 11.9269 21.399H10.4653V24.446H8.21289V15.5701H11.8866ZM11.3169 17.2921H10.4662V19.677H11.311C11.8581 19.677 12.2343 19.5592 12.4387 19.3254C12.6253 19.1142 12.7176 18.8284 12.7176 18.4679C12.7176 18.1103 12.6125 17.8254 12.4004 17.6123C12.1882 17.3991 11.8277 17.2921 11.3169 17.2921V17.2921Z" fill="url(#paint0_linear_206_693)"/>
<rect x="3.5" y="3.50806" width="33" height="33" rx="1" stroke="url(#paint1_linear_206_693)" stroke-width="2" stroke-linejoin="round"/>
<defs>
<linearGradient id="paint0_linear_206_693" x1="8.21289" y1="20.0081" x2="31.7876" y2="20.0081" gradientUnits="userSpaceOnUse">
<stop stop-color="#CD4B3A"/>
<stop offset="1" stop-color="#E17139"/>
</linearGradient>
<linearGradient id="paint1_linear_206_693" x1="2.5" y1="20.0081" x2="37.5" y2="20.0081" gradientUnits="userSpaceOnUse">
<stop stop-color="#CD4B3A"/>
<stop offset="1" stop-color="#E17139"/>
</linearGradient>
</defs>
</svg>
