<svg width="40" height="41" viewBox="0 0 40 41" fill="none" xmlns="http://www.w3.org/2000/svg">
<path d="M26.2502 3.75806C20.7127 3.75806 16.2502 8.22056 16.2502 13.7581C16.2502 14.0518 16.2965 14.4493 16.329 14.8131L5.62524 25.5156C5.04056 26.0964 4.57655 26.7872 4.25992 27.5482C3.94328 28.3091 3.78027 29.1251 3.78027 29.9493C3.78027 30.7735 3.94328 31.5895 4.25992 32.3505C4.57655 33.1114 5.04056 33.8022 5.62524 34.3831C6.20612 34.9677 6.89691 35.4317 7.65784 35.7484C8.41877 36.065 9.23481 36.228 10.059 36.228C10.8832 36.228 11.6992 36.065 12.4601 35.7484C13.2211 35.4317 13.9118 34.9677 14.4927 34.3831L25.1952 23.6793C25.5577 23.7118 25.9577 23.7581 26.2502 23.7581C31.7877 23.7581 36.2502 19.2956 36.2502 13.7581C36.2568 12.1468 35.8533 10.5604 35.0777 9.14806L34.2965 7.70306L33.1252 8.87556L27.734 14.2256L25.7815 12.2731L31.1315 6.88306L32.3065 5.71056L30.8602 4.92931C29.4474 4.15522 27.8612 3.75223 26.2502 3.75806ZM26.2502 6.25806C26.8577 6.25806 27.3102 6.52056 27.8502 6.64931L23.1252 11.3743L22.2252 12.2743L23.1252 13.1331L26.8752 16.8831L27.7352 17.7831L28.6327 16.8831L33.3602 12.1581C33.489 12.6981 33.7502 13.1506 33.7502 13.7581C33.7502 17.9706 30.4627 21.2581 26.2502 21.2581C25.7502 21.2581 25.3502 21.2581 25.0377 21.1793L24.3752 20.9843L23.8677 21.4931L12.734 32.6268C11.1965 34.1643 8.92149 34.1643 7.38399 32.6268L7.34399 32.5868C5.84399 31.0493 5.85649 28.7993 7.38149 27.2743L18.5152 16.1418L19.024 15.6343L18.8265 14.9718C18.7515 14.6593 18.749 14.2593 18.749 13.7593C18.749 9.54681 22.0365 6.25931 26.249 6.25931L26.2502 6.25806Z" fill="url(#paint0_linear_206_703)"/>
<defs>
<linearGradient id="paint0_linear_206_703" x1="3.78027" y1="19.993" x2="36.2503" y2="19.993" gradientUnits="userSpaceOnUse">
<stop stop-color="#CD4B3A"/>
<stop offset="1" stop-color="#E17139"/>
</linearGradient>
</defs>
</svg>
