<svg width="40" height="41" viewBox="0 0 40 41" fill="none" xmlns="http://www.w3.org/2000/svg">
<path d="M8.33301 17.9247H6.66634C5.78229 17.9247 4.93444 17.5735 4.30932 16.9484C3.6842 16.3233 3.33301 15.4754 3.33301 14.5914V7.9247C3.33301 7.04065 3.6842 6.1928 4.30932 5.56768C4.93444 4.94256 5.78229 4.59137 6.66634 4.59137H33.333C34.2171 4.59137 35.0649 4.94256 35.69 5.56768C36.3152 6.1928 36.6663 7.04065 36.6663 7.9247V14.5914C36.6663 15.4754 36.3152 16.3233 35.69 16.9484C35.0649 17.5735 34.2171 17.9247 33.333 17.9247H31.6663M8.33301 22.0914H6.66634C5.78229 22.0914 4.93444 22.4426 4.30932 23.0677C3.6842 23.6928 3.33301 24.5406 3.33301 25.4247V32.0914C3.33301 32.9754 3.6842 33.8233 4.30932 34.4484C4.93444 35.0735 5.78229 35.4247 6.66634 35.4247H33.333C34.2171 35.4247 35.0649 35.0735 35.69 34.4484C36.3152 33.8233 36.6663 32.9754 36.6663 32.0914V25.4247C36.6663 24.5406 36.3152 23.6928 35.69 23.0677C35.0649 22.4426 34.2171 22.0914 33.333 22.0914H31.6663M9.99967 11.258H10.0163M9.99967 28.758H10.0163" stroke="url(#paint0_linear_206_707)" stroke-width="2" stroke-linecap="round" stroke-linejoin="round"/>
<path d="M19.999 25.0081C22.7604 25.0081 24.999 22.7695 24.999 20.0081C24.999 17.2466 22.7604 15.0081 19.999 15.0081C17.2376 15.0081 14.999 17.2466 14.999 20.0081C14.999 22.7695 17.2376 25.0081 19.999 25.0081Z" stroke="url(#paint1_linear_206_707)" stroke-width="2" stroke-linecap="round" stroke-linejoin="round"/>
<path d="M19.9997 13.3414V15.008M19.9997 25.008V26.6747M26.6663 20.008H24.9997M14.9997 20.008H13.333M24.9997 15.008L23.533 16.4747M16.4663 23.5414L14.9997 25.008M24.9997 25.008L23.533 23.5414M16.4663 16.4747L14.9997 15.008" stroke="url(#paint2_linear_206_707)" stroke-width="2" stroke-linecap="round" stroke-linejoin="round"/>
<defs>
<linearGradient id="paint0_linear_206_707" x1="3.33301" y1="20.008" x2="36.6663" y2="20.008" gradientUnits="userSpaceOnUse">
<stop stop-color="#CD4B3A"/>
<stop offset="1" stop-color="#E17139"/>
</linearGradient>
<linearGradient id="paint1_linear_206_707" x1="14.999" y1="20.0081" x2="24.999" y2="20.0081" gradientUnits="userSpaceOnUse">
<stop stop-color="#CD4B3A"/>
<stop offset="1" stop-color="#E17139"/>
</linearGradient>
<linearGradient id="paint2_linear_206_707" x1="13.333" y1="20.008" x2="26.6663" y2="20.008" gradientUnits="userSpaceOnUse">
<stop stop-color="#CD4B3A"/>
<stop offset="1" stop-color="#E17139"/>
</linearGradient>
</defs>
</svg>
